<ttFont>
    <TTGlyph name="A" xMin="-18" yMin="-10" xMax="591" yMax="649">
      <contour>
        <pt x="493" y="113" on="1"/>
        <pt x="499" y="94" on="0"/>
        <pt x="514" y="69" on="0"/>
        <pt x="536" y="52" on="0"/>
        <pt x="567" y="44" on="0"/>
        <pt x="589" y="42" on="1"/>
        <pt x="591" y="38" on="1"/>
        <pt x="584" y="-3" on="1"/>
        <pt x="563" y="-3" on="0"/>
        <pt x="544" y="-2" on="1"/>
        <pt x="527" y="-1" on="0"/>
        <pt x="491" y="0" on="0"/>
        <pt x="478" y="0" on="1"/>
        <pt x="449" y="0" on="0"/>
        <pt x="396" y="-3" on="0"/>
        <pt x="375" y="-5" on="1"/>
        <pt x="350" y="-8" on="0"/>
        <pt x="329" y="-10" on="1"/>
        <pt x="326" y="-3" on="1"/>
        <pt x="330" y="36" on="1"/>
        <pt x="382" y="40" on="0"/>
        <pt x="419" y="56" on="0"/>
        <pt x="419" y="74" on="1"/>
        <pt x="419" y="93" on="0"/>
        <pt x="410" y="122" on="1"/>
        <pt x="377" y="231" on="1"/>
        <pt x="368" y="231" on="0"/>
        <pt x="341" y="232" on="0"/>
        <pt x="312" y="232" on="0"/>
        <pt x="283" y="232" on="0"/>
        <pt x="273" y="232" on="1"/>
        <pt x="244" y="232" on="0"/>
        <pt x="181" y="226" on="0"/>
        <pt x="164" y="224" on="1"/>
        <pt x="127" y="120" on="1"/>
        <pt x="118" y="93" on="0"/>
        <pt x="118" y="81" on="1"/>
        <pt x="118" y="59" on="0"/>
        <pt x="146" y="40" on="0"/>
        <pt x="178" y="40" on="1"/>
        <pt x="235" y="40" on="1"/>
        <pt x="237" y="36" on="1"/>
        <pt x="231" y="-7" on="1"/>
        <pt x="209" y="-6" on="0"/>
        <pt x="186" y="-4" on="1"/>
        <pt x="166" y="-2" on="0"/>
        <pt x="117" y="0" on="0"/>
        <pt x="92" y="0" on="1"/>
        <pt x="74" y="0" on="0"/>
        <pt x="35" y="-1" on="0"/>
        <pt x="19" y="-2" on="1"/>
        <pt x="0" y="-3" on="0"/>
        <pt x="-18" y="-3" on="1"/>
        <pt x="-10" y="44" on="1"/>
        <pt x="18" y="47" on="0"/>
        <pt x="51" y="79" on="0"/>
        <pt x="68" y="121" on="1"/>
        <pt x="263" y="632" on="1"/>
        <pt x="326" y="649" on="1"/>
        <pt x="334" y="649" on="1"/>
        <pt x="359" y="558" on="0"/>
        <pt x="385" y="465" on="1"/>
        <pt x="396" y="425" on="0"/>
        <pt x="422" y="337" on="0"/>
        <pt x="450" y="246" on="0"/>
        <pt x="479" y="155" on="0"/>
      </contour>
      <contour>
        <pt x="182" y="273" on="1"/>
        <pt x="270" y="273" on="1"/>
        <pt x="290" y="273" on="0"/>
        <pt x="346" y="276" on="0"/>
        <pt x="363" y="278" on="1"/>
        <pt x="284" y="540" on="1"/>
        <pt x="277" y="540" on="1"/>
      </contour>
    </TTGlyph>
    <TTGlyph name="AE" xMin="-10" yMin="-10" xMax="784" yMax="649">
      <contour>
        <pt x="301" y="36" on="1"/>
        <pt x="331" y="38" on="0"/>
        <pt x="368" y="45" on="0"/>
        <pt x="390" y="56" on="0"/>
        <pt x="398" y="73" on="0"/>
        <pt x="398" y="87" on="1"/>
        <pt x="398" y="104" on="0"/>
        <pt x="393" y="136" on="0"/>
        <pt x="391" y="153" on="1"/>
        <pt x="373" y="276" on="1"/>
        <pt x="274" y="268" on="1"/>
        <pt x="183" y="258" on="1"/>
        <pt x="112" y="120" on="1"/>
        <pt x="103" y="103" on="0"/>
        <pt x="96" y="82" on="0"/>
        <pt x="96" y="74" on="1"/>
        <pt x="96" y="40" on="0"/>
        <pt x="151" y="40" on="1"/>
        <pt x="208" y="40" on="1"/>
        <pt x="203" y="-7" on="1"/>
        <pt x="181" y="-6" on="0"/>
        <pt x="158" y="-4" on="1"/>
        <pt x="138" y="-2" on="0"/>
        <pt x="89" y="0" on="0"/>
        <pt x="65" y="0" on="1"/>
        <pt x="57" y="0" on="0"/>
        <pt x="34" y="-1" on="0"/>
        <pt x="23" y="-2" on="1"/>
        <pt x="11" y="-3" on="0"/>
        <pt x="-3" y="-4" on="1"/>
        <pt x="-10" y="31" on="1"/>
        <pt x="-1" y="41" on="0"/>
        <pt x="10" y="55" on="1"/>
        <pt x="19" y="67" on="0"/>
        <pt x="42" y="100" on="0"/>
        <pt x="53" y="121" on="1"/>
        <pt x="300" y="578" on="1"/>
        <pt x="296" y="594" on="0"/>
        <pt x="275" y="594" on="1"/>
        <pt x="270" y="594" on="0"/>
        <pt x="258" y="593" on="0"/>
        <pt x="253" y="593" on="1"/>
        <pt x="247" y="592" on="0"/>
        <pt x="241" y="592" on="1"/>
        <pt x="239" y="596" on="1"/>
        <pt x="246" y="640" on="1"/>
        <pt x="246" y="641" on="0"/>
        <pt x="333" y="637" on="0"/>
        <pt x="405" y="637" on="1"/>
        <pt x="464" y="637" on="0"/>
        <pt x="555" y="638" on="0"/>
        <pt x="626" y="641" on="0"/>
        <pt x="680" y="646" on="0"/>
        <pt x="703" y="649" on="1"/>
        <pt x="706" y="643" on="1"/>
        <pt x="701" y="620" on="0"/>
        <pt x="697" y="594" on="1"/>
        <pt x="693" y="571" on="0"/>
        <pt x="685" y="512" on="0"/>
        <pt x="683" y="477" on="1"/>
        <pt x="635" y="473" on="1"/>
        <pt x="635" y="481" on="0"/>
        <pt x="636" y="489" on="1"/>
        <pt x="636" y="496" on="0"/>
        <pt x="637" y="511" on="0"/>
        <pt x="637" y="516" on="1"/>
        <pt x="637" y="540" on="0"/>
        <pt x="628" y="569" on="0"/>
        <pt x="596" y="583" on="0"/>
        <pt x="534" y="587" on="0"/>
        <pt x="480" y="587" on="1"/>
        <pt x="457" y="587" on="0"/>
        <pt x="429" y="585" on="0"/>
        <pt x="415" y="579" on="0"/>
        <pt x="410" y="566" on="0"/>
        <pt x="410" y="556" on="1"/>
        <pt x="441" y="328" on="1"/>
        <pt x="559" y="339" on="1"/>
        <pt x="651" y="352" on="1"/>
        <pt x="655" y="347" on="1"/>
        <pt x="642" y="294" on="1"/>
        <pt x="556" y="291" on="1"/>
        <pt x="447" y="282" on="1"/>
        <pt x="475" y="113" on="1"/>
        <pt x="481" y="75" on="0"/>
        <pt x="518" y="45" on="0"/>
        <pt x="559" y="45" on="1"/>
        <pt x="613" y="45" on="0"/>
        <pt x="678" y="52" on="0"/>
        <pt x="715" y="77" on="0"/>
        <pt x="731" y="126" on="0"/>
        <pt x="737" y="167" on="1"/>
        <pt x="781" y="172" on="1"/>
        <pt x="784" y="167" on="1"/>
        <pt x="779" y="142" on="0"/>
        <pt x="774" y="115" on="1"/>
        <pt x="769" y="92" on="0"/>
        <pt x="760" y="31" on="0"/>
        <pt x="757" y="-1" on="1"/>
        <pt x="752" y="-7" on="1"/>
        <pt x="752" y="-7" on="0"/>
        <pt x="696" y="-5" on="0"/>
        <pt x="614" y="-2" on="0"/>
        <pt x="521" y="0" on="0"/>
        <pt x="483" y="0" on="1"/>
        <pt x="449" y="0" on="1"/>
        <pt x="420" y="0" on="0"/>
        <pt x="366" y="-3" on="0"/>
        <pt x="346" y="-5" on="1"/>
        <pt x="301" y="-10" on="1"/>
        <pt x="299" y="-3" on="1"/>
      </contour>
      <contour>
        <pt x="294" y="315" on="1"/>
        <pt x="367" y="321" on="1"/>
        <pt x="337" y="539" on="1"/>
        <pt x="328" y="539" on="1"/>
        <pt x="210" y="310" on="1"/>
      </contour>
    </TTGlyph>
    <TTGlyph name="AEacute" xMin="-10" yMin="-10" xMax="784" yMax="841">
      <component glyphName="AE" x="0" y="0" flags="0x204"/>
      <component glyphName="acute.cap" x="300" y="0" flags="0x4"/>
    </TTGlyph>
    <TTGlyph name="Aacute" xMin="-18" yMin="-10" xMax="591" yMax="841">
      <component glyphName="A" x="0" y="0" flags="0x204"/>
      <component glyphName="acute.cap" x="107" y="0" flags="0x4"/>
    </TTGlyph>
    <TTGlyph name="Abreve" xMin="-18" yMin="-10" xMax="591" yMax="818">
      <component glyphName="A" x="0" y="0" flags="0x204"/>
      <component glyphName="breve.cap" x="95" y="0" flags="0x4"/>
    </TTGlyph>
    <TTGlyph name="Acircumflex" xMin="-18" yMin="-10" xMax="591" yMax="846">
      <component glyphName="A" x="0" y="0" flags="0x204"/>
      <component glyphName="circumflex.cap" x="96" y="0" flags="0x4"/>
    </TTGlyph>
    <TTGlyph name="Adieresis" xMin="-18" yMin="-10" xMax="591" yMax="818">
      <component glyphName="A" x="0" y="0" flags="0x204"/>
      <component glyphName="dieresis.cap" x="96" y="0" flags="0x4"/>
    </TTGlyph>
    <TTGlyph name="Agrave" xMin="-18" yMin="-10" xMax="591" yMax="841">
      <component glyphName="A" x="0" y="0" flags="0x204"/>
      <component glyphName="grave.cap" x="93" y="0" flags="0x4"/>
    </TTGlyph>
    <TTGlyph name="Amacron" xMin="-18" yMin="-10" xMax="591" yMax="778">
      <component glyphName="A" x="0" y="0" flags="0x204"/>
      <component glyphName="macron.cap" x="95" y="0" flags="0x4"/>
    </TTGlyph>
    <TTGlyph name="Aogonek" xMin="-18" yMin="-241" xMax="591" yMax="649">
      <contour>
        <pt x="591" y="-178" on="1"/>
        <pt x="577" y="-191" on="0"/>
        <pt x="560" y="-203" on="1"/>
        <pt x="546" y="-214" on="0"/>
        <pt x="510" y="-235" on="0"/>
        <pt x="491" y="-241" on="1"/>
        <pt x="442" y="-241" on="0"/>
        <pt x="380" y="-192" on="0"/>
        <pt x="380" y="-147" on="1"/>
        <pt x="380" y="-112" on="0"/>
        <pt x="434" y="-40" on="0"/>
        <pt x="474" y="0" on="1"/>
        <pt x="445" y="0" on="0"/>
        <pt x="393" y="-3" on="0"/>
        <pt x="373" y="-5" on="1"/>
        <pt x="349" y="-8" on="0"/>
        <pt x="329" y="-10" on="1"/>
        <pt x="326" y="-3" on="1"/>
        <pt x="330" y="36" on="1"/>
        <pt x="382" y="40" on="0"/>
        <pt x="419" y="56" on="0"/>
        <pt x="419" y="74" on="1"/>
        <pt x="419" y="93" on="0"/>
        <pt x="410" y="122" on="1"/>
        <pt x="377" y="231" on="1"/>
        <pt x="368" y="231" on="0"/>
        <pt x="341" y="232" on="0"/>
        <pt x="312" y="232" on="0"/>
        <pt x="283" y="232" on="0"/>
        <pt x="273" y="232" on="1"/>
        <pt x="244" y="232" on="0"/>
        <pt x="181" y="226" on="0"/>
        <pt x="164" y="224" on="1"/>
        <pt x="127" y="120" on="1"/>
        <pt x="118" y="93" on="0"/>
        <pt x="118" y="81" on="1"/>
        <pt x="118" y="59" on="0"/>
        <pt x="146" y="40" on="0"/>
        <pt x="178" y="40" on="1"/>
        <pt x="235" y="40" on="1"/>
        <pt x="237" y="36" on="1"/>
        <pt x="231" y="-7" on="1"/>
        <pt x="209" y="-6" on="0"/>
        <pt x="186" y="-4" on="1"/>
        <pt x="166" y="-2" on="0"/>
        <pt x="117" y="0" on="0"/>
        <pt x="92" y="0" on="1"/>
        <pt x="74" y="0" on="0"/>
        <pt x="35" y="-1" on="0"/>
        <pt x="19" y="-2" on="1"/>
        <pt x="0" y="-3" on="0"/>
        <pt x="-18" y="-3" on="1"/>
        <pt x="-10" y="44" on="1"/>
        <pt x="18" y="47" on="0"/>
        <pt x="51" y="79" on="0"/>
        <pt x="68" y="121" on="1"/>
        <pt x="263" y="632" on="1"/>
        <pt x="326" y="649" on="1"/>
        <pt x="334" y="649" on="1"/>
        <pt x="359" y="558" on="0"/>
        <pt x="385" y="465" on="1"/>
        <pt x="396" y="425" on="0"/>
        <pt x="422" y="337" on="0"/>
        <pt x="450" y="246" on="0"/>
        <pt x="479" y="155" on="0"/>
        <pt x="493" y="113" on="1"/>
        <pt x="499" y="94" on="0"/>
        <pt x="514" y="69" on="0"/>
        <pt x="536" y="52" on="0"/>
        <pt x="567" y="44" on="0"/>
        <pt x="589" y="42" on="1"/>
        <pt x="591" y="38" on="1"/>
        <pt x="584" y="-3" on="1"/>
        <pt x="574" y="-3" on="0"/>
        <pt x="563" y="-2" on="1"/>
        <pt x="553" y="-1" on="0"/>
        <pt x="530" y="-1" on="0"/>
        <pt x="518" y="0" on="1"/>
        <pt x="478" y="-42" on="0"/>
        <pt x="443" y="-98" on="0"/>
        <pt x="443" y="-128" on="1"/>
        <pt x="443" y="-151" on="0"/>
        <pt x="475" y="-182" on="0"/>
        <pt x="501" y="-182" on="1"/>
        <pt x="515" y="-182" on="0"/>
        <pt x="543" y="-176" on="0"/>
        <pt x="554" y="-171" on="1"/>
        <pt x="566" y="-166" on="0"/>
        <pt x="578" y="-159" on="1"/>
      </contour>
      <contour>
        <pt x="182" y="273" on="1"/>
        <pt x="270" y="273" on="1"/>
        <pt x="290" y="273" on="0"/>
        <pt x="346" y="276" on="0"/>
        <pt x="363" y="278" on="1"/>
        <pt x="284" y="540" on="1"/>
        <pt x="277" y="540" on="1"/>
      </contour>
    </TTGlyph>
    <TTGlyph name="Aring" xMin="-18" yMin="-10" xMax="591" yMax="838">
      <component glyphName="A" x="0" y="0" flags="0x204"/>
      <component glyphName="ring.cap" x="96" y="0" flags="0x4"/>
    </TTGlyph>
    <TTGlyph name="Aringacute" xMin="-18" yMin="-10" xMax="591" yMax="942">
      <contour>
        <pt x="493" y="113" on="1"/>
        <pt x="499" y="94" on="0"/>
        <pt x="514" y="69" on="0"/>
        <pt x="536" y="52" on="0"/>
        <pt x="567" y="44" on="0"/>
        <pt x="589" y="42" on="1"/>
        <pt x="591" y="38" on="1"/>
        <pt x="584" y="-3" on="1"/>
        <pt x="563" y="-3" on="0"/>
        <pt x="544" y="-2" on="1"/>
        <pt x="527" y="-1" on="0"/>
        <pt x="491" y="0" on="0"/>
        <pt x="478" y="0" on="1"/>
        <pt x="449" y="0" on="0"/>
        <pt x="396" y="-3" on="0"/>
        <pt x="375" y="-5" on="1"/>
        <pt x="350" y="-8" on="0"/>
        <pt x="329" y="-10" on="1"/>
        <pt x="326" y="-3" on="1"/>
        <pt x="330" y="36" on="1"/>
        <pt x="382" y="40" on="0"/>
        <pt x="419" y="56" on="0"/>
        <pt x="419" y="74" on="1"/>
        <pt x="419" y="93" on="0"/>
        <pt x="410" y="122" on="1"/>
        <pt x="377" y="231" on="1"/>
        <pt x="368" y="231" on="0"/>
        <pt x="341" y="232" on="0"/>
        <pt x="312" y="232" on="0"/>
        <pt x="283" y="232" on="0"/>
        <pt x="273" y="232" on="1"/>
        <pt x="244" y="232" on="0"/>
        <pt x="181" y="226" on="0"/>
        <pt x="164" y="224" on="1"/>
        <pt x="127" y="120" on="1"/>
        <pt x="118" y="93" on="0"/>
        <pt x="118" y="81" on="1"/>
        <pt x="118" y="59" on="0"/>
        <pt x="146" y="40" on="0"/>
        <pt x="178" y="40" on="1"/>
        <pt x="235" y="40" on="1"/>
        <pt x="237" y="36" on="1"/>
        <pt x="231" y="-7" on="1"/>
        <pt x="209" y="-6" on="0"/>
        <pt x="186" y="-4" on="1"/>
        <pt x="166" y="-2" on="0"/>
        <pt x="117" y="0" on="0"/>
        <pt x="92" y="0" on="1"/>
        <pt x="74" y="0" on="0"/>
        <pt x="35" y="-1" on="0"/>
        <pt x="19" y="-2" on="1"/>
        <pt x="0" y="-3" on="0"/>
        <pt x="-18" y="-3" on="1"/>
        <pt x="-10" y="44" on="1"/>
        <pt x="18" y="47" on="0"/>
        <pt x="51" y="79" on="0"/>
        <pt x="68" y="121" on="1"/>
        <pt x="263" y="632" on="1"/>
        <pt x="326" y="649" on="1"/>
        <pt x="334" y="649" on="1"/>
        <pt x="359" y="558" on="0"/>
        <pt x="385" y="465" on="1"/>
        <pt x="396" y="425" on="0"/>
        <pt x="422" y="337" on="0"/>
        <pt x="450" y="246" on="0"/>
        <pt x="479" y="155" on="0"/>
      </contour>
      <contour>
        <pt x="182" y="273" on="1"/>
        <pt x="270" y="273" on="1"/>
        <pt x="290" y="273" on="0"/>
        <pt x="346" y="276" on="0"/>
        <pt x="363" y="278" on="1"/>
        <pt x="284" y="540" on="1"/>
        <pt x="277" y="540" on="1"/>
      </contour>
      <contour>
        <pt x="313" y="704" on="1"/>
        <pt x="318" y="704" on="0"/>
        <pt x="332" y="706" on="0"/>
        <pt x="344" y="713" on="0"/>
        <pt x="353" y="727" on="0"/>
        <pt x="353" y="739" on="1"/>
        <pt x="353" y="758" on="0"/>
        <pt x="329" y="782" on="0"/>
        <pt x="307" y="782" on="1"/>
        <pt x="267" y="782" on="0"/>
        <pt x="267" y="747" on="1"/>
        <pt x="267" y="723" on="0"/>
        <pt x="299" y="704" on="0"/>
      </contour>
      <contour>
        <pt x="307" y="669" on="1"/>
        <pt x="274" y="669" on="0"/>
        <pt x="238" y="709" on="0"/>
        <pt x="238" y="741" on="1"/>
        <pt x="238" y="774" on="0"/>
        <pt x="279" y="817" on="0"/>
        <pt x="314" y="817" on="1"/>
        <pt x="351" y="817" on="0"/>
        <pt x="383" y="775" on="0"/>
        <pt x="383" y="749" on="1"/>
        <pt x="383" y="717" on="0"/>
        <pt x="343" y="669" on="0"/>
      </contour>
      <contour>
        <pt x="419" y="884" on="1"/>
        <pt x="392" y="875" on="0"/>
        <pt x="362" y="864" on="1"/>
        <pt x="336" y="855" on="0"/>
        <pt x="269" y="832" on="0"/>
        <pt x="234" y="818" on="1"/>
        <pt x="227" y="822" on="1"/>
        <pt x="221" y="844" on="1"/>
        <pt x="253" y="861" on="0"/>
        <pt x="317" y="895" on="0"/>
        <pt x="343" y="909" on="1"/>
        <pt x="373" y="926" on="0"/>
        <pt x="401" y="942" on="1"/>
        <pt x="409" y="936" on="1"/>
        <pt x="423" y="893" on="1"/>
      </contour>
    </TTGlyph>
    <TTGlyph name="Atilde" xMin="-18" yMin="-10" xMax="591" yMax="820">
      <component glyphName="A" x="0" y="0" flags="0x204"/>
      <component glyphName="tilde.cap" x="97" y="0" flags="0x4"/>
    </TTGlyph>
    <TTGlyph name="B" xMin="58" yMin="-12" xMax="542" yMax="641">
      <contour>
        <pt x="172" y="0" on="1"/>
        <pt x="153" y="0" on="0"/>
        <pt x="113" y="-4" on="0"/>
        <pt x="96" y="-6" on="1"/>
        <pt x="77" y="-9" on="0"/>
        <pt x="58" y="-12" on="1"/>
        <pt x="64" y="34" on="1"/>
        <pt x="87" y="38" on="0"/>
        <pt x="117" y="51" on="0"/>
        <pt x="135" y="70" on="0"/>
        <pt x="142" y="99" on="0"/>
        <pt x="142" y="120" on="1"/>
        <pt x="143" y="540" on="1"/>
        <pt x="143" y="572" on="0"/>
        <pt x="129" y="594" on="0"/>
        <pt x="106" y="594" on="1"/>
        <pt x="101" y="594" on="0"/>
        <pt x="89" y="593" on="0"/>
        <pt x="84" y="593" on="1"/>
        <pt x="78" y="592" on="0"/>
        <pt x="72" y="592" on="1"/>
        <pt x="70" y="596" on="1"/>
        <pt x="77" y="640" on="1"/>
        <pt x="98" y="639" on="0"/>
        <pt x="118" y="638" on="1"/>
        <pt x="135" y="637" on="0"/>
        <pt x="174" y="637" on="0"/>
        <pt x="188" y="637" on="1"/>
        <pt x="202" y="637" on="0"/>
        <pt x="242" y="638" on="0"/>
        <pt x="261" y="639" on="1"/>
        <pt x="283" y="640" on="0"/>
        <pt x="306" y="641" on="1"/>
        <pt x="402" y="641" on="0"/>
        <pt x="503" y="563" on="0"/>
        <pt x="503" y="489" on="1"/>
        <pt x="503" y="439" on="0"/>
        <pt x="443" y="359" on="0"/>
        <pt x="387" y="335" on="1"/>
        <pt x="460" y="319" on="0"/>
        <pt x="542" y="239" on="0"/>
        <pt x="542" y="183" on="1"/>
        <pt x="542" y="144" on="0"/>
        <pt x="504" y="74" on="0"/>
        <pt x="439" y="21" on="0"/>
        <pt x="354" y="-10" on="0"/>
        <pt x="307" y="-10" on="1"/>
        <pt x="274" y="-10" on="0"/>
        <pt x="210" y="0" on="0"/>
      </contour>
      <contour>
        <pt x="217" y="298" on="1"/>
        <pt x="213" y="111" on="1"/>
        <pt x="213" y="73" on="0"/>
        <pt x="264" y="41" on="0"/>
        <pt x="327" y="41" on="1"/>
        <pt x="387" y="41" on="0"/>
        <pt x="456" y="108" on="0"/>
        <pt x="456" y="165" on="1"/>
        <pt x="456" y="219" on="0"/>
        <pt x="388" y="288" on="0"/>
        <pt x="321" y="300" on="1"/>
      </contour>
      <contour>
        <pt x="219" y="351" on="1"/>
        <pt x="246" y="349" on="0"/>
        <pt x="268" y="347" on="1"/>
        <pt x="287" y="345" on="0"/>
        <pt x="322" y="343" on="0"/>
        <pt x="328" y="343" on="1"/>
        <pt x="354" y="350" on="0"/>
        <pt x="375" y="367" on="1"/>
        <pt x="392" y="381" on="0"/>
        <pt x="422" y="431" on="0"/>
        <pt x="422" y="472" on="1"/>
        <pt x="422" y="537" on="0"/>
        <pt x="337" y="598" on="0"/>
        <pt x="246" y="598" on="1"/>
        <pt x="235" y="598" on="0"/>
        <pt x="229" y="589" on="0"/>
        <pt x="228" y="575" on="1"/>
        <pt x="225" y="526" on="0"/>
        <pt x="221" y="414" on="0"/>
      </contour>
    </TTGlyph>
    <TTGlyph name="C" xMin="40" yMin="-12" xMax="577" yMax="649">
      <contour>
        <pt x="339" y="-12" on="1"/>
        <pt x="271" y="-12" on="0"/>
        <pt x="160" y="31" on="0"/>
        <pt x="82" y="112" on="0"/>
        <pt x="40" y="226" on="0"/>
        <pt x="40" y="297" on="1"/>
        <pt x="40" y="373" on="0"/>
        <pt x="92" y="502" on="0"/>
        <pt x="185" y="596" on="0"/>
        <pt x="313" y="649" on="0"/>
        <pt x="389" y="649" on="1"/>
        <pt x="420" y="649" on="0"/>
        <pt x="482" y="642" on="0"/>
        <pt x="507" y="637" on="1"/>
        <pt x="536" y="632" on="0"/>
        <pt x="563" y="625" on="1"/>
        <pt x="567" y="619" on="1"/>
        <pt x="561" y="596" on="0"/>
        <pt x="557" y="570" on="1"/>
        <pt x="552" y="547" on="0"/>
        <pt x="544" y="487" on="0"/>
        <pt x="542" y="452" on="1"/>
        <pt x="494" y="448" on="1"/>
        <pt x="494" y="455" on="0"/>
        <pt x="495" y="464" on="1"/>
        <pt x="496" y="471" on="0"/>
        <pt x="497" y="489" on="0"/>
        <pt x="497" y="497" on="1"/>
        <pt x="497" y="590" on="0"/>
        <pt x="350" y="590" on="1"/>
        <pt x="300" y="590" on="0"/>
        <pt x="218" y="553" on="0"/>
        <pt x="161" y="486" on="0"/>
        <pt x="130" y="390" on="0"/>
        <pt x="130" y="330" on="1"/>
        <pt x="130" y="264" on="0"/>
        <pt x="163" y="156" on="0"/>
        <pt x="223" y="80" on="0"/>
        <pt x="307" y="38" on="0"/>
        <pt x="359" y="38" on="1"/>
        <pt x="428" y="38" on="0"/>
        <pt x="510" y="115" on="0"/>
        <pt x="529" y="196" on="1"/>
        <pt x="577" y="200" on="1"/>
        <pt x="571" y="173" on="0"/>
        <pt x="566" y="145" on="1"/>
        <pt x="561" y="121" on="0"/>
        <pt x="552" y="64" on="0"/>
        <pt x="550" y="37" on="1"/>
        <pt x="544" y="28" on="1"/>
        <pt x="518" y="17" on="0"/>
        <pt x="486" y="8" on="1"/>
        <pt x="459" y="0" on="0"/>
        <pt x="384" y="-12" on="0"/>
      </contour>
    </TTGlyph>
    <TTGlyph name="Cacute" xMin="40" yMin="-12" xMax="577" yMax="841">
      <component glyphName="C" x="0" y="0" flags="0x204"/>
      <component glyphName="acute.cap" x="170" y="0" flags="0x4"/>
    </TTGlyph>
    <TTGlyph name="Ccaron" xMin="40" yMin="-12" xMax="577" yMax="838">
      <component glyphName="C" x="0" y="0" flags="0x204"/>
      <component glyphName="caron.cap" x="160" y="0" flags="0x4"/>
    </TTGlyph>
    <TTGlyph name="Ccedilla" xMin="40" yMin="-233" xMax="577" yMax="649">
      <contour>
        <pt x="320" y="-11" on="1"/>
        <pt x="256" y="-8" on="0"/>
        <pt x="152" y="38" on="0"/>
        <pt x="79" y="117" on="0"/>
        <pt x="40" y="228" on="0"/>
        <pt x="40" y="297" on="1"/>
        <pt x="40" y="373" on="0"/>
        <pt x="92" y="502" on="0"/>
        <pt x="185" y="596" on="0"/>
        <pt x="313" y="649" on="0"/>
        <pt x="389" y="649" on="1"/>
        <pt x="420" y="649" on="0"/>
        <pt x="482" y="642" on="0"/>
        <pt x="507" y="637" on="1"/>
        <pt x="536" y="632" on="0"/>
        <pt x="563" y="625" on="1"/>
        <pt x="567" y="619" on="1"/>
        <pt x="561" y="596" on="0"/>
        <pt x="557" y="570" on="1"/>
        <pt x="552" y="547" on="0"/>
        <pt x="544" y="487" on="0"/>
        <pt x="542" y="452" on="1"/>
        <pt x="494" y="448" on="1"/>
        <pt x="494" y="455" on="0"/>
        <pt x="495" y="464" on="1"/>
        <pt x="496" y="471" on="0"/>
        <pt x="497" y="489" on="0"/>
        <pt x="497" y="497" on="1"/>
        <pt x="497" y="590" on="0"/>
        <pt x="350" y="590" on="1"/>
        <pt x="300" y="590" on="0"/>
        <pt x="218" y="553" on="0"/>
        <pt x="161" y="486" on="0"/>
        <pt x="130" y="390" on="0"/>
        <pt x="130" y="330" on="1"/>
        <pt x="130" y="264" on="0"/>
        <pt x="163" y="156" on="0"/>
        <pt x="223" y="80" on="0"/>
        <pt x="307" y="38" on="0"/>
        <pt x="359" y="38" on="1"/>
        <pt x="428" y="38" on="0"/>
        <pt x="510" y="115" on="0"/>
        <pt x="529" y="196" on="1"/>
        <pt x="577" y="200" on="1"/>
        <pt x="571" y="173" on="0"/>
        <pt x="566" y="145" on="1"/>
        <pt x="561" y="121" on="0"/>
        <pt x="552" y="64" on="0"/>
        <pt x="550" y="37" on="1"/>
        <pt x="544" y="28" on="1"/>
        <pt x="521" y="18" on="0"/>
        <pt x="493" y="10" on="1"/>
        <pt x="469" y="3" on="0"/>
        <pt x="402" y="-9" on="0"/>
        <pt x="362" y="-11" on="1"/>
        <pt x="349" y="-50" on="1"/>
        <pt x="361" y="-59" on="0"/>
        <pt x="391" y="-78" on="0"/>
        <pt x="417" y="-100" on="0"/>
        <pt x="434" y="-125" on="0"/>
        <pt x="434" y="-139" on="1"/>
        <pt x="434" y="-159" on="0"/>
        <pt x="412" y="-193" on="0"/>
        <pt x="377" y="-218" on="0"/>
        <pt x="335" y="-233" on="0"/>
        <pt x="314" y="-233" on="1"/>
        <pt x="303" y="-233" on="0"/>
        <pt x="279" y="-228" on="0"/>
        <pt x="259" y="-219" on="0"/>
        <pt x="246" y="-206" on="0"/>
        <pt x="246" y="-197" on="1"/>
        <pt x="246" y="-187" on="0"/>
        <pt x="263" y="-153" on="0"/>
        <pt x="271" y="-141" on="1"/>
        <pt x="280" y="-141" on="1"/>
        <pt x="281" y="-169" on="0"/>
        <pt x="311" y="-198" on="0"/>
        <pt x="335" y="-198" on="1"/>
        <pt x="355" y="-198" on="0"/>
        <pt x="383" y="-177" on="0"/>
        <pt x="383" y="-160" on="1"/>
        <pt x="383" y="-151" on="0"/>
        <pt x="368" y="-132" on="0"/>
        <pt x="343" y="-112" on="0"/>
        <pt x="313" y="-94" on="0"/>
        <pt x="298" y="-85" on="1"/>
      </contour>
    </TTGlyph>
    <TTGlyph name="Ccircumflex" xMin="40" yMin="-12" xMax="577" yMax="846">
      <component glyphName="C" x="0" y="0" flags="0x204"/>
      <component glyphName="circumflex.cap" x="142" y="0" flags="0x4"/>
    </TTGlyph>
    <TTGlyph name="Cdotaccent" xMin="40" yMin="-12" xMax="577" yMax="829">
      <component glyphName="C" x="0" y="0" flags="0x204"/>
      <component glyphName="dotaccent.cap" x="160" y="0" flags="0x4"/>
    </TTGlyph>
    <TTGlyph name="D" xMin="58" yMin="-12" xMax="663" yMax="641">
      <contour>
        <pt x="317" y="-12" on="1"/>
        <pt x="290" y="-9" on="0"/>
        <pt x="264" y="-6" on="1"/>
        <pt x="241" y="-4" on="0"/>
        <pt x="192" y="0" on="0"/>
        <pt x="173" y="0" on="1"/>
        <pt x="154" y="0" on="0"/>
        <pt x="114" y="-4" on="0"/>
        <pt x="97" y="-6" on="1"/>
        <pt x="77" y="-9" on="0"/>
        <pt x="58" y="-12" on="1"/>
        <pt x="64" y="34" on="1"/>
        <pt x="87" y="38" on="0"/>
        <pt x="117" y="51" on="0"/>
        <pt x="135" y="70" on="0"/>
        <pt x="142" y="99" on="0"/>
        <pt x="142" y="120" on="1"/>
        <pt x="143" y="540" on="1"/>
        <pt x="143" y="572" on="0"/>
        <pt x="129" y="594" on="0"/>
        <pt x="106" y="594" on="1"/>
        <pt x="101" y="594" on="0"/>
        <pt x="89" y="593" on="0"/>
        <pt x="84" y="593" on="1"/>
        <pt x="78" y="592" on="0"/>
        <pt x="72" y="592" on="1"/>
        <pt x="70" y="596" on="1"/>
        <pt x="77" y="640" on="1"/>
        <pt x="96" y="639" on="0"/>
        <pt x="115" y="638" on="1"/>
        <pt x="131" y="637" on="0"/>
        <pt x="168" y="637" on="0"/>
        <pt x="182" y="637" on="1"/>
        <pt x="199" y="637" on="0"/>
        <pt x="251" y="638" on="0"/>
        <pt x="275" y="639" on="1"/>
        <pt x="303" y="640" on="0"/>
        <pt x="334" y="641" on="1"/>
        <pt x="407" y="641" on="0"/>
        <pt x="528" y="598" on="0"/>
        <pt x="615" y="519" on="0"/>
        <pt x="663" y="409" on="0"/>
        <pt x="663" y="342" on="1"/>
        <pt x="663" y="267" on="0"/>
        <pt x="609" y="138" on="0"/>
        <pt x="516" y="43" on="0"/>
        <pt x="390" y="-12" on="0"/>
      </contour>
      <contour>
        <pt x="265" y="592" on="1"/>
        <pt x="244" y="592" on="0"/>
        <pt x="230" y="584" on="0"/>
        <pt x="229" y="570" on="1"/>
        <pt x="226" y="483" on="0"/>
        <pt x="220" y="337" on="0"/>
        <pt x="216" y="224" on="0"/>
        <pt x="214" y="148" on="0"/>
        <pt x="214" y="131" on="1"/>
        <pt x="214" y="104" on="0"/>
        <pt x="225" y="68" on="0"/>
        <pt x="253" y="47" on="0"/>
        <pt x="302" y="39" on="0"/>
        <pt x="340" y="39" on="1"/>
        <pt x="394" y="39" on="0"/>
        <pt x="480" y="78" on="0"/>
        <pt x="540" y="150" on="0"/>
        <pt x="572" y="253" on="0"/>
        <pt x="572" y="318" on="1"/>
        <pt x="572" y="451" on="0"/>
        <pt x="414" y="592" on="0"/>
      </contour>
    </TTGlyph>
    <TTGlyph name="Dcaron" xMin="58" yMin="-12" xMax="663" yMax="838">
      <component glyphName="D" x="0" y="0" flags="0x204"/>
      <component glyphName="caron.cap" x="132" y="0" flags="0x4"/>
    </TTGlyph>
    <TTGlyph name="Dcroat" xMin="9" yMin="-12" xMax="670" yMax="641">
      <contour>
        <pt x="324" y="-12" on="1"/>
        <pt x="297" y="-9" on="0"/>
        <pt x="271" y="-6" on="1"/>
        <pt x="248" y="-4" on="0"/>
        <pt x="199" y="0" on="0"/>
        <pt x="180" y="0" on="1"/>
        <pt x="161" y="0" on="0"/>
        <pt x="121" y="-4" on="0"/>
        <pt x="104" y="-6" on="1"/>
        <pt x="84" y="-9" on="0"/>
        <pt x="65" y="-12" on="1"/>
        <pt x="71" y="34" on="1"/>
        <pt x="97" y="39" on="0"/>
        <pt x="128" y="52" on="0"/>
        <pt x="144" y="77" on="0"/>
        <pt x="149" y="121" on="0"/>
        <pt x="149" y="157" on="1"/>
        <pt x="149" y="304" on="1"/>
        <pt x="16" y="304" on="1"/>
        <pt x="9" y="311" on="1"/>
        <pt x="16" y="343" on="1"/>
        <pt x="149" y="343" on="1"/>
        <pt x="150" y="540" on="1"/>
        <pt x="150" y="572" on="0"/>
        <pt x="136" y="594" on="0"/>
        <pt x="113" y="594" on="1"/>
        <pt x="108" y="594" on="0"/>
        <pt x="96" y="593" on="0"/>
        <pt x="91" y="593" on="1"/>
        <pt x="85" y="592" on="0"/>
        <pt x="79" y="592" on="1"/>
        <pt x="77" y="596" on="1"/>
        <pt x="84" y="640" on="1"/>
        <pt x="103" y="639" on="0"/>
        <pt x="122" y="638" on="1"/>
        <pt x="138" y="637" on="0"/>
        <pt x="175" y="637" on="0"/>
        <pt x="189" y="637" on="1"/>
        <pt x="206" y="637" on="0"/>
        <pt x="258" y="638" on="0"/>
        <pt x="282" y="639" on="1"/>
        <pt x="310" y="640" on="0"/>
        <pt x="341" y="641" on="1"/>
        <pt x="413" y="641" on="0"/>
        <pt x="534" y="596" on="0"/>
        <pt x="621" y="517" on="0"/>
        <pt x="670" y="407" on="0"/>
        <pt x="670" y="342" on="1"/>
        <pt x="670" y="267" on="0"/>
        <pt x="616" y="138" on="0"/>
        <pt x="523" y="43" on="0"/>
        <pt x="397" y="-12" on="0"/>
      </contour>
      <contour>
        <pt x="227" y="343" on="1"/>
        <pt x="397" y="343" on="1"/>
        <pt x="402" y="336" on="1"/>
        <pt x="396" y="304" on="1"/>
        <pt x="226" y="304" on="1"/>
        <pt x="221" y="131" on="1"/>
        <pt x="221" y="104" on="0"/>
        <pt x="232" y="68" on="0"/>
        <pt x="261" y="47" on="0"/>
        <pt x="309" y="39" on="0"/>
        <pt x="347" y="39" on="1"/>
        <pt x="401" y="39" on="0"/>
        <pt x="487" y="78" on="0"/>
        <pt x="547" y="150" on="0"/>
        <pt x="579" y="253" on="0"/>
        <pt x="579" y="318" on="1"/>
        <pt x="579" y="451" on="0"/>
        <pt x="421" y="592" on="0"/>
        <pt x="272" y="592" on="1"/>
        <pt x="251" y="592" on="0"/>
        <pt x="237" y="584" on="0"/>
        <pt x="236" y="570" on="1"/>
      </contour>
    </TTGlyph>
    <TTGlyph name="Delta" xMin="8" yMin="0" xMax="506" yMax="649">
      <contour>
        <pt x="8" y="13" on="1"/>
        <pt x="245" y="632" on="1"/>
        <pt x="308" y="649" on="1"/>
        <pt x="316" y="649" on="1"/>
        <pt x="350" y="528" on="0"/>
        <pt x="383" y="412" on="1"/>
        <pt x="397" y="362" on="0"/>
        <pt x="429" y="255" on="0"/>
        <pt x="460" y="149" on="0"/>
        <pt x="492" y="49" on="0"/>
        <pt x="506" y="7" on="1"/>
        <pt x="499" y="0" on="1"/>
        <pt x="17" y="0" on="1"/>
      </contour>
      <contour>
        <pt x="259" y="540" on="1"/>
        <pt x="83" y="57" on="1"/>
        <pt x="410" y="57" on="1"/>
        <pt x="266" y="540" on="1"/>
      </contour>
    </TTGlyph>
    <TTGlyph name="E" xMin="58" yMin="-10" xMax="532" yMax="649">
      <contour>
        <pt x="213" y="105" on="1"/>
        <pt x="213" y="85" on="0"/>
        <pt x="217" y="61" on="0"/>
        <pt x="234" y="49" on="0"/>
        <pt x="265" y="45" on="0"/>
        <pt x="292" y="45" on="1"/>
        <pt x="351" y="45" on="0"/>
        <pt x="422" y="52" on="0"/>
        <pt x="462" y="77" on="0"/>
        <pt x="479" y="126" on="0"/>
        <pt x="485" y="167" on="1"/>
        <pt x="529" y="172" on="1"/>
        <pt x="532" y="167" on="1"/>
        <pt x="527" y="142" on="0"/>
        <pt x="522" y="115" on="1"/>
        <pt x="517" y="92" on="0"/>
        <pt x="508" y="31" on="0"/>
        <pt x="505" y="-1" on="1"/>
        <pt x="500" y="-7" on="1"/>
        <pt x="440" y="-6" on="0"/>
        <pt x="384" y="-4" on="1"/>
        <pt x="360" y="-3" on="0"/>
        <pt x="309" y="-2" on="0"/>
        <pt x="259" y="-1" on="0"/>
        <pt x="215" y="0" on="0"/>
        <pt x="197" y="0" on="1"/>
        <pt x="168" y="0" on="0"/>
        <pt x="118" y="-3" on="0"/>
        <pt x="99" y="-5" on="1"/>
        <pt x="77" y="-8" on="0"/>
        <pt x="58" y="-10" on="1"/>
        <pt x="64" y="36" on="1"/>
        <pt x="109" y="42" on="0"/>
        <pt x="142" y="77" on="0"/>
        <pt x="142" y="120" on="1"/>
        <pt x="143" y="540" on="1"/>
        <pt x="143" y="572" on="0"/>
        <pt x="129" y="594" on="0"/>
        <pt x="106" y="594" on="1"/>
        <pt x="101" y="594" on="0"/>
        <pt x="89" y="593" on="0"/>
        <pt x="84" y="593" on="1"/>
        <pt x="78" y="592" on="0"/>
        <pt x="72" y="592" on="1"/>
        <pt x="70" y="596" on="1"/>
        <pt x="77" y="640" on="1"/>
        <pt x="100" y="639" on="0"/>
        <pt x="124" y="638" on="1"/>
        <pt x="144" y="637" on="0"/>
        <pt x="193" y="637" on="0"/>
        <pt x="216" y="637" on="1"/>
        <pt x="276" y="637" on="0"/>
        <pt x="366" y="638" on="0"/>
        <pt x="436" y="641" on="0"/>
        <pt x="491" y="646" on="0"/>
        <pt x="516" y="649" on="1"/>
        <pt x="519" y="643" on="1"/>
        <pt x="514" y="620" on="0"/>
        <pt x="510" y="594" on="1"/>
        <pt x="506" y="571" on="0"/>
        <pt x="498" y="512" on="0"/>
        <pt x="496" y="477" on="1"/>
        <pt x="448" y="473" on="1"/>
        <pt x="448" y="481" on="0"/>
        <pt x="449" y="489" on="1"/>
        <pt x="449" y="496" on="0"/>
        <pt x="450" y="511" on="0"/>
        <pt x="450" y="516" on="1"/>
        <pt x="450" y="540" on="0"/>
        <pt x="442" y="569" on="0"/>
        <pt x="411" y="583" on="0"/>
        <pt x="350" y="587" on="0"/>
        <pt x="297" y="587" on="1"/>
        <pt x="273" y="587" on="0"/>
        <pt x="245" y="585" on="0"/>
        <pt x="231" y="578" on="0"/>
        <pt x="227" y="562" on="0"/>
        <pt x="227" y="548" on="1"/>
        <pt x="219" y="354" on="1"/>
        <pt x="236" y="354" on="0"/>
        <pt x="299" y="353" on="0"/>
        <pt x="322" y="353" on="1"/>
        <pt x="336" y="353" on="0"/>
        <pt x="376" y="356" on="0"/>
        <pt x="396" y="358" on="1"/>
        <pt x="419" y="361" on="0"/>
        <pt x="444" y="364" on="1"/>
        <pt x="448" y="359" on="1"/>
        <pt x="434" y="300" on="1"/>
        <pt x="409" y="300" on="0"/>
        <pt x="384" y="301" on="1"/>
        <pt x="363" y="302" on="0"/>
        <pt x="314" y="303" on="0"/>
        <pt x="294" y="303" on="1"/>
        <pt x="271" y="303" on="0"/>
        <pt x="230" y="298" on="0"/>
        <pt x="217" y="296" on="1"/>
        <pt x="216" y="255" on="0"/>
        <pt x="214" y="195" on="0"/>
        <pt x="213" y="150" on="0"/>
        <pt x="213" y="117" on="0"/>
      </contour>
    </TTGlyph>
    <TTGlyph name="Eacute" xMin="58" yMin="-10" xMax="532" yMax="841">
      <component glyphName="E" x="0" y="0" flags="0x204"/>
      <component glyphName="acute.cap" x="121" y="0" flags="0x4"/>
    </TTGlyph>
    <TTGlyph name="Ebreve" xMin="58" yMin="-10" xMax="532" yMax="818">
      <component glyphName="E" x="0" y="0" flags="0x204"/>
      <component glyphName="breve.cap" x="127" y="0" flags="0x4"/>
    </TTGlyph>
    <TTGlyph name="Ecaron" xMin="58" yMin="-10" xMax="532" yMax="838">
      <component glyphName="E" x="0" y="0" flags="0x204"/>
      <component glyphName="caron.cap" x="111" y="0" flags="0x4"/>
    </TTGlyph>
    <TTGlyph name="Ecircumflex" xMin="58" yMin="-10" xMax="532" yMax="846">
      <component glyphName="E" x="0" y="0" flags="0x204"/>
      <component glyphName="circumflex.cap" x="111" y="0" flags="0x4"/>
    </TTGlyph>
    <TTGlyph name="Edieresis" xMin="58" yMin="-10" xMax="532" yMax="818">
      <component glyphName="E" x="0" y="0" flags="0x204"/>
      <component glyphName="dieresis.cap" x="110" y="0" flags="0x4"/>
    </TTGlyph>
    <TTGlyph name="Edotaccent" xMin="58" yMin="-10" xMax="532" yMax="829">
      <component glyphName="E" x="0" y="0" flags="0x204"/>
      <component glyphName="dotaccent.cap" x="111" y="0" flags="0x4"/>
    </TTGlyph>
    <TTGlyph name="Egrave" xMin="58" yMin="-10" xMax="532" yMax="841">
      <component glyphName="E" x="0" y="0" flags="0x204"/>
      <component glyphName="grave.cap" x="108" y="0" flags="0x4"/>
    </TTGlyph>
    <TTGlyph name="Emacron" xMin="58" yMin="-10" xMax="532" yMax="778">
      <component glyphName="E" x="0" y="0" flags="0x204"/>
      <component glyphName="macron.cap" x="111" y="0" flags="0x4"/>
    </TTGlyph>
    <TTGlyph name="Eng" xMin="54" yMin="-154" xMax="686" yMax="645">
      <contour>
        <pt x="143" y="637" on="1"/>
        <pt x="148" y="637" on="0"/>
        <pt x="172" y="638" on="0"/>
        <pt x="184" y="639" on="1"/>
        <pt x="198" y="640" on="0"/>
        <pt x="215" y="641" on="1"/>
        <pt x="241" y="599" on="0"/>
        <pt x="298" y="513" on="0"/>
        <pt x="356" y="427" on="0"/>
        <pt x="411" y="346" on="0"/>
        <pt x="436" y="310" on="1"/>
        <pt x="494" y="226" on="0"/>
        <pt x="551" y="145" on="1"/>
        <pt x="556" y="145" on="1"/>
        <pt x="556" y="550" on="1"/>
        <pt x="556" y="593" on="0"/>
        <pt x="523" y="593" on="1"/>
        <pt x="516" y="593" on="0"/>
        <pt x="502" y="592" on="0"/>
        <pt x="497" y="592" on="1"/>
        <pt x="485" y="592" on="1"/>
        <pt x="483" y="596" on="1"/>
        <pt x="492" y="641" on="1"/>
        <pt x="509" y="640" on="0"/>
        <pt x="527" y="639" on="1"/>
        <pt x="542" y="638" on="0"/>
        <pt x="574" y="637" on="0"/>
        <pt x="587" y="637" on="1"/>
        <pt x="603" y="637" on="0"/>
        <pt x="637" y="639" on="0"/>
        <pt x="652" y="641" on="1"/>
        <pt x="669" y="643" on="0"/>
        <pt x="686" y="645" on="1"/>
        <pt x="681" y="599" on="1"/>
        <pt x="645" y="594" on="0"/>
        <pt x="614" y="565" on="0"/>
        <pt x="613" y="536" on="1"/>
        <pt x="604" y="86" on="1"/>
        <pt x="602" y="38" on="0"/>
        <pt x="583" y="-38" on="0"/>
        <pt x="544" y="-96" on="0"/>
        <pt x="483" y="-138" on="0"/>
        <pt x="441" y="-154" on="1"/>
        <pt x="424" y="-121" on="1"/>
        <pt x="427" y="-113" on="1"/>
        <pt x="476" y="-91" on="0"/>
        <pt x="528" y="-34" on="0"/>
        <pt x="539" y="8" on="1"/>
        <pt x="470" y="114" on="0"/>
        <pt x="347" y="296" on="0"/>
        <pt x="300" y="365" on="1"/>
        <pt x="245" y="445" on="0"/>
        <pt x="198" y="511" on="1"/>
        <pt x="193" y="511" on="1"/>
        <pt x="188" y="84" on="1"/>
        <pt x="188" y="61" on="0"/>
        <pt x="202" y="44" on="0"/>
        <pt x="219" y="44" on="1"/>
        <pt x="223" y="44" on="0"/>
        <pt x="240" y="44" on="0"/>
        <pt x="248" y="45" on="1"/>
        <pt x="258" y="45" on="0"/>
        <pt x="269" y="46" on="1"/>
        <pt x="272" y="42" on="1"/>
        <pt x="263" y="-4" on="1"/>
        <pt x="244" y="-3" on="0"/>
        <pt x="225" y="-2" on="1"/>
        <pt x="208" y="-1" on="0"/>
        <pt x="168" y="0" on="0"/>
        <pt x="151" y="0" on="1"/>
        <pt x="136" y="0" on="0"/>
        <pt x="105" y="-2" on="0"/>
        <pt x="92" y="-4" on="1"/>
        <pt x="77" y="-6" on="0"/>
        <pt x="64" y="-8" on="1"/>
        <pt x="69" y="38" on="1"/>
        <pt x="103" y="41" on="0"/>
        <pt x="130" y="76" on="0"/>
        <pt x="132" y="124" on="1"/>
        <pt x="144" y="538" on="1"/>
        <pt x="144" y="567" on="0"/>
        <pt x="109" y="592" on="0"/>
        <pt x="57" y="600" on="1"/>
        <pt x="54" y="605" on="1"/>
        <pt x="62" y="642" on="1"/>
        <pt x="79" y="640" on="0"/>
        <pt x="95" y="639" on="1"/>
        <pt x="109" y="638" on="0"/>
        <pt x="135" y="637" on="0"/>
      </contour>
    </TTGlyph>
    <TTGlyph name="Eogonek" xMin="58" yMin="-241" xMax="532" yMax="649">
      <contour>
        <pt x="528" y="-178" on="1"/>
        <pt x="514" y="-191" on="0"/>
        <pt x="497" y="-203" on="1"/>
        <pt x="483" y="-214" on="0"/>
        <pt x="447" y="-235" on="0"/>
        <pt x="428" y="-241" on="1"/>
        <pt x="379" y="-241" on="0"/>
        <pt x="317" y="-192" on="0"/>
        <pt x="317" y="-147" on="1"/>
        <pt x="317" y="-113" on="0"/>
        <pt x="369" y="-43" on="0"/>
        <pt x="407" y="-4" on="1"/>
        <pt x="381" y="-3" on="0"/>
        <pt x="324" y="-2" on="0"/>
        <pt x="268" y="-1" on="0"/>
        <pt x="217" y="0" on="0"/>
        <pt x="197" y="0" on="1"/>
        <pt x="168" y="0" on="0"/>
        <pt x="118" y="-3" on="0"/>
        <pt x="99" y="-5" on="1"/>
        <pt x="77" y="-8" on="0"/>
        <pt x="58" y="-10" on="1"/>
        <pt x="64" y="36" on="1"/>
        <pt x="109" y="42" on="0"/>
        <pt x="142" y="77" on="0"/>
        <pt x="142" y="120" on="1"/>
        <pt x="143" y="540" on="1"/>
        <pt x="143" y="572" on="0"/>
        <pt x="129" y="594" on="0"/>
        <pt x="106" y="594" on="1"/>
        <pt x="101" y="594" on="0"/>
        <pt x="89" y="593" on="0"/>
        <pt x="84" y="593" on="1"/>
        <pt x="78" y="592" on="0"/>
        <pt x="72" y="592" on="1"/>
        <pt x="70" y="596" on="1"/>
        <pt x="77" y="640" on="1"/>
        <pt x="100" y="639" on="0"/>
        <pt x="124" y="638" on="1"/>
        <pt x="144" y="637" on="0"/>
        <pt x="193" y="637" on="0"/>
        <pt x="216" y="637" on="1"/>
        <pt x="276" y="637" on="0"/>
        <pt x="366" y="638" on="0"/>
        <pt x="436" y="641" on="0"/>
        <pt x="491" y="646" on="0"/>
        <pt x="516" y="649" on="1"/>
        <pt x="519" y="643" on="1"/>
        <pt x="514" y="620" on="0"/>
        <pt x="510" y="594" on="1"/>
        <pt x="506" y="571" on="0"/>
        <pt x="498" y="512" on="0"/>
        <pt x="496" y="477" on="1"/>
        <pt x="448" y="473" on="1"/>
        <pt x="448" y="481" on="0"/>
        <pt x="449" y="489" on="1"/>
        <pt x="449" y="496" on="0"/>
        <pt x="450" y="511" on="0"/>
        <pt x="450" y="516" on="1"/>
        <pt x="450" y="540" on="0"/>
        <pt x="442" y="569" on="0"/>
        <pt x="411" y="583" on="0"/>
        <pt x="350" y="587" on="0"/>
        <pt x="297" y="587" on="1"/>
        <pt x="273" y="587" on="0"/>
        <pt x="245" y="585" on="0"/>
        <pt x="231" y="578" on="0"/>
        <pt x="227" y="562" on="0"/>
        <pt x="227" y="548" on="1"/>
        <pt x="219" y="354" on="1"/>
        <pt x="236" y="354" on="0"/>
        <pt x="299" y="353" on="0"/>
        <pt x="322" y="353" on="1"/>
        <pt x="336" y="353" on="0"/>
        <pt x="376" y="356" on="0"/>
        <pt x="396" y="358" on="1"/>
        <pt x="419" y="361" on="0"/>
        <pt x="444" y="364" on="1"/>
        <pt x="448" y="359" on="1"/>
        <pt x="434" y="300" on="1"/>
        <pt x="409" y="300" on="0"/>
        <pt x="384" y="301" on="1"/>
        <pt x="363" y="302" on="0"/>
        <pt x="314" y="303" on="0"/>
        <pt x="294" y="303" on="1"/>
        <pt x="271" y="303" on="0"/>
        <pt x="230" y="298" on="0"/>
        <pt x="217" y="296" on="1"/>
        <pt x="216" y="255" on="0"/>
        <pt x="214" y="195" on="0"/>
        <pt x="213" y="150" on="0"/>
        <pt x="213" y="117" on="0"/>
        <pt x="213" y="105" on="1"/>
        <pt x="213" y="85" on="0"/>
        <pt x="217" y="61" on="0"/>
        <pt x="234" y="49" on="0"/>
        <pt x="265" y="45" on="0"/>
        <pt x="292" y="45" on="1"/>
        <pt x="351" y="45" on="0"/>
        <pt x="422" y="52" on="0"/>
        <pt x="462" y="77" on="0"/>
        <pt x="479" y="126" on="0"/>
        <pt x="485" y="167" on="1"/>
        <pt x="529" y="172" on="1"/>
        <pt x="532" y="167" on="1"/>
        <pt x="527" y="142" on="0"/>
        <pt x="522" y="115" on="1"/>
        <pt x="517" y="92" on="0"/>
        <pt x="508" y="31" on="0"/>
        <pt x="505" y="-1" on="1"/>
        <pt x="500" y="-7" on="1"/>
        <pt x="494" y="-6" on="0"/>
        <pt x="486" y="-6" on="1"/>
        <pt x="479" y="-6" on="0"/>
        <pt x="461" y="-6" on="0"/>
        <pt x="450" y="-5" on="1"/>
        <pt x="413" y="-45" on="0"/>
        <pt x="380" y="-99" on="0"/>
        <pt x="380" y="-128" on="1"/>
        <pt x="380" y="-151" on="0"/>
        <pt x="412" y="-182" on="0"/>
        <pt x="438" y="-182" on="1"/>
        <pt x="452" y="-182" on="0"/>
        <pt x="480" y="-176" on="0"/>
        <pt x="491" y="-171" on="1"/>
        <pt x="503" y="-166" on="0"/>
        <pt x="515" y="-159" on="1"/>
      </contour>
    </TTGlyph>
    <TTGlyph name="Eth" xMin="9" yMin="-12" xMax="670" yMax="641">
      <contour>
        <pt x="324" y="-12" on="1"/>
        <pt x="297" y="-9" on="0"/>
        <pt x="271" y="-6" on="1"/>
        <pt x="248" y="-4" on="0"/>
        <pt x="199" y="0" on="0"/>
        <pt x="180" y="0" on="1"/>
        <pt x="161" y="0" on="0"/>
        <pt x="121" y="-4" on="0"/>
        <pt x="104" y="-6" on="1"/>
        <pt x="84" y="-9" on="0"/>
        <pt x="65" y="-12" on="1"/>
        <pt x="71" y="34" on="1"/>
        <pt x="97" y="39" on="0"/>
        <pt x="128" y="52" on="0"/>
        <pt x="144" y="77" on="0"/>
        <pt x="149" y="121" on="0"/>
        <pt x="149" y="157" on="1"/>
        <pt x="149" y="304" on="1"/>
        <pt x="16" y="304" on="1"/>
        <pt x="9" y="311" on="1"/>
        <pt x="16" y="343" on="1"/>
        <pt x="149" y="343" on="1"/>
        <pt x="150" y="540" on="1"/>
        <pt x="150" y="572" on="0"/>
        <pt x="136" y="594" on="0"/>
        <pt x="113" y="594" on="1"/>
        <pt x="108" y="594" on="0"/>
        <pt x="96" y="593" on="0"/>
        <pt x="91" y="593" on="1"/>
        <pt x="85" y="592" on="0"/>
        <pt x="79" y="592" on="1"/>
        <pt x="77" y="596" on="1"/>
        <pt x="84" y="640" on="1"/>
        <pt x="103" y="639" on="0"/>
        <pt x="122" y="638" on="1"/>
        <pt x="138" y="637" on="0"/>
        <pt x="175" y="637" on="0"/>
        <pt x="189" y="637" on="1"/>
        <pt x="206" y="637" on="0"/>
        <pt x="258" y="638" on="0"/>
        <pt x="282" y="639" on="1"/>
        <pt x="310" y="640" on="0"/>
        <pt x="341" y="641" on="1"/>
        <pt x="413" y="641" on="0"/>
        <pt x="534" y="596" on="0"/>
        <pt x="621" y="517" on="0"/>
        <pt x="670" y="407" on="0"/>
        <pt x="670" y="342" on="1"/>
        <pt x="670" y="267" on="0"/>
        <pt x="616" y="138" on="0"/>
        <pt x="523" y="43" on="0"/>
        <pt x="397" y="-12" on="0"/>
      </contour>
      <contour>
        <pt x="227" y="343" on="1"/>
        <pt x="397" y="343" on="1"/>
        <pt x="402" y="336" on="1"/>
        <pt x="396" y="304" on="1"/>
        <pt x="226" y="304" on="1"/>
        <pt x="221" y="131" on="1"/>
        <pt x="221" y="104" on="0"/>
        <pt x="232" y="68" on="0"/>
        <pt x="261" y="47" on="0"/>
        <pt x="309" y="39" on="0"/>
        <pt x="347" y="39" on="1"/>
        <pt x="401" y="39" on="0"/>
        <pt x="487" y="78" on="0"/>
        <pt x="547" y="150" on="0"/>
        <pt x="579" y="253" on="0"/>
        <pt x="579" y="318" on="1"/>
        <pt x="579" y="451" on="0"/>
        <pt x="421" y="592" on="0"/>
        <pt x="272" y="592" on="1"/>
        <pt x="251" y="592" on="0"/>
        <pt x="237" y="584" on="0"/>
        <pt x="236" y="570" on="1"/>
      </contour>
    </TTGlyph>
    <TTGlyph name="Euro" xMin="12" yMin="-9" xMax="534" yMax="507">
      <contour>
        <pt x="376" y="201" on="1"/>
        <pt x="373" y="171" on="1"/>
        <pt x="191" y="170" on="1"/>
        <pt x="209" y="109" on="0"/>
        <pt x="293" y="41" on="0"/>
        <pt x="354" y="41" on="1"/>
        <pt x="407" y="41" on="0"/>
        <pt x="470" y="97" on="0"/>
        <pt x="484" y="159" on="1"/>
        <pt x="534" y="163" on="1"/>
        <pt x="529" y="142" on="0"/>
        <pt x="525" y="119" on="1"/>
        <pt x="521" y="99" on="0"/>
        <pt x="515" y="52" on="0"/>
        <pt x="513" y="30" on="1"/>
        <pt x="507" y="22" on="1"/>
        <pt x="485" y="13" on="0"/>
        <pt x="459" y="6" on="1"/>
        <pt x="436" y="0" on="0"/>
        <pt x="373" y="-9" on="0"/>
        <pt x="336" y="-9" on="1"/>
        <pt x="239" y="-9" on="0"/>
        <pt x="115" y="85" on="0"/>
        <pt x="97" y="170" on="1"/>
        <pt x="17" y="170" on="1"/>
        <pt x="12" y="177" on="1"/>
        <pt x="17" y="206" on="1"/>
        <pt x="92" y="206" on="1"/>
        <pt x="91" y="213" on="0"/>
        <pt x="91" y="226" on="0"/>
        <pt x="91" y="233" on="1"/>
        <pt x="91" y="262" on="0"/>
        <pt x="95" y="285" on="1"/>
        <pt x="17" y="285" on="1"/>
        <pt x="12" y="292" on="1"/>
        <pt x="17" y="321" on="1"/>
        <pt x="104" y="321" on="1"/>
        <pt x="117" y="363" on="0"/>
        <pt x="168" y="432" on="0"/>
        <pt x="238" y="480" on="0"/>
        <pt x="327" y="507" on="0"/>
        <pt x="378" y="507" on="1"/>
        <pt x="404" y="507" on="0"/>
        <pt x="455" y="501" on="0"/>
        <pt x="476" y="497" on="1"/>
        <pt x="501" y="493" on="0"/>
        <pt x="524" y="488" on="1"/>
        <pt x="528" y="482" on="1"/>
        <pt x="523" y="463" on="0"/>
        <pt x="519" y="442" on="1"/>
        <pt x="515" y="423" on="0"/>
        <pt x="509" y="375" on="0"/>
        <pt x="507" y="346" on="1"/>
        <pt x="457" y="343" on="1"/>
        <pt x="457" y="349" on="0"/>
        <pt x="458" y="355" on="1"/>
        <pt x="458" y="360" on="0"/>
        <pt x="459" y="374" on="0"/>
        <pt x="459" y="382" on="1"/>
        <pt x="459" y="452" on="0"/>
        <pt x="347" y="452" on="1"/>
        <pt x="283" y="452" on="0"/>
        <pt x="199" y="384" on="0"/>
        <pt x="185" y="321" on="1"/>
        <pt x="187" y="321" on="1"/>
        <pt x="370" y="325" on="1"/>
        <pt x="376" y="316" on="1"/>
        <pt x="373" y="286" on="1"/>
        <pt x="180" y="285" on="1"/>
        <pt x="179" y="279" on="0"/>
        <pt x="179" y="266" on="0"/>
        <pt x="179" y="259" on="1"/>
        <pt x="179" y="245" on="0"/>
        <pt x="181" y="218" on="0"/>
        <pt x="183" y="206" on="1"/>
        <pt x="187" y="206" on="1"/>
        <pt x="370" y="210" on="1"/>
      </contour>
    </TTGlyph>
    <TTGlyph name="F" xMin="58" yMin="-12" xMax="500" yMax="649">
      <contour>
        <pt x="213" y="112" on="1"/>
        <pt x="213" y="71" on="0"/>
        <pt x="231" y="44" on="0"/>
        <pt x="257" y="44" on="1"/>
        <pt x="265" y="44" on="0"/>
        <pt x="289" y="44" on="0"/>
        <pt x="300" y="45" on="1"/>
        <pt x="313" y="46" on="0"/>
        <pt x="328" y="47" on="1"/>
        <pt x="330" y="43" on="1"/>
        <pt x="321" y="-4" on="1"/>
        <pt x="293" y="-3" on="0"/>
        <pt x="267" y="-2" on="1"/>
        <pt x="244" y="-1" on="0"/>
        <pt x="192" y="0" on="0"/>
        <pt x="172" y="0" on="1"/>
        <pt x="153" y="0" on="0"/>
        <pt x="113" y="-4" on="0"/>
        <pt x="96" y="-6" on="1"/>
        <pt x="77" y="-9" on="0"/>
        <pt x="58" y="-12" on="1"/>
        <pt x="64" y="34" on="1"/>
        <pt x="87" y="38" on="0"/>
        <pt x="117" y="51" on="0"/>
        <pt x="135" y="70" on="0"/>
        <pt x="142" y="99" on="0"/>
        <pt x="142" y="120" on="1"/>
        <pt x="143" y="540" on="1"/>
        <pt x="143" y="572" on="0"/>
        <pt x="129" y="594" on="0"/>
        <pt x="106" y="594" on="1"/>
        <pt x="101" y="594" on="0"/>
        <pt x="89" y="593" on="0"/>
        <pt x="84" y="593" on="1"/>
        <pt x="78" y="592" on="0"/>
        <pt x="72" y="592" on="1"/>
        <pt x="70" y="596" on="1"/>
        <pt x="77" y="640" on="1"/>
        <pt x="100" y="639" on="0"/>
        <pt x="124" y="638" on="1"/>
        <pt x="144" y="637" on="0"/>
        <pt x="193" y="637" on="0"/>
        <pt x="216" y="637" on="1"/>
        <pt x="267" y="637" on="0"/>
        <pt x="350" y="638" on="0"/>
        <pt x="418" y="641" on="0"/>
        <pt x="473" y="646" on="0"/>
        <pt x="497" y="649" on="1"/>
        <pt x="500" y="643" on="1"/>
        <pt x="495" y="620" on="0"/>
        <pt x="491" y="593" on="1"/>
        <pt x="487" y="570" on="0"/>
        <pt x="479" y="509" on="0"/>
        <pt x="477" y="474" on="1"/>
        <pt x="429" y="470" on="1"/>
        <pt x="429" y="479" on="0"/>
        <pt x="430" y="488" on="1"/>
        <pt x="430" y="496" on="0"/>
        <pt x="431" y="511" on="0"/>
        <pt x="431" y="516" on="1"/>
        <pt x="431" y="540" on="0"/>
        <pt x="423" y="569" on="0"/>
        <pt x="396" y="583" on="0"/>
        <pt x="343" y="587" on="0"/>
        <pt x="297" y="587" on="1"/>
        <pt x="273" y="587" on="0"/>
        <pt x="245" y="585" on="0"/>
        <pt x="231" y="578" on="0"/>
        <pt x="227" y="562" on="0"/>
        <pt x="227" y="548" on="1"/>
        <pt x="219" y="337" on="1"/>
        <pt x="322" y="336" on="1"/>
        <pt x="333" y="336" on="0"/>
        <pt x="369" y="339" on="0"/>
        <pt x="386" y="341" on="1"/>
        <pt x="405" y="344" on="0"/>
        <pt x="427" y="347" on="1"/>
        <pt x="431" y="342" on="1"/>
        <pt x="417" y="282" on="1"/>
        <pt x="395" y="282" on="0"/>
        <pt x="373" y="283" on="1"/>
        <pt x="354" y="284" on="0"/>
        <pt x="311" y="285" on="0"/>
        <pt x="294" y="285" on="1"/>
        <pt x="271" y="285" on="0"/>
        <pt x="230" y="280" on="0"/>
        <pt x="217" y="278" on="1"/>
        <pt x="213" y="112" on="1"/>
      </contour>
    </TTGlyph>
    <TTGlyph name="G" xMin="40" yMin="-12" xMax="592" yMax="649">
      <contour>
        <pt x="592" y="285" on="1"/>
        <pt x="583" y="277" on="0"/>
        <pt x="571" y="255" on="0"/>
        <pt x="564" y="220" on="0"/>
        <pt x="561" y="168" on="0"/>
        <pt x="561" y="131" on="1"/>
        <pt x="561" y="105" on="0"/>
        <pt x="565" y="56" on="0"/>
        <pt x="568" y="43" on="1"/>
        <pt x="562" y="34" on="1"/>
        <pt x="532" y="21" on="0"/>
        <pt x="495" y="11" on="1"/>
        <pt x="463" y="2" on="0"/>
        <pt x="380" y="-12" on="0"/>
        <pt x="332" y="-12" on="1"/>
        <pt x="265" y="-12" on="0"/>
        <pt x="157" y="31" on="0"/>
        <pt x="81" y="112" on="0"/>
        <pt x="40" y="226" on="0"/>
        <pt x="40" y="297" on="1"/>
        <pt x="40" y="375" on="0"/>
        <pt x="91" y="505" on="0"/>
        <pt x="183" y="598" on="0"/>
        <pt x="313" y="649" on="0"/>
        <pt x="391" y="649" on="1"/>
        <pt x="422" y="649" on="0"/>
        <pt x="490" y="642" on="0"/>
        <pt x="519" y="637" on="1"/>
        <pt x="552" y="632" on="0"/>
        <pt x="585" y="625" on="1"/>
        <pt x="589" y="619" on="1"/>
        <pt x="583" y="596" on="0"/>
        <pt x="578" y="570" on="1"/>
        <pt x="573" y="547" on="0"/>
        <pt x="565" y="487" on="0"/>
        <pt x="563" y="452" on="1"/>
        <pt x="516" y="448" on="1"/>
        <pt x="516" y="456" on="0"/>
        <pt x="517" y="465" on="1"/>
        <pt x="518" y="473" on="0"/>
        <pt x="519" y="491" on="0"/>
        <pt x="519" y="502" on="1"/>
        <pt x="519" y="549" on="0"/>
        <pt x="448" y="590" on="0"/>
        <pt x="368" y="590" on="1"/>
        <pt x="253" y="590" on="0"/>
        <pt x="127" y="454" on="0"/>
        <pt x="127" y="329" on="1"/>
        <pt x="127" y="263" on="0"/>
        <pt x="159" y="156" on="0"/>
        <pt x="219" y="79" on="0"/>
        <pt x="303" y="38" on="0"/>
        <pt x="355" y="38" on="1"/>
        <pt x="385" y="38" on="0"/>
        <pt x="435" y="49" on="0"/>
        <pt x="453" y="57" on="1"/>
        <pt x="474" y="65" on="0"/>
        <pt x="492" y="76" on="1"/>
        <pt x="492" y="198" on="1"/>
        <pt x="492" y="232" on="0"/>
        <pt x="471" y="252" on="0"/>
        <pt x="437" y="252" on="1"/>
        <pt x="368" y="252" on="1"/>
        <pt x="366" y="256" on="1"/>
        <pt x="375" y="306" on="1"/>
        <pt x="395" y="305" on="0"/>
        <pt x="416" y="304" on="1"/>
        <pt x="434" y="303" on="0"/>
        <pt x="479" y="302" on="0"/>
        <pt x="502" y="302" on="1"/>
        <pt x="518" y="302" on="0"/>
        <pt x="549" y="303" on="0"/>
        <pt x="561" y="304" on="1"/>
        <pt x="575" y="305" on="0"/>
        <pt x="588" y="307" on="1"/>
      </contour>
    </TTGlyph>
    <TTGlyph name="Gbreve" xMin="40" yMin="-12" xMax="592" yMax="818">
      <component glyphName="G" x="0" y="0" flags="0x204"/>
      <component glyphName="breve.cap" x="166" y="0" flags="0x4"/>
    </TTGlyph>
    <TTGlyph name="Gcircumflex" xMin="40" yMin="-12" xMax="592" yMax="846">
      <component glyphName="G" x="0" y="0" flags="0x204"/>
      <component glyphName="circumflex.cap" x="149" y="0" flags="0x4"/>
    </TTGlyph>
    <TTGlyph name="Gcommaaccent" xMin="40" yMin="-293" xMax="592" yMax="649">
      <component glyphName="G" x="0" y="0" flags="0x204"/>
      <component glyphName="commaaccent" x="148" y="0" flags="0x4"/>
    </TTGlyph>
    <TTGlyph name="Gdotaccent" xMin="40" yMin="-12" xMax="592" yMax="829">
      <component glyphName="G" x="0" y="0" flags="0x204"/>
      <component glyphName="dotaccent.cap" x="167" y="0" flags="0x4"/>
    </TTGlyph>
    <TTGlyph name="H" xMin="58" yMin="-12" xMax="697" yMax="646">
      <contour>
        <pt x="620" y="544" on="1"/>
        <pt x="617" y="489" on="0"/>
        <pt x="612" y="364" on="0"/>
        <pt x="608" y="245" on="0"/>
        <pt x="606" y="143" on="0"/>
        <pt x="606" y="112" on="1"/>
        <pt x="606" y="71" on="0"/>
        <pt x="624" y="44" on="0"/>
        <pt x="650" y="44" on="1"/>
        <pt x="658" y="44" on="0"/>
        <pt x="673" y="44" on="0"/>
        <pt x="680" y="45" on="1"/>
        <pt x="688" y="46" on="0"/>
        <pt x="695" y="47" on="1"/>
        <pt x="697" y="43" on="1"/>
        <pt x="688" y="-3" on="1"/>
        <pt x="665" y="-3" on="0"/>
        <pt x="643" y="-2" on="1"/>
        <pt x="624" y="-1" on="0"/>
        <pt x="582" y="0" on="0"/>
        <pt x="565" y="0" on="1"/>
        <pt x="551" y="0" on="0"/>
        <pt x="512" y="-1" on="0"/>
        <pt x="494" y="-1" on="1"/>
        <pt x="473" y="-2" on="0"/>
        <pt x="450" y="-2" on="1"/>
        <pt x="459" y="43" on="1"/>
        <pt x="483" y="43" on="0"/>
        <pt x="512" y="52" on="0"/>
        <pt x="529" y="76" on="0"/>
        <pt x="535" y="117" on="0"/>
        <pt x="535" y="150" on="1"/>
        <pt x="535" y="301" on="1"/>
        <pt x="476" y="301" on="1"/>
        <pt x="452" y="301" on="0"/>
        <pt x="400" y="302" on="0"/>
        <pt x="383" y="302" on="1"/>
        <pt x="371" y="302" on="0"/>
        <pt x="316" y="298" on="0"/>
        <pt x="288" y="296" on="1"/>
        <pt x="255" y="293" on="0"/>
        <pt x="217" y="291" on="1"/>
        <pt x="213" y="112" on="1"/>
        <pt x="213" y="71" on="0"/>
        <pt x="231" y="44" on="0"/>
        <pt x="257" y="44" on="1"/>
        <pt x="265" y="44" on="0"/>
        <pt x="280" y="44" on="0"/>
        <pt x="287" y="45" on="1"/>
        <pt x="295" y="46" on="0"/>
        <pt x="302" y="47" on="1"/>
        <pt x="304" y="43" on="1"/>
        <pt x="295" y="-3" on="1"/>
        <pt x="295" y="-3" on="0"/>
        <pt x="278" y="-2" on="0"/>
        <pt x="253" y="-1" on="0"/>
        <pt x="223" y="0" on="0"/>
        <pt x="210" y="0" on="1"/>
        <pt x="188" y="0" on="0"/>
        <pt x="136" y="-2" on="0"/>
        <pt x="90" y="-6" on="0"/>
        <pt x="59" y="-10" on="0"/>
        <pt x="58" y="-12" on="1"/>
        <pt x="64" y="34" on="1"/>
        <pt x="87" y="38" on="0"/>
        <pt x="117" y="51" on="0"/>
        <pt x="135" y="70" on="0"/>
        <pt x="142" y="99" on="0"/>
        <pt x="142" y="120" on="1"/>
        <pt x="143" y="540" on="1"/>
        <pt x="143" y="572" on="0"/>
        <pt x="129" y="594" on="0"/>
        <pt x="106" y="594" on="1"/>
        <pt x="101" y="594" on="0"/>
        <pt x="89" y="593" on="0"/>
        <pt x="84" y="593" on="1"/>
        <pt x="78" y="592" on="0"/>
        <pt x="72" y="592" on="1"/>
        <pt x="70" y="596" on="1"/>
        <pt x="77" y="640" on="1"/>
        <pt x="98" y="639" on="0"/>
        <pt x="118" y="638" on="1"/>
        <pt x="135" y="637" on="0"/>
        <pt x="174" y="637" on="0"/>
        <pt x="188" y="637" on="1"/>
        <pt x="204" y="637" on="0"/>
        <pt x="242" y="639" on="0"/>
        <pt x="258" y="641" on="1"/>
        <pt x="276" y="643" on="0"/>
        <pt x="295" y="646" on="1"/>
        <pt x="291" y="601" on="1"/>
        <pt x="269" y="598" on="0"/>
        <pt x="244" y="588" on="0"/>
        <pt x="231" y="569" on="0"/>
        <pt x="226" y="537" on="0"/>
        <pt x="225" y="511" on="1"/>
        <pt x="219" y="349" on="1"/>
        <pt x="387" y="348" on="1"/>
        <pt x="424" y="348" on="0"/>
        <pt x="491" y="353" on="0"/>
        <pt x="535" y="358" on="1"/>
        <pt x="536" y="540" on="1"/>
        <pt x="536" y="572" on="0"/>
        <pt x="522" y="594" on="0"/>
        <pt x="499" y="594" on="1"/>
        <pt x="494" y="594" on="0"/>
        <pt x="482" y="593" on="0"/>
        <pt x="477" y="593" on="1"/>
        <pt x="471" y="592" on="0"/>
        <pt x="465" y="592" on="1"/>
        <pt x="463" y="596" on="1"/>
        <pt x="470" y="640" on="1"/>
        <pt x="470" y="640" on="0"/>
        <pt x="492" y="639" on="0"/>
        <pt x="522" y="638" on="0"/>
        <pt x="556" y="637" on="0"/>
        <pt x="568" y="637" on="1"/>
        <pt x="586" y="637" on="0"/>
        <pt x="628" y="639" on="0"/>
        <pt x="646" y="641" on="1"/>
        <pt x="667" y="643" on="0"/>
        <pt x="688" y="646" on="1"/>
        <pt x="684" y="601" on="1"/>
        <pt x="665" y="598" on="0"/>
        <pt x="641" y="591" on="0"/>
        <pt x="627" y="578" on="0"/>
        <pt x="621" y="558" on="0"/>
      </contour>
    </TTGlyph>
    <TTGlyph name="Hbar" xMin="42" yMin="-12" xMax="707" yMax="646">
      <contour>
        <pt x="618" y="544" on="1"/>
        <pt x="617" y="533" on="0"/>
        <pt x="616" y="510" on="0"/>
        <pt x="616" y="498" on="1"/>
        <pt x="633" y="498" on="0"/>
        <pt x="661" y="499" on="0"/>
        <pt x="672" y="499" on="1"/>
        <pt x="684" y="499" on="0"/>
        <pt x="694" y="500" on="1"/>
        <pt x="707" y="487" on="1"/>
        <pt x="703" y="450" on="1"/>
        <pt x="614" y="449" on="1"/>
        <pt x="612" y="401" on="0"/>
        <pt x="608" y="302" on="0"/>
        <pt x="605" y="212" on="0"/>
        <pt x="604" y="137" on="0"/>
        <pt x="604" y="112" on="1"/>
        <pt x="604" y="71" on="0"/>
        <pt x="622" y="44" on="0"/>
        <pt x="648" y="44" on="1"/>
        <pt x="656" y="44" on="0"/>
        <pt x="671" y="44" on="0"/>
        <pt x="678" y="45" on="1"/>
        <pt x="686" y="46" on="0"/>
        <pt x="693" y="47" on="1"/>
        <pt x="695" y="43" on="1"/>
        <pt x="686" y="-3" on="1"/>
        <pt x="663" y="-3" on="0"/>
        <pt x="641" y="-2" on="1"/>
        <pt x="622" y="-1" on="0"/>
        <pt x="580" y="0" on="0"/>
        <pt x="563" y="0" on="1"/>
        <pt x="549" y="0" on="0"/>
        <pt x="510" y="-1" on="0"/>
        <pt x="492" y="-1" on="1"/>
        <pt x="471" y="-2" on="0"/>
        <pt x="448" y="-2" on="1"/>
        <pt x="457" y="43" on="1"/>
        <pt x="481" y="43" on="0"/>
        <pt x="510" y="52" on="0"/>
        <pt x="527" y="76" on="0"/>
        <pt x="533" y="117" on="0"/>
        <pt x="533" y="150" on="1"/>
        <pt x="533" y="301" on="1"/>
        <pt x="474" y="301" on="1"/>
        <pt x="450" y="301" on="0"/>
        <pt x="398" y="302" on="0"/>
        <pt x="381" y="302" on="1"/>
        <pt x="369" y="302" on="0"/>
        <pt x="314" y="298" on="0"/>
        <pt x="286" y="296" on="1"/>
        <pt x="253" y="293" on="0"/>
        <pt x="215" y="291" on="1"/>
        <pt x="211" y="112" on="1"/>
        <pt x="211" y="71" on="0"/>
        <pt x="229" y="44" on="0"/>
        <pt x="255" y="44" on="1"/>
        <pt x="263" y="44" on="0"/>
        <pt x="278" y="44" on="0"/>
        <pt x="285" y="45" on="1"/>
        <pt x="293" y="46" on="0"/>
        <pt x="300" y="47" on="1"/>
        <pt x="302" y="43" on="1"/>
        <pt x="293" y="-3" on="1"/>
        <pt x="293" y="-3" on="0"/>
        <pt x="276" y="-2" on="0"/>
        <pt x="251" y="-1" on="0"/>
        <pt x="221" y="0" on="0"/>
        <pt x="208" y="0" on="1"/>
        <pt x="186" y="0" on="0"/>
        <pt x="134" y="-2" on="0"/>
        <pt x="88" y="-6" on="0"/>
        <pt x="57" y="-10" on="0"/>
        <pt x="56" y="-12" on="1"/>
        <pt x="62" y="34" on="1"/>
        <pt x="85" y="38" on="0"/>
        <pt x="115" y="51" on="0"/>
        <pt x="133" y="70" on="0"/>
        <pt x="140" y="99" on="0"/>
        <pt x="140" y="120" on="1"/>
        <pt x="141" y="448" on="1"/>
        <pt x="51" y="448" on="1"/>
        <pt x="42" y="457" on="1"/>
        <pt x="49" y="496" on="1"/>
        <pt x="60" y="495" on="0"/>
        <pt x="75" y="495" on="1"/>
        <pt x="141" y="495" on="1"/>
        <pt x="141" y="540" on="1"/>
        <pt x="141" y="572" on="0"/>
        <pt x="127" y="594" on="0"/>
        <pt x="104" y="594" on="1"/>
        <pt x="99" y="594" on="0"/>
        <pt x="87" y="593" on="0"/>
        <pt x="82" y="593" on="1"/>
        <pt x="76" y="592" on="0"/>
        <pt x="70" y="592" on="1"/>
        <pt x="68" y="596" on="1"/>
        <pt x="75" y="640" on="1"/>
        <pt x="96" y="639" on="0"/>
        <pt x="116" y="638" on="1"/>
        <pt x="133" y="637" on="0"/>
        <pt x="172" y="637" on="0"/>
        <pt x="186" y="637" on="1"/>
        <pt x="202" y="637" on="0"/>
        <pt x="240" y="639" on="0"/>
        <pt x="256" y="641" on="1"/>
        <pt x="274" y="643" on="0"/>
        <pt x="293" y="646" on="1"/>
        <pt x="289" y="601" on="1"/>
        <pt x="267" y="598" on="0"/>
        <pt x="242" y="588" on="0"/>
        <pt x="229" y="569" on="0"/>
        <pt x="224" y="537" on="0"/>
        <pt x="223" y="511" on="1"/>
        <pt x="222" y="495" on="1"/>
        <pt x="396" y="495" on="1"/>
        <pt x="428" y="495" on="0"/>
        <pt x="499" y="495" on="0"/>
        <pt x="534" y="496" on="1"/>
        <pt x="534" y="540" on="1"/>
        <pt x="534" y="572" on="0"/>
        <pt x="520" y="594" on="0"/>
        <pt x="497" y="594" on="1"/>
        <pt x="492" y="594" on="0"/>
        <pt x="480" y="593" on="0"/>
        <pt x="475" y="593" on="1"/>
        <pt x="469" y="592" on="0"/>
        <pt x="463" y="592" on="1"/>
        <pt x="461" y="596" on="1"/>
        <pt x="468" y="640" on="1"/>
        <pt x="468" y="640" on="0"/>
        <pt x="490" y="639" on="0"/>
        <pt x="520" y="638" on="0"/>
        <pt x="554" y="637" on="0"/>
        <pt x="566" y="637" on="1"/>
        <pt x="584" y="637" on="0"/>
        <pt x="626" y="639" on="0"/>
        <pt x="644" y="641" on="1"/>
        <pt x="665" y="643" on="0"/>
        <pt x="686" y="646" on="1"/>
        <pt x="682" y="601" on="1"/>
        <pt x="663" y="598" on="0"/>
        <pt x="639" y="591" on="0"/>
        <pt x="625" y="578" on="0"/>
        <pt x="619" y="558" on="0"/>
      </contour>
      <contour>
        <pt x="220" y="449" on="1"/>
        <pt x="217" y="349" on="1"/>
        <pt x="385" y="348" on="1"/>
        <pt x="422" y="348" on="0"/>
        <pt x="489" y="353" on="0"/>
        <pt x="533" y="358" on="1"/>
        <pt x="533" y="449" on="1"/>
        <pt x="374" y="449" on="1"/>
      </contour>
    </TTGlyph>
    <TTGlyph name="Hcircumflex" xMin="58" yMin="-12" xMax="697" yMax="846">
      <component glyphName="H" x="0" y="0" flags="0x204"/>
      <component glyphName="circumflex.cap" x="178" y="0" flags="0x4"/>
    </TTGlyph>
    <TTGlyph name="I" xMin="56" yMin="-12" xMax="312" yMax="646">
      <contour>
        <pt x="227" y="544" on="1"/>
        <pt x="224" y="490" on="0"/>
        <pt x="219" y="364" on="0"/>
        <pt x="215" y="245" on="0"/>
        <pt x="213" y="143" on="0"/>
        <pt x="213" y="112" on="1"/>
        <pt x="213" y="71" on="0"/>
        <pt x="231" y="44" on="0"/>
        <pt x="257" y="44" on="1"/>
        <pt x="266" y="44" on="0"/>
        <pt x="284" y="44" on="0"/>
        <pt x="292" y="45" on="1"/>
        <pt x="301" y="46" on="0"/>
        <pt x="310" y="47" on="1"/>
        <pt x="312" y="43" on="1"/>
        <pt x="303" y="-3" on="1"/>
        <pt x="279" y="-3" on="0"/>
        <pt x="255" y="-2" on="1"/>
        <pt x="235" y="-1" on="0"/>
        <pt x="189" y="0" on="0"/>
        <pt x="172" y="0" on="1"/>
        <pt x="152" y="0" on="0"/>
        <pt x="112" y="-4" on="0"/>
        <pt x="95" y="-6" on="1"/>
        <pt x="75" y="-9" on="0"/>
        <pt x="56" y="-12" on="1"/>
        <pt x="62" y="34" on="1"/>
        <pt x="109" y="43" on="0"/>
        <pt x="142" y="78" on="0"/>
        <pt x="142" y="120" on="1"/>
        <pt x="143" y="540" on="1"/>
        <pt x="143" y="572" on="0"/>
        <pt x="129" y="594" on="0"/>
        <pt x="106" y="594" on="1"/>
        <pt x="100" y="594" on="0"/>
        <pt x="86" y="593" on="0"/>
        <pt x="79" y="593" on="1"/>
        <pt x="71" y="592" on="0"/>
        <pt x="64" y="592" on="1"/>
        <pt x="62" y="596" on="1"/>
        <pt x="69" y="640" on="1"/>
        <pt x="91" y="639" on="0"/>
        <pt x="113" y="638" on="1"/>
        <pt x="132" y="637" on="0"/>
        <pt x="172" y="637" on="0"/>
        <pt x="188" y="637" on="1"/>
        <pt x="205" y="637" on="0"/>
        <pt x="246" y="639" on="0"/>
        <pt x="263" y="641" on="1"/>
        <pt x="283" y="643" on="0"/>
        <pt x="303" y="646" on="1"/>
        <pt x="299" y="601" on="1"/>
        <pt x="257" y="596" on="0"/>
        <pt x="228" y="572" on="0"/>
      </contour>
    </TTGlyph>
    <TTGlyph name="IJ" xMin="56" yMin="-144" xMax="638" yMax="646">
      <component glyphName="I" x="0" y="0" flags="0x4"/>
      <component glyphName="J" x="361" y="0" flags="0x4"/>
    </TTGlyph>
    <TTGlyph name="Iacute" xMin="56" yMin="-12" xMax="345" yMax="841">
      <component glyphName="I" x="0" y="0" flags="0x204"/>
      <component glyphName="acute.cap" x="-4" y="0" flags="0x4"/>
    </TTGlyph>
    <TTGlyph name="Ibreve" xMin="56" yMin="-12" xMax="312" yMax="818">
      <component glyphName="I" x="0" y="0" flags="0x204"/>
      <component glyphName="breve.cap" x="-10" y="0" flags="0x4"/>
    </TTGlyph>
    <TTGlyph name="Icircumflex" xMin="40" yMin="-12" xMax="330" yMax="846">
      <component glyphName="I" x="1" y="0" flags="0x204"/>
      <component glyphName="circumflex.cap" x="-14" y="0" flags="0x4"/>
    </TTGlyph>
    <TTGlyph name="Idieresis" xMin="56" yMin="-12" xMax="313" yMax="818">
      <component glyphName="I" x="0" y="0" flags="0x204"/>
      <component glyphName="dieresis.cap" x="-14" y="0" flags="0x4"/>
    </TTGlyph>
    <TTGlyph name="Idotaccent" xMin="56" yMin="-12" xMax="312" yMax="829">
      <component glyphName="I" x="0" y="0" flags="0x204"/>
      <component glyphName="dotaccent.cap" x="-15" y="0" flags="0x4"/>
    </TTGlyph>
    <TTGlyph name="Igrave" xMin="32" yMin="-12" xMax="312" yMax="843">
      <component glyphName="I" x="0" y="0" flags="0x204"/>
      <component glyphName="grave.cap" x="-17" y="2" flags="0x4"/>
    </TTGlyph>
    <TTGlyph name="Imacron" xMin="35" yMin="-12" xMax="334" yMax="778">
      <component glyphName="I" x="0" y="0" flags="0x204"/>
      <component glyphName="macron.cap" x="-15" y="0" flags="0x4"/>
    </TTGlyph>
    <TTGlyph name="Iogonek" xMin="56" yMin="-241" xMax="329" yMax="646">
      <contour>
        <pt x="329" y="-178" on="1"/>
        <pt x="315" y="-191" on="0"/>
        <pt x="298" y="-203" on="1"/>
        <pt x="284" y="-214" on="0"/>
        <pt x="248" y="-235" on="0"/>
        <pt x="229" y="-241" on="1"/>
        <pt x="180" y="-241" on="0"/>
        <pt x="118" y="-192" on="0"/>
        <pt x="118" y="-147" on="1"/>
        <pt x="118" y="-112" on="0"/>
        <pt x="172" y="-40" on="0"/>
        <pt x="212" y="0" on="1"/>
        <pt x="172" y="0" on="1"/>
        <pt x="152" y="0" on="0"/>
        <pt x="112" y="-4" on="0"/>
        <pt x="95" y="-6" on="1"/>
        <pt x="75" y="-9" on="0"/>
        <pt x="56" y="-12" on="1"/>
        <pt x="62" y="34" on="1"/>
        <pt x="109" y="43" on="0"/>
        <pt x="142" y="78" on="0"/>
        <pt x="142" y="120" on="1"/>
        <pt x="143" y="540" on="1"/>
        <pt x="143" y="572" on="0"/>
        <pt x="129" y="594" on="0"/>
        <pt x="106" y="594" on="1"/>
        <pt x="100" y="594" on="0"/>
        <pt x="86" y="593" on="0"/>
        <pt x="79" y="593" on="1"/>
        <pt x="71" y="592" on="0"/>
        <pt x="64" y="592" on="1"/>
        <pt x="62" y="596" on="1"/>
        <pt x="69" y="640" on="1"/>
        <pt x="91" y="639" on="0"/>
        <pt x="113" y="638" on="1"/>
        <pt x="132" y="637" on="0"/>
        <pt x="172" y="637" on="0"/>
        <pt x="188" y="637" on="1"/>
        <pt x="205" y="637" on="0"/>
        <pt x="246" y="639" on="0"/>
        <pt x="263" y="641" on="1"/>
        <pt x="283" y="643" on="0"/>
        <pt x="303" y="646" on="1"/>
        <pt x="299" y="601" on="1"/>
        <pt x="257" y="596" on="0"/>
        <pt x="228" y="572" on="0"/>
        <pt x="227" y="544" on="1"/>
        <pt x="224" y="490" on="0"/>
        <pt x="219" y="364" on="0"/>
        <pt x="215" y="245" on="0"/>
        <pt x="213" y="143" on="0"/>
        <pt x="213" y="112" on="1"/>
        <pt x="213" y="71" on="0"/>
        <pt x="231" y="44" on="0"/>
        <pt x="257" y="44" on="1"/>
        <pt x="266" y="44" on="0"/>
        <pt x="284" y="44" on="0"/>
        <pt x="292" y="45" on="1"/>
        <pt x="301" y="46" on="0"/>
        <pt x="310" y="47" on="1"/>
        <pt x="312" y="43" on="1"/>
        <pt x="303" y="-3" on="1"/>
        <pt x="297" y="-2" on="0"/>
        <pt x="289" y="-2" on="1"/>
        <pt x="282" y="-2" on="0"/>
        <pt x="265" y="-2" on="0"/>
        <pt x="255" y="-1" on="1"/>
        <pt x="216" y="-42" on="0"/>
        <pt x="181" y="-98" on="0"/>
        <pt x="181" y="-128" on="1"/>
        <pt x="181" y="-151" on="0"/>
        <pt x="213" y="-182" on="0"/>
        <pt x="239" y="-182" on="1"/>
        <pt x="253" y="-182" on="0"/>
        <pt x="281" y="-176" on="0"/>
        <pt x="292" y="-171" on="1"/>
        <pt x="304" y="-166" on="0"/>
        <pt x="316" y="-159" on="1"/>
      </contour>
    </TTGlyph>
    <TTGlyph name="Itilde" xMin="23" yMin="-12" xMax="352" yMax="820">
      <component glyphName="I" x="0" y="0" flags="0x204"/>
      <component glyphName="tilde.cap" x="-12" y="0" flags="0x4"/>
    </TTGlyph>
    <TTGlyph name="J" xMin="23" yMin="-144" xMax="277" yMax="646">
      <contour>
        <pt x="132" y="540" on="1"/>
        <pt x="132" y="572" on="0"/>
        <pt x="118" y="593" on="0"/>
        <pt x="95" y="593" on="1"/>
        <pt x="90" y="593" on="0"/>
        <pt x="75" y="592" on="0"/>
        <pt x="67" y="591" on="1"/>
        <pt x="58" y="590" on="0"/>
        <pt x="48" y="589" on="1"/>
        <pt x="46" y="593" on="1"/>
        <pt x="53" y="637" on="1"/>
        <pt x="161" y="637" on="1"/>
        <pt x="177" y="637" on="0"/>
        <pt x="217" y="639" on="0"/>
        <pt x="235" y="641" on="1"/>
        <pt x="256" y="643" on="0"/>
        <pt x="277" y="646" on="1"/>
        <pt x="273" y="601" on="1"/>
        <pt x="238" y="596" on="0"/>
        <pt x="217" y="575" on="0"/>
        <pt x="216" y="544" on="1"/>
        <pt x="215" y="522" on="0"/>
        <pt x="212" y="452" on="0"/>
        <pt x="210" y="371" on="0"/>
        <pt x="207" y="284" on="0"/>
        <pt x="205" y="203" on="0"/>
        <pt x="203" y="136" on="0"/>
        <pt x="203" y="116" on="1"/>
        <pt x="202" y="14" on="0"/>
        <pt x="125" y="-110" on="0"/>
        <pt x="40" y="-144" on="1"/>
        <pt x="23" y="-111" on="1"/>
        <pt x="26" y="-103" on="1"/>
        <pt x="56" y="-85" on="0"/>
        <pt x="97" y="-46" on="0"/>
        <pt x="121" y="4" on="0"/>
        <pt x="131" y="70" on="0"/>
        <pt x="131" y="115" on="1"/>
      </contour>
    </TTGlyph>
    <TTGlyph name="Jcircumflex" xMin="23" yMin="-144" xMax="320" yMax="846">
      <component glyphName="J" x="0" y="0" flags="0x204"/>
      <component glyphName="circumflex.cap" x="-24" y="0" flags="0x4"/>
    </TTGlyph>
    <TTGlyph name="K" xMin="57" yMin="-14" xMax="618" yMax="646">
      <contour>
        <pt x="143" y="540" on="1"/>
        <pt x="143" y="572" on="0"/>
        <pt x="129" y="594" on="0"/>
        <pt x="106" y="594" on="1"/>
        <pt x="101" y="594" on="0"/>
        <pt x="89" y="593" on="0"/>
        <pt x="84" y="593" on="1"/>
        <pt x="78" y="592" on="0"/>
        <pt x="72" y="592" on="1"/>
        <pt x="70" y="596" on="1"/>
        <pt x="77" y="640" on="1"/>
        <pt x="98" y="639" on="0"/>
        <pt x="118" y="638" on="1"/>
        <pt x="135" y="637" on="0"/>
        <pt x="174" y="637" on="0"/>
        <pt x="188" y="637" on="1"/>
        <pt x="204" y="637" on="0"/>
        <pt x="242" y="639" on="0"/>
        <pt x="258" y="641" on="1"/>
        <pt x="276" y="643" on="0"/>
        <pt x="295" y="646" on="1"/>
        <pt x="291" y="601" on="1"/>
        <pt x="253" y="595" on="0"/>
        <pt x="226" y="570" on="0"/>
        <pt x="225" y="541" on="1"/>
        <pt x="213" y="112" on="1"/>
        <pt x="211" y="71" on="0"/>
        <pt x="231" y="44" on="0"/>
        <pt x="257" y="44" on="1"/>
        <pt x="265" y="44" on="0"/>
        <pt x="280" y="44" on="0"/>
        <pt x="287" y="45" on="1"/>
        <pt x="295" y="46" on="0"/>
        <pt x="302" y="47" on="1"/>
        <pt x="304" y="43" on="1"/>
        <pt x="295" y="-3" on="1"/>
        <pt x="272" y="-3" on="0"/>
        <pt x="250" y="-2" on="1"/>
        <pt x="231" y="-1" on="0"/>
        <pt x="189" y="0" on="0"/>
        <pt x="172" y="0" on="1"/>
        <pt x="153" y="0" on="0"/>
        <pt x="113" y="-1" on="0"/>
        <pt x="96" y="-1" on="1"/>
        <pt x="57" y="-1" on="1"/>
        <pt x="67" y="44" on="1"/>
        <pt x="90" y="46" on="0"/>
        <pt x="119" y="55" on="0"/>
        <pt x="136" y="71" on="0"/>
        <pt x="142" y="99" on="0"/>
        <pt x="142" y="120" on="1"/>
      </contour>
      <contour>
        <pt x="243" y="329" on="1"/>
        <pt x="422" y="515" on="1"/>
        <pt x="453" y="546" on="0"/>
        <pt x="453" y="567" on="1"/>
        <pt x="453" y="593" on="0"/>
        <pt x="390" y="597" on="1"/>
        <pt x="388" y="601" on="1"/>
        <pt x="395" y="644" on="1"/>
        <pt x="416" y="642" on="0"/>
        <pt x="436" y="640" on="1"/>
        <pt x="453" y="638" on="0"/>
        <pt x="491" y="637" on="0"/>
        <pt x="505" y="637" on="1"/>
        <pt x="519" y="637" on="0"/>
        <pt x="552" y="638" on="0"/>
        <pt x="566" y="639" on="1"/>
        <pt x="582" y="640" on="0"/>
        <pt x="597" y="641" on="1"/>
        <pt x="601" y="634" on="1"/>
        <pt x="594" y="593" on="1"/>
        <pt x="581" y="590" on="0"/>
        <pt x="559" y="581" on="0"/>
        <pt x="533" y="562" on="0"/>
        <pt x="501" y="532" on="0"/>
        <pt x="479" y="509" on="1"/>
        <pt x="318" y="340" on="1"/>
        <pt x="486" y="121" on="1"/>
        <pt x="522" y="74" on="0"/>
        <pt x="579" y="36" on="0"/>
        <pt x="614" y="36" on="1"/>
        <pt x="618" y="32" on="1"/>
        <pt x="612" y="-2" on="1"/>
        <pt x="592" y="-5" on="0"/>
        <pt x="575" y="-8" on="1"/>
        <pt x="561" y="-10" on="0"/>
        <pt x="533" y="-14" on="0"/>
        <pt x="529" y="-14" on="1"/>
        <pt x="504" y="-14" on="0"/>
        <pt x="446" y="31" on="0"/>
        <pt x="417" y="72" on="1"/>
        <pt x="242" y="315" on="1"/>
      </contour>
    </TTGlyph>
    <TTGlyph name="Kcommaaccent" xMin="57" yMin="-293" xMax="618" yMax="646">
      <component glyphName="K" x="0" y="0" flags="0x204"/>
      <component glyphName="commaaccent" x="137" y="0" flags="0x4"/>
    </TTGlyph>
    <TTGlyph name="L" xMin="68" yMin="-10" xMax="505" yMax="646">
      <contour>
        <pt x="202" y="0" on="1"/>
        <pt x="173" y="0" on="0"/>
        <pt x="125" y="-3" on="0"/>
        <pt x="107" y="-5" on="1"/>
        <pt x="86" y="-8" on="0"/>
        <pt x="68" y="-10" on="1"/>
        <pt x="74" y="36" on="1"/>
        <pt x="113" y="42" on="0"/>
        <pt x="142" y="77" on="0"/>
        <pt x="142" y="120" on="1"/>
        <pt x="143" y="540" on="1"/>
        <pt x="143" y="572" on="0"/>
        <pt x="129" y="594" on="0"/>
        <pt x="106" y="594" on="1"/>
        <pt x="101" y="594" on="0"/>
        <pt x="89" y="593" on="0"/>
        <pt x="84" y="593" on="1"/>
        <pt x="78" y="592" on="0"/>
        <pt x="72" y="592" on="1"/>
        <pt x="70" y="596" on="1"/>
        <pt x="77" y="640" on="1"/>
        <pt x="99" y="639" on="0"/>
        <pt x="119" y="638" on="1"/>
        <pt x="136" y="637" on="0"/>
        <pt x="175" y="637" on="0"/>
        <pt x="189" y="637" on="1"/>
        <pt x="205" y="637" on="0"/>
        <pt x="243" y="639" on="0"/>
        <pt x="259" y="641" on="1"/>
        <pt x="277" y="643" on="0"/>
        <pt x="296" y="646" on="1"/>
        <pt x="292" y="601" on="1"/>
        <pt x="267" y="598" on="0"/>
        <pt x="241" y="587" on="0"/>
        <pt x="230" y="566" on="0"/>
        <pt x="228" y="533" on="0"/>
        <pt x="226" y="508" on="1"/>
        <pt x="223" y="461" on="0"/>
        <pt x="218" y="354" on="0"/>
        <pt x="215" y="250" on="0"/>
        <pt x="214" y="156" on="0"/>
        <pt x="214" y="122" on="1"/>
        <pt x="214" y="96" on="0"/>
        <pt x="219" y="66" on="0"/>
        <pt x="237" y="50" on="0"/>
        <pt x="271" y="45" on="0"/>
        <pt x="299" y="45" on="1"/>
        <pt x="342" y="45" on="0"/>
        <pt x="397" y="55" on="0"/>
        <pt x="431" y="85" on="0"/>
        <pt x="450" y="141" on="0"/>
        <pt x="458" y="187" on="1"/>
        <pt x="502" y="192" on="1"/>
        <pt x="505" y="187" on="1"/>
        <pt x="500" y="160" on="0"/>
        <pt x="495" y="129" on="1"/>
        <pt x="490" y="103" on="0"/>
        <pt x="480" y="34" on="0"/>
        <pt x="476" y="-3" on="1"/>
        <pt x="471" y="-9" on="1"/>
        <pt x="420" y="-7" on="0"/>
        <pt x="372" y="-5" on="1"/>
        <pt x="331" y="-4" on="0"/>
        <pt x="237" y="0" on="0"/>
      </contour>
    </TTGlyph>
    <TTGlyph name="Lacute" xMin="68" yMin="-10" xMax="505" yMax="841">
      <component glyphName="L" x="0" y="0" flags="0x204"/>
      <component glyphName="acute.cap" x="1" y="0" flags="0x4"/>
    </TTGlyph>
    <TTGlyph name="Lcaron" xMin="68" yMin="-10" xMax="505" yMax="646">
      <component glyphName="L" x="0" y="0" flags="0x204"/>
      <component glyphName="caron.alt" x="247" y="-75" flags="0x4"/>
    </TTGlyph>
    <TTGlyph name="Lcommaaccent" xMin="68" yMin="-293" xMax="505" yMax="646">
      <component glyphName="L" x="0" y="0" flags="0x204"/>
      <component glyphName="commaaccent" x="107" y="0" flags="0x4"/>
    </TTGlyph>
    <TTGlyph name="Ldot" xMin="68" yMin="-10" xMax="505" yMax="646">
      <component glyphName="L" x="0" y="0" flags="0x4"/>
      <component glyphName="dotbelowcomb" x="240" y="575" flags="0x4"/>
    </TTGlyph>
    <TTGlyph name="Lslash" xMin="61" yMin="-10" xMax="505" yMax="646">
      <contour>
        <pt x="202" y="0" on="1"/>
        <pt x="173" y="0" on="0"/>
        <pt x="125" y="-3" on="0"/>
        <pt x="107" y="-5" on="1"/>
        <pt x="86" y="-8" on="0"/>
        <pt x="68" y="-10" on="1"/>
        <pt x="74" y="36" on="1"/>
        <pt x="113" y="42" on="0"/>
        <pt x="142" y="77" on="0"/>
        <pt x="142" y="120" on="1"/>
        <pt x="142" y="291" on="1"/>
        <pt x="75" y="258" on="1"/>
        <pt x="66" y="261" on="1"/>
        <pt x="61" y="293" on="1"/>
        <pt x="142" y="333" on="1"/>
        <pt x="143" y="540" on="1"/>
        <pt x="143" y="572" on="0"/>
        <pt x="129" y="594" on="0"/>
        <pt x="106" y="594" on="1"/>
        <pt x="101" y="594" on="0"/>
        <pt x="89" y="593" on="0"/>
        <pt x="84" y="593" on="1"/>
        <pt x="78" y="592" on="0"/>
        <pt x="72" y="592" on="1"/>
        <pt x="70" y="596" on="1"/>
        <pt x="77" y="640" on="1"/>
        <pt x="99" y="639" on="0"/>
        <pt x="119" y="638" on="1"/>
        <pt x="136" y="637" on="0"/>
        <pt x="175" y="637" on="0"/>
        <pt x="189" y="637" on="1"/>
        <pt x="205" y="637" on="0"/>
        <pt x="243" y="639" on="0"/>
        <pt x="259" y="641" on="1"/>
        <pt x="277" y="643" on="0"/>
        <pt x="296" y="646" on="1"/>
        <pt x="292" y="601" on="1"/>
        <pt x="267" y="598" on="0"/>
        <pt x="241" y="587" on="0"/>
        <pt x="230" y="566" on="0"/>
        <pt x="228" y="533" on="0"/>
        <pt x="226" y="508" on="1"/>
        <pt x="224" y="475" on="0"/>
        <pt x="220" y="402" on="0"/>
        <pt x="218" y="365" on="1"/>
        <pt x="398" y="454" on="1"/>
        <pt x="406" y="449" on="1"/>
        <pt x="411" y="418" on="1"/>
        <pt x="217" y="322" on="1"/>
        <pt x="215" y="264" on="0"/>
        <pt x="214" y="160" on="0"/>
        <pt x="214" y="122" on="1"/>
        <pt x="214" y="96" on="0"/>
        <pt x="219" y="66" on="0"/>
        <pt x="237" y="50" on="0"/>
        <pt x="271" y="45" on="0"/>
        <pt x="299" y="45" on="1"/>
        <pt x="342" y="45" on="0"/>
        <pt x="397" y="55" on="0"/>
        <pt x="431" y="85" on="0"/>
        <pt x="450" y="141" on="0"/>
        <pt x="458" y="187" on="1"/>
        <pt x="502" y="192" on="1"/>
        <pt x="505" y="187" on="1"/>
        <pt x="500" y="160" on="0"/>
        <pt x="495" y="129" on="1"/>
        <pt x="490" y="103" on="0"/>
        <pt x="480" y="34" on="0"/>
        <pt x="476" y="-3" on="1"/>
        <pt x="471" y="-9" on="1"/>
        <pt x="420" y="-7" on="0"/>
        <pt x="372" y="-5" on="1"/>
        <pt x="331" y="-4" on="0"/>
        <pt x="237" y="0" on="0"/>
      </contour>
    </TTGlyph>
    <TTGlyph name="M" xMin="46" yMin="-19" xMax="798" yMax="643">
      <contour>
        <pt x="397" y="-19" on="1"/>
        <pt x="203" y="520" on="1"/>
        <pt x="198" y="520" on="1"/>
        <pt x="188" y="402" on="0"/>
        <pt x="181" y="307" on="1"/>
        <pt x="178" y="266" on="0"/>
        <pt x="171" y="188" on="0"/>
        <pt x="167" y="123" on="0"/>
        <pt x="164" y="80" on="0"/>
        <pt x="164" y="75" on="1"/>
        <pt x="164" y="44" on="0"/>
        <pt x="195" y="44" on="1"/>
        <pt x="219" y="44" on="1"/>
        <pt x="227" y="44" on="0"/>
        <pt x="236" y="45" on="1"/>
        <pt x="238" y="41" on="1"/>
        <pt x="229" y="-4" on="1"/>
        <pt x="211" y="-3" on="0"/>
        <pt x="193" y="-2" on="1"/>
        <pt x="178" y="-1" on="0"/>
        <pt x="144" y="0" on="0"/>
        <pt x="132" y="0" on="1"/>
        <pt x="117" y="0" on="0"/>
        <pt x="86" y="-2" on="0"/>
        <pt x="74" y="-4" on="1"/>
        <pt x="59" y="-6" on="0"/>
        <pt x="46" y="-8" on="1"/>
        <pt x="51" y="38" on="1"/>
        <pt x="83" y="42" on="0"/>
        <pt x="110" y="74" on="0"/>
        <pt x="115" y="115" on="1"/>
        <pt x="117" y="133" on="0"/>
        <pt x="125" y="207" on="0"/>
        <pt x="135" y="298" on="0"/>
        <pt x="145" y="396" on="0"/>
        <pt x="154" y="480" on="0"/>
        <pt x="159" y="539" on="0"/>
        <pt x="159" y="547" on="1"/>
        <pt x="159" y="573" on="0"/>
        <pt x="118" y="599" on="0"/>
        <pt x="72" y="602" on="1"/>
        <pt x="69" y="607" on="1"/>
        <pt x="77" y="642" on="1"/>
        <pt x="99" y="640" on="0"/>
        <pt x="119" y="639" on="1"/>
        <pt x="136" y="638" on="0"/>
        <pt x="174" y="637" on="0"/>
        <pt x="186" y="637" on="1"/>
        <pt x="197" y="637" on="0"/>
        <pt x="221" y="638" on="0"/>
        <pt x="231" y="639" on="1"/>
        <pt x="242" y="640" on="0"/>
        <pt x="254" y="641" on="1"/>
        <pt x="288" y="531" on="0"/>
        <pt x="349" y="350" on="0"/>
        <pt x="372" y="284" on="1"/>
        <pt x="399" y="207" on="0"/>
        <pt x="423" y="145" on="1"/>
        <pt x="428" y="145" on="1"/>
        <pt x="452" y="207" on="0"/>
        <pt x="479" y="284" on="1"/>
        <pt x="502" y="350" on="0"/>
        <pt x="565" y="530" on="0"/>
        <pt x="601" y="639" on="1"/>
        <pt x="601" y="639" on="0"/>
        <pt x="616" y="639" on="0"/>
        <pt x="637" y="638" on="0"/>
        <pt x="659" y="637" on="0"/>
        <pt x="667" y="637" on="1"/>
        <pt x="678" y="637" on="0"/>
        <pt x="715" y="638" on="0"/>
        <pt x="732" y="640" on="1"/>
        <pt x="752" y="641" on="0"/>
        <pt x="775" y="643" on="1"/>
        <pt x="777" y="639" on="1"/>
        <pt x="772" y="602" on="1"/>
        <pt x="728" y="597" on="0"/>
        <pt x="693" y="572" on="0"/>
        <pt x="693" y="547" on="1"/>
        <pt x="693" y="540" on="0"/>
        <pt x="695" y="493" on="0"/>
        <pt x="699" y="426" on="0"/>
        <pt x="704" y="343" on="0"/>
        <pt x="710" y="258" on="0"/>
        <pt x="716" y="174" on="0"/>
        <pt x="719" y="139" on="1"/>
        <pt x="722" y="110" on="0"/>
        <pt x="730" y="73" on="0"/>
        <pt x="740" y="52" on="0"/>
        <pt x="756" y="44" on="0"/>
        <pt x="768" y="44" on="1"/>
        <pt x="773" y="44" on="0"/>
        <pt x="781" y="44" on="0"/>
        <pt x="786" y="45" on="1"/>
        <pt x="790" y="45" on="0"/>
        <pt x="796" y="46" on="1"/>
        <pt x="798" y="42" on="1"/>
        <pt x="789" y="-3" on="1"/>
        <pt x="772" y="-3" on="0"/>
        <pt x="755" y="-2" on="1"/>
        <pt x="741" y="-1" on="0"/>
        <pt x="708" y="0" on="0"/>
        <pt x="694" y="0" on="1"/>
        <pt x="677" y="0" on="0"/>
        <pt x="642" y="-2" on="0"/>
        <pt x="626" y="-4" on="1"/>
        <pt x="608" y="-6" on="0"/>
        <pt x="590" y="-8" on="1"/>
        <pt x="594" y="38" on="1"/>
        <pt x="653" y="45" on="0"/>
        <pt x="653" y="88" on="1"/>
        <pt x="653" y="94" on="0"/>
        <pt x="650" y="138" on="0"/>
        <pt x="645" y="201" on="0"/>
        <pt x="639" y="278" on="0"/>
        <pt x="636" y="317" on="1"/>
        <pt x="628" y="409" on="0"/>
        <pt x="619" y="520" on="1"/>
        <pt x="614" y="520" on="1"/>
        <pt x="421" y="-12" on="1"/>
      </contour>
    </TTGlyph>
    <TTGlyph name="N" xMin="54" yMin="-40" xMax="686" yMax="645">
      <contour>
        <pt x="556" y="145" on="1"/>
        <pt x="556" y="550" on="1"/>
        <pt x="556" y="593" on="0"/>
        <pt x="523" y="593" on="1"/>
        <pt x="516" y="593" on="0"/>
        <pt x="502" y="592" on="0"/>
        <pt x="497" y="592" on="1"/>
        <pt x="485" y="592" on="1"/>
        <pt x="483" y="596" on="1"/>
        <pt x="492" y="641" on="1"/>
        <pt x="509" y="640" on="0"/>
        <pt x="527" y="639" on="1"/>
        <pt x="541" y="638" on="0"/>
        <pt x="574" y="637" on="0"/>
        <pt x="587" y="637" on="1"/>
        <pt x="603" y="637" on="0"/>
        <pt x="637" y="639" on="0"/>
        <pt x="652" y="641" on="1"/>
        <pt x="669" y="643" on="0"/>
        <pt x="686" y="645" on="1"/>
        <pt x="681" y="599" on="1"/>
        <pt x="646" y="594" on="0"/>
        <pt x="614" y="565" on="0"/>
        <pt x="613" y="536" on="1"/>
        <pt x="599" y="-26" on="1"/>
        <pt x="570" y="-40" on="1"/>
        <pt x="496" y="75" on="0"/>
        <pt x="363" y="274" on="0"/>
        <pt x="311" y="349" on="1"/>
        <pt x="250" y="437" on="0"/>
        <pt x="198" y="511" on="1"/>
        <pt x="193" y="511" on="1"/>
        <pt x="188" y="84" on="1"/>
        <pt x="188" y="61" on="0"/>
        <pt x="202" y="44" on="0"/>
        <pt x="219" y="44" on="1"/>
        <pt x="248" y="44" on="1"/>
        <pt x="258" y="44" on="0"/>
        <pt x="270" y="45" on="1"/>
        <pt x="272" y="41" on="1"/>
        <pt x="263" y="-4" on="1"/>
        <pt x="244" y="-3" on="0"/>
        <pt x="226" y="-2" on="1"/>
        <pt x="210" y="-1" on="0"/>
        <pt x="173" y="0" on="0"/>
        <pt x="157" y="0" on="1"/>
        <pt x="142" y="0" on="0"/>
        <pt x="109" y="-2" on="0"/>
        <pt x="95" y="-4" on="1"/>
        <pt x="79" y="-6" on="0"/>
        <pt x="64" y="-8" on="1"/>
        <pt x="69" y="38" on="1"/>
        <pt x="100" y="42" on="0"/>
        <pt x="130" y="70" on="0"/>
        <pt x="131" y="101" on="1"/>
        <pt x="144" y="538" on="1"/>
        <pt x="144" y="569" on="0"/>
        <pt x="107" y="595" on="0"/>
        <pt x="57" y="600" on="1"/>
        <pt x="54" y="605" on="1"/>
        <pt x="62" y="642" on="1"/>
        <pt x="78" y="640" on="0"/>
        <pt x="94" y="639" on="1"/>
        <pt x="108" y="638" on="0"/>
        <pt x="137" y="637" on="0"/>
        <pt x="148" y="637" on="1"/>
        <pt x="160" y="637" on="0"/>
        <pt x="184" y="638" on="0"/>
        <pt x="194" y="639" on="1"/>
        <pt x="205" y="640" on="0"/>
        <pt x="215" y="641" on="1"/>
        <pt x="278" y="544" on="0"/>
        <pt x="397" y="365" on="0"/>
        <pt x="445" y="296" on="1"/>
        <pt x="500" y="215" on="0"/>
        <pt x="551" y="145" on="1"/>
      </contour>
    </TTGlyph>
    <TTGlyph name="Nacute" xMin="54" yMin="-40" xMax="686" yMax="841">
      <component glyphName="N" x="0" y="0" flags="0x204"/>
      <component glyphName="acute.cap" x="182" y="0" flags="0x4"/>
    </TTGlyph>
    <TTGlyph name="Ncaron" xMin="54" yMin="-40" xMax="686" yMax="838">
      <component glyphName="N" x="0" y="0" flags="0x204"/>
      <component glyphName="caron.cap" x="172" y="0" flags="0x4"/>
    </TTGlyph>
    <TTGlyph name="Ncommaaccent" xMin="54" yMin="-293" xMax="686" yMax="645">
      <component glyphName="N" x="0" y="0" flags="0x204"/>
      <component glyphName="commaaccent" x="173" y="0" flags="0x4"/>
    </TTGlyph>
    <TTGlyph name="Ntilde" xMin="54" yMin="-40" xMax="686" yMax="820">
      <component glyphName="N" x="0" y="0" flags="0x204"/>
      <component glyphName="tilde.cap" x="172" y="0" flags="0x4"/>
    </TTGlyph>
    <TTGlyph name="O" xMin="40" yMin="-12" xMax="652" yMax="649">
      <contour>
        <pt x="348" y="39" on="1"/>
        <pt x="396" y="39" on="0"/>
        <pt x="475" y="77" on="0"/>
        <pt x="532" y="146" on="0"/>
        <pt x="563" y="241" on="0"/>
        <pt x="563" y="299" on="1"/>
        <pt x="563" y="363" on="0"/>
        <pt x="530" y="470" on="0"/>
        <pt x="470" y="546" on="0"/>
        <pt x="386" y="589" on="0"/>
        <pt x="335" y="589" on="1"/>
        <pt x="288" y="589" on="0"/>
        <pt x="212" y="551" on="0"/>
        <pt x="156" y="482" on="0"/>
        <pt x="126" y="387" on="0"/>
        <pt x="126" y="329" on="1"/>
        <pt x="126" y="265" on="0"/>
        <pt x="159" y="158" on="0"/>
        <pt x="217" y="82" on="0"/>
        <pt x="299" y="39" on="0"/>
      </contour>
      <contour>
        <pt x="317" y="-12" on="1"/>
        <pt x="255" y="-12" on="0"/>
        <pt x="154" y="33" on="0"/>
        <pt x="80" y="115" on="0"/>
        <pt x="40" y="228" on="0"/>
        <pt x="40" y="297" on="1"/>
        <pt x="40" y="371" on="0"/>
        <pt x="91" y="500" on="0"/>
        <pt x="179" y="595" on="0"/>
        <pt x="300" y="649" on="0"/>
        <pt x="369" y="649" on="1"/>
        <pt x="432" y="649" on="0"/>
        <pt x="536" y="604" on="0"/>
        <pt x="611" y="523" on="0"/>
        <pt x="652" y="409" on="0"/>
        <pt x="652" y="341" on="1"/>
        <pt x="652" y="266" on="0"/>
        <pt x="600" y="137" on="0"/>
        <pt x="510" y="42" on="0"/>
        <pt x="388" y="-12" on="0"/>
      </contour>
    </TTGlyph>
    <TTGlyph name="OE" xMin="41" yMin="-12" xMax="902" yMax="649">
      <contour>
        <pt x="583" y="105" on="1"/>
        <pt x="583" y="85" on="0"/>
        <pt x="587" y="61" on="0"/>
        <pt x="604" y="49" on="0"/>
        <pt x="635" y="45" on="0"/>
        <pt x="662" y="45" on="1"/>
        <pt x="721" y="45" on="0"/>
        <pt x="792" y="52" on="0"/>
        <pt x="832" y="77" on="0"/>
        <pt x="849" y="126" on="0"/>
        <pt x="855" y="167" on="1"/>
        <pt x="899" y="172" on="1"/>
        <pt x="902" y="167" on="1"/>
        <pt x="897" y="142" on="0"/>
        <pt x="892" y="115" on="1"/>
        <pt x="887" y="92" on="0"/>
        <pt x="878" y="31" on="0"/>
        <pt x="875" y="-1" on="1"/>
        <pt x="870" y="-7" on="1"/>
        <pt x="809" y="-5" on="0"/>
        <pt x="753" y="-3" on="1"/>
        <pt x="729" y="-2" on="0"/>
        <pt x="677" y="-1" on="0"/>
        <pt x="628" y="0" on="0"/>
        <pt x="583" y="1" on="0"/>
        <pt x="565" y="1" on="1"/>
        <pt x="487" y="1" on="0"/>
        <pt x="365" y="-12" on="0"/>
        <pt x="311" y="-12" on="1"/>
        <pt x="251" y="-12" on="0"/>
        <pt x="152" y="33" on="0"/>
        <pt x="81" y="115" on="0"/>
        <pt x="41" y="229" on="0"/>
        <pt x="41" y="297" on="1"/>
        <pt x="41" y="371" on="0"/>
        <pt x="91" y="500" on="0"/>
        <pt x="178" y="595" on="0"/>
        <pt x="295" y="649" on="0"/>
        <pt x="363" y="649" on="1"/>
        <pt x="414" y="649" on="0"/>
        <pt x="520" y="635" on="0"/>
        <pt x="582" y="635" on="1"/>
        <pt x="688" y="635" on="0"/>
        <pt x="832" y="641" on="0"/>
        <pt x="886" y="649" on="1"/>
        <pt x="889" y="643" on="1"/>
        <pt x="884" y="620" on="0"/>
        <pt x="880" y="594" on="1"/>
        <pt x="876" y="571" on="0"/>
        <pt x="868" y="512" on="0"/>
        <pt x="866" y="477" on="1"/>
        <pt x="818" y="473" on="1"/>
        <pt x="818" y="481" on="0"/>
        <pt x="819" y="489" on="1"/>
        <pt x="819" y="496" on="0"/>
        <pt x="820" y="511" on="0"/>
        <pt x="820" y="516" on="1"/>
        <pt x="820" y="540" on="0"/>
        <pt x="812" y="569" on="0"/>
        <pt x="780" y="583" on="0"/>
        <pt x="719" y="587" on="0"/>
        <pt x="666" y="587" on="1"/>
        <pt x="642" y="587" on="0"/>
        <pt x="614" y="585" on="0"/>
        <pt x="601" y="578" on="0"/>
        <pt x="597" y="562" on="0"/>
        <pt x="596" y="548" on="1"/>
        <pt x="588" y="354" on="1"/>
        <pt x="692" y="353" on="1"/>
        <pt x="706" y="353" on="0"/>
        <pt x="746" y="356" on="0"/>
        <pt x="766" y="358" on="1"/>
        <pt x="789" y="361" on="0"/>
        <pt x="814" y="364" on="1"/>
        <pt x="818" y="359" on="1"/>
        <pt x="804" y="300" on="1"/>
        <pt x="779" y="300" on="0"/>
        <pt x="754" y="301" on="1"/>
        <pt x="733" y="302" on="0"/>
        <pt x="684" y="303" on="0"/>
        <pt x="664" y="303" on="1"/>
        <pt x="586" y="296" on="1"/>
      </contour>
      <contour>
        <pt x="342" y="40" on="1"/>
        <pt x="390" y="40" on="0"/>
        <pt x="458" y="58" on="0"/>
        <pt x="500" y="98" on="0"/>
        <pt x="519" y="162" on="0"/>
        <pt x="520" y="208" on="1"/>
        <pt x="521" y="467" on="1"/>
        <pt x="521" y="504" on="0"/>
        <pt x="505" y="552" on="0"/>
        <pt x="463" y="580" on="0"/>
        <pt x="393" y="591" on="0"/>
        <pt x="339" y="591" on="1"/>
        <pt x="292" y="591" on="0"/>
        <pt x="214" y="553" on="0"/>
        <pt x="158" y="484" on="0"/>
        <pt x="127" y="388" on="0"/>
        <pt x="127" y="330" on="1"/>
        <pt x="127" y="265" on="0"/>
        <pt x="158" y="159" on="0"/>
        <pt x="215" y="82" on="0"/>
        <pt x="294" y="40" on="0"/>
      </contour>
    </TTGlyph>
    <TTGlyph name="Oacute" xMin="40" yMin="-12" xMax="652" yMax="841">
      <component glyphName="O" x="0" y="0" flags="0x204"/>
      <component glyphName="acute.cap" x="153" y="0" flags="0x4"/>
    </TTGlyph>
    <TTGlyph name="Obreve" xMin="40" yMin="-12" xMax="652" yMax="818">
      <component glyphName="O" x="0" y="0" flags="0x204"/>
      <component glyphName="breve.cap" x="126" y="0" flags="0x4"/>
    </TTGlyph>
    <TTGlyph name="Ocircumflex" xMin="40" yMin="-12" xMax="652" yMax="846">
      <component glyphName="O" x="0" y="0" flags="0x204"/>
      <component glyphName="circumflex.cap" x="143" y="0" flags="0x4"/>
    </TTGlyph>
    <TTGlyph name="Odieresis" xMin="40" yMin="-12" xMax="652" yMax="818">
      <component glyphName="O" x="0" y="0" flags="0x204"/>
      <component glyphName="dieresis.cap" x="143" y="0" flags="0x4"/>
    </TTGlyph>
    <TTGlyph name="Ograve" xMin="40" yMin="-12" xMax="652" yMax="841">
      <component glyphName="O" x="0" y="0" flags="0x204"/>
      <component glyphName="grave.cap" x="140" y="0" flags="0x4"/>
    </TTGlyph>
    <TTGlyph name="Ohungarumlaut" xMin="40" yMin="-12" xMax="652" yMax="837">
      <component glyphName="O" x="0" y="0" flags="0x204"/>
      <component glyphName="hungarumlaut.cap" x="156" y="0" flags="0x4"/>
    </TTGlyph>
    <TTGlyph name="Omacron" xMin="40" yMin="-12" xMax="652" yMax="778">
      <component glyphName="O" x="0" y="0" flags="0x204"/>
      <component glyphName="macron.cap" x="142" y="0" flags="0x4"/>
    </TTGlyph>
    <TTGlyph name="Omega" xMin="42" yMin="-6" xMax="804" yMax="649">
      <contour>
        <pt x="767" y="-6" on="1"/>
        <pt x="513" y="8" on="1"/>
        <pt x="472" y="2" on="1"/>
        <pt x="465" y="23" on="1"/>
        <pt x="511" y="63" on="0"/>
        <pt x="576" y="138" on="0"/>
        <pt x="618" y="215" on="0"/>
        <pt x="637" y="296" on="0"/>
        <pt x="637" y="341" on="1"/>
        <pt x="637" y="396" on="0"/>
        <pt x="606" y="487" on="0"/>
        <pt x="549" y="553" on="0"/>
        <pt x="470" y="589" on="0"/>
        <pt x="422" y="589" on="1"/>
        <pt x="372" y="589" on="0"/>
        <pt x="291" y="556" on="0"/>
        <pt x="232" y="496" on="0"/>
        <pt x="200" y="411" on="0"/>
        <pt x="200" y="360" on="1"/>
        <pt x="200" y="312" on="0"/>
        <pt x="223" y="218" on="0"/>
        <pt x="267" y="131" on="0"/>
        <pt x="330" y="54" on="0"/>
        <pt x="369" y="24" on="1"/>
        <pt x="362" y="1" on="1"/>
        <pt x="321" y="8" on="1"/>
        <pt x="77" y="-6" on="1"/>
        <pt x="61" y="10" on="1"/>
        <pt x="60" y="37" on="0"/>
        <pt x="54" y="93" on="0"/>
        <pt x="51" y="116" on="1"/>
        <pt x="47" y="143" on="0"/>
        <pt x="42" y="169" on="1"/>
        <pt x="80" y="174" on="1"/>
        <pt x="85" y="140" on="0"/>
        <pt x="100" y="94" on="0"/>
        <pt x="124" y="67" on="0"/>
        <pt x="158" y="56" on="0"/>
        <pt x="182" y="56" on="1"/>
        <pt x="274" y="56" on="1"/>
        <pt x="199" y="115" on="0"/>
        <pt x="114" y="271" on="0"/>
        <pt x="114" y="353" on="1"/>
        <pt x="114" y="415" on="0"/>
        <pt x="164" y="523" on="0"/>
        <pt x="251" y="603" on="0"/>
        <pt x="367" y="649" on="0"/>
        <pt x="434" y="649" on="1"/>
        <pt x="498" y="649" on="0"/>
        <pt x="606" y="608" on="0"/>
        <pt x="683" y="534" on="0"/>
        <pt x="726" y="431" on="0"/>
        <pt x="726" y="369" on="1"/>
        <pt x="726" y="323" on="0"/>
        <pt x="702" y="234" on="0"/>
        <pt x="658" y="153" on="0"/>
        <pt x="594" y="83" on="0"/>
        <pt x="555" y="56" on="1"/>
        <pt x="662" y="56" on="1"/>
        <pt x="686" y="56" on="0"/>
        <pt x="720" y="67" on="0"/>
        <pt x="743" y="92" on="0"/>
        <pt x="758" y="136" on="0"/>
        <pt x="764" y="169" on="1"/>
        <pt x="804" y="174" on="1"/>
        <pt x="798" y="147" on="0"/>
        <pt x="794" y="119" on="1"/>
        <pt x="790" y="95" on="0"/>
        <pt x="783" y="37" on="0"/>
        <pt x="783" y="10" on="1"/>
      </contour>
    </TTGlyph>
    <TTGlyph name="Oslash" xMin="40" yMin="-98" xMax="652" yMax="708">
      <contour>
        <pt x="166" y="31" on="1"/>
        <pt x="106" y="70" on="0"/>
        <pt x="40" y="207" on="0"/>
        <pt x="40" y="297" on="1"/>
        <pt x="40" y="371" on="0"/>
        <pt x="91" y="500" on="0"/>
        <pt x="179" y="595" on="0"/>
        <pt x="300" y="649" on="0"/>
        <pt x="369" y="649" on="1"/>
        <pt x="428" y="649" on="0"/>
        <pt x="478" y="628" on="1"/>
        <pt x="520" y="708" on="1"/>
        <pt x="549" y="701" on="1"/>
        <pt x="552" y="689" on="1"/>
        <pt x="511" y="613" on="1"/>
        <pt x="577" y="575" on="0"/>
        <pt x="652" y="435" on="0"/>
        <pt x="652" y="341" on="1"/>
        <pt x="652" y="266" on="0"/>
        <pt x="600" y="137" on="0"/>
        <pt x="510" y="42" on="0"/>
        <pt x="388" y="-12" on="0"/>
        <pt x="317" y="-12" on="1"/>
        <pt x="283" y="-12" on="0"/>
        <pt x="223" y="2" on="0"/>
        <pt x="196" y="14" on="1"/>
        <pt x="136" y="-98" on="1"/>
        <pt x="109" y="-92" on="1"/>
        <pt x="107" y="-82" on="1"/>
      </contour>
      <contour>
        <pt x="348" y="39" on="1"/>
        <pt x="396" y="39" on="0"/>
        <pt x="475" y="77" on="0"/>
        <pt x="532" y="146" on="0"/>
        <pt x="563" y="241" on="0"/>
        <pt x="563" y="299" on="1"/>
        <pt x="563" y="377" on="0"/>
        <pt x="514" y="500" on="0"/>
        <pt x="471" y="538" on="1"/>
        <pt x="229" y="78" on="1"/>
        <pt x="282" y="39" on="0"/>
      </contour>
      <contour>
        <pt x="126" y="329" on="1"/>
        <pt x="126" y="257" on="0"/>
        <pt x="166" y="140" on="0"/>
        <pt x="203" y="102" on="1"/>
        <pt x="442" y="559" on="1"/>
        <pt x="419" y="573" on="0"/>
        <pt x="364" y="589" on="0"/>
        <pt x="335" y="589" on="1"/>
        <pt x="288" y="589" on="0"/>
        <pt x="212" y="551" on="0"/>
        <pt x="156" y="482" on="0"/>
        <pt x="126" y="387" on="0"/>
      </contour>
    </TTGlyph>
    <TTGlyph name="Oslashacute" xMin="40" yMin="-98" xMax="652" yMax="841">
      <component glyphName="Oslash" x="0" y="0" flags="0x204"/>
      <component glyphName="acute.cap" x="130" y="0" flags="0x4"/>
    </TTGlyph>
    <TTGlyph name="Otilde" xMin="40" yMin="-12" xMax="652" yMax="820">
      <component glyphName="O" x="0" y="0" flags="0x204"/>
      <component glyphName="tilde.cap" x="143" y="0" flags="0x4"/>
    </TTGlyph>
    <TTGlyph name="P" xMin="63" yMin="-8" xMax="528" yMax="641">
      <contour>
        <pt x="77" y="640" on="1"/>
        <pt x="98" y="639" on="0"/>
        <pt x="118" y="638" on="1"/>
        <pt x="135" y="637" on="0"/>
        <pt x="174" y="637" on="0"/>
        <pt x="188" y="637" on="1"/>
        <pt x="198" y="637" on="0"/>
        <pt x="240" y="638" on="0"/>
        <pt x="261" y="639" on="1"/>
        <pt x="286" y="640" on="0"/>
        <pt x="314" y="641" on="1"/>
        <pt x="418" y="641" on="0"/>
        <pt x="528" y="550" on="0"/>
        <pt x="528" y="463" on="1"/>
        <pt x="528" y="420" on="0"/>
        <pt x="490" y="341" on="0"/>
        <pt x="426" y="280" on="0"/>
        <pt x="344" y="244" on="0"/>
        <pt x="299" y="244" on="1"/>
        <pt x="215" y="244" on="1"/>
        <pt x="213" y="146" on="1"/>
        <pt x="213" y="112" on="0"/>
        <pt x="216" y="71" on="0"/>
        <pt x="225" y="50" on="0"/>
        <pt x="242" y="44" on="0"/>
        <pt x="257" y="44" on="1"/>
        <pt x="265" y="44" on="0"/>
        <pt x="283" y="44" on="0"/>
        <pt x="291" y="45" on="1"/>
        <pt x="301" y="46" on="0"/>
        <pt x="311" y="47" on="1"/>
        <pt x="313" y="43" on="1"/>
        <pt x="304" y="-3" on="1"/>
        <pt x="304" y="-3" on="0"/>
        <pt x="285" y="-2" on="0"/>
        <pt x="257" y="-1" on="0"/>
        <pt x="225" y="0" on="0"/>
        <pt x="212" y="0" on="1"/>
        <pt x="192" y="0" on="0"/>
        <pt x="141" y="-2" on="0"/>
        <pt x="95" y="-4" on="0"/>
        <pt x="64" y="-7" on="0"/>
        <pt x="63" y="-8" on="1"/>
        <pt x="70" y="38" on="1"/>
        <pt x="92" y="42" on="0"/>
        <pt x="120" y="52" on="0"/>
        <pt x="136" y="70" on="0"/>
        <pt x="142" y="99" on="0"/>
        <pt x="142" y="120" on="1"/>
        <pt x="143" y="540" on="1"/>
        <pt x="143" y="572" on="0"/>
        <pt x="128" y="594" on="0"/>
        <pt x="106" y="594" on="1"/>
        <pt x="101" y="594" on="0"/>
        <pt x="89" y="593" on="0"/>
        <pt x="84" y="593" on="1"/>
        <pt x="78" y="592" on="0"/>
        <pt x="72" y="592" on="1"/>
        <pt x="70" y="596" on="1"/>
      </contour>
      <contour>
        <pt x="323" y="288" on="1"/>
        <pt x="444" y="308" on="0"/>
        <pt x="444" y="444" on="1"/>
        <pt x="444" y="521" on="0"/>
        <pt x="354" y="592" on="0"/>
        <pt x="256" y="592" on="1"/>
        <pt x="238" y="592" on="0"/>
        <pt x="230" y="589" on="0"/>
        <pt x="229" y="578" on="1"/>
        <pt x="224" y="511" on="0"/>
        <pt x="219" y="368" on="0"/>
        <pt x="217" y="303" on="1"/>
      </contour>
    </TTGlyph>
    <TTGlyph name="Q" xMin="40" yMin="-216" xMax="804" yMax="649">
      <contour>
        <pt x="317" y="-12" on="1"/>
        <pt x="255" y="-12" on="0"/>
        <pt x="154" y="33" on="0"/>
        <pt x="80" y="115" on="0"/>
        <pt x="40" y="228" on="0"/>
        <pt x="40" y="297" on="1"/>
        <pt x="40" y="371" on="0"/>
        <pt x="91" y="500" on="0"/>
        <pt x="179" y="595" on="0"/>
        <pt x="300" y="649" on="0"/>
        <pt x="369" y="649" on="1"/>
        <pt x="432" y="649" on="0"/>
        <pt x="536" y="604" on="0"/>
        <pt x="611" y="523" on="0"/>
        <pt x="652" y="409" on="0"/>
        <pt x="652" y="341" on="1"/>
        <pt x="652" y="279" on="0"/>
        <pt x="616" y="168" on="0"/>
        <pt x="551" y="79" on="0"/>
        <pt x="461" y="15" on="0"/>
        <pt x="407" y="0" on="1"/>
        <pt x="407" y="-5" on="1"/>
        <pt x="460" y="-41" on="0"/>
        <pt x="547" y="-91" on="0"/>
        <pt x="620" y="-123" on="0"/>
        <pt x="684" y="-137" on="0"/>
        <pt x="714" y="-137" on="1"/>
        <pt x="749" y="-137" on="0"/>
        <pt x="772" y="-132" on="1"/>
        <pt x="784" y="-130" on="0"/>
        <pt x="794" y="-127" on="1"/>
        <pt x="798" y="-130" on="1"/>
        <pt x="804" y="-148" on="1"/>
        <pt x="782" y="-167" on="0"/>
        <pt x="764" y="-182" on="1"/>
        <pt x="748" y="-195" on="0"/>
        <pt x="717" y="-216" on="0"/>
        <pt x="709" y="-216" on="1"/>
        <pt x="673" y="-216" on="0"/>
        <pt x="609" y="-201" on="0"/>
        <pt x="524" y="-157" on="0"/>
        <pt x="406" y="-77" on="0"/>
      </contour>
      <contour>
        <pt x="348" y="39" on="1"/>
        <pt x="396" y="39" on="0"/>
        <pt x="475" y="77" on="0"/>
        <pt x="532" y="146" on="0"/>
        <pt x="563" y="241" on="0"/>
        <pt x="563" y="299" on="1"/>
        <pt x="563" y="363" on="0"/>
        <pt x="530" y="470" on="0"/>
        <pt x="470" y="546" on="0"/>
        <pt x="386" y="589" on="0"/>
        <pt x="335" y="589" on="1"/>
        <pt x="288" y="589" on="0"/>
        <pt x="212" y="551" on="0"/>
        <pt x="156" y="482" on="0"/>
        <pt x="126" y="387" on="0"/>
        <pt x="126" y="329" on="1"/>
        <pt x="126" y="265" on="0"/>
        <pt x="159" y="158" on="0"/>
        <pt x="217" y="82" on="0"/>
        <pt x="299" y="39" on="0"/>
      </contour>
    </TTGlyph>
    <TTGlyph name="R" xMin="57" yMin="-16" xMax="603" yMax="641">
      <contour>
        <pt x="216" y="273" on="1"/>
        <pt x="213" y="124" on="1"/>
        <pt x="213" y="97" on="0"/>
        <pt x="217" y="65" on="0"/>
        <pt x="232" y="47" on="0"/>
        <pt x="261" y="42" on="0"/>
        <pt x="285" y="42" on="1"/>
        <pt x="287" y="38" on="1"/>
        <pt x="278" y="-4" on="1"/>
        <pt x="278" y="-4" on="0"/>
        <pt x="258" y="-3" on="0"/>
        <pt x="227" y="-2" on="0"/>
        <pt x="190" y="-1" on="0"/>
        <pt x="172" y="-1" on="1"/>
        <pt x="153" y="-1" on="0"/>
        <pt x="113" y="-1" on="0"/>
        <pt x="96" y="-2" on="1"/>
        <pt x="76" y="-3" on="0"/>
        <pt x="57" y="-4" on="1"/>
        <pt x="66" y="41" on="1"/>
        <pt x="89" y="44" on="0"/>
        <pt x="119" y="53" on="0"/>
        <pt x="136" y="70" on="0"/>
        <pt x="142" y="98" on="0"/>
        <pt x="142" y="120" on="1"/>
        <pt x="143" y="540" on="1"/>
        <pt x="143" y="572" on="0"/>
        <pt x="128" y="594" on="0"/>
        <pt x="106" y="594" on="1"/>
        <pt x="101" y="594" on="0"/>
        <pt x="89" y="593" on="0"/>
        <pt x="84" y="593" on="1"/>
        <pt x="78" y="592" on="0"/>
        <pt x="72" y="592" on="1"/>
        <pt x="70" y="596" on="1"/>
        <pt x="77" y="640" on="1"/>
        <pt x="98" y="639" on="0"/>
        <pt x="118" y="638" on="1"/>
        <pt x="135" y="637" on="0"/>
        <pt x="174" y="637" on="0"/>
        <pt x="188" y="637" on="1"/>
        <pt x="201" y="637" on="0"/>
        <pt x="242" y="638" on="0"/>
        <pt x="262" y="639" on="1"/>
        <pt x="285" y="640" on="0"/>
        <pt x="311" y="641" on="1"/>
        <pt x="405" y="641" on="0"/>
        <pt x="512" y="557" on="0"/>
        <pt x="512" y="484" on="1"/>
        <pt x="512" y="424" on="0"/>
        <pt x="435" y="324" on="0"/>
        <pt x="365" y="292" on="1"/>
        <pt x="475" y="118" on="1"/>
        <pt x="490" y="94" on="0"/>
        <pt x="517" y="62" on="0"/>
        <pt x="546" y="42" on="0"/>
        <pt x="579" y="33" on="0"/>
        <pt x="599" y="33" on="1"/>
        <pt x="603" y="29" on="1"/>
        <pt x="597" y="-5" on="1"/>
        <pt x="512" y="-16" on="1"/>
        <pt x="487" y="-16" on="0"/>
        <pt x="430" y="35" on="0"/>
        <pt x="406" y="79" on="1"/>
        <pt x="299" y="273" on="1"/>
      </contour>
      <contour>
        <pt x="321" y="319" on="1"/>
        <pt x="351" y="329" on="0"/>
        <pt x="375" y="348" on="1"/>
        <pt x="395" y="365" on="0"/>
        <pt x="429" y="421" on="0"/>
        <pt x="429" y="466" on="1"/>
        <pt x="429" y="598" on="0"/>
        <pt x="246" y="598" on="1"/>
        <pt x="235" y="598" on="0"/>
        <pt x="229" y="589" on="0"/>
        <pt x="228" y="575" on="1"/>
        <pt x="226" y="535" on="0"/>
        <pt x="222" y="468" on="0"/>
        <pt x="220" y="409" on="0"/>
        <pt x="218" y="355" on="0"/>
        <pt x="218" y="329" on="1"/>
      </contour>
    </TTGlyph>
    <TTGlyph name="Racute" xMin="57" yMin="-16" xMax="603" yMax="841">
      <component glyphName="R" x="0" y="0" flags="0x204"/>
      <component glyphName="acute.cap" x="116" y="0" flags="0x4"/>
    </TTGlyph>
    <TTGlyph name="Rcaron" xMin="57" yMin="-16" xMax="603" yMax="838">
      <component glyphName="R" x="0" y="0" flags="0x204"/>
      <component glyphName="caron.cap" x="106" y="0" flags="0x4"/>
    </TTGlyph>
    <TTGlyph name="Rcommaaccent" xMin="57" yMin="-293" xMax="603" yMax="641">
      <component glyphName="R" x="0" y="0" flags="0x204"/>
      <component glyphName="commaaccent" x="127" y="0" flags="0x4"/>
    </TTGlyph>
    <TTGlyph name="S" xMin="57" yMin="-12" xMax="466" yMax="649">
      <contour>
        <pt x="219" y="-12" on="1"/>
        <pt x="184" y="-12" on="0"/>
        <pt x="125" y="-2" on="0"/>
        <pt x="105" y="5" on="1"/>
        <pt x="80" y="12" on="0"/>
        <pt x="62" y="22" on="1"/>
        <pt x="57" y="32" on="1"/>
        <pt x="60" y="56" on="0"/>
        <pt x="63" y="83" on="1"/>
        <pt x="65" y="106" on="0"/>
        <pt x="69" y="169" on="0"/>
        <pt x="69" y="206" on="1"/>
        <pt x="114" y="211" on="1"/>
        <pt x="114" y="157" on="0"/>
        <pt x="124" y="89" on="0"/>
        <pt x="153" y="51" on="0"/>
        <pt x="203" y="37" on="0"/>
        <pt x="244" y="37" on="1"/>
        <pt x="307" y="37" on="0"/>
        <pt x="383" y="96" on="0"/>
        <pt x="383" y="147" on="1"/>
        <pt x="383" y="171" on="0"/>
        <pt x="357" y="210" on="0"/>
        <pt x="315" y="243" on="0"/>
        <pt x="260" y="273" on="0"/>
        <pt x="231" y="288" on="1"/>
        <pt x="201" y="304" on="0"/>
        <pt x="143" y="338" on="0"/>
        <pt x="96" y="379" on="0"/>
        <pt x="68" y="430" on="0"/>
        <pt x="68" y="463" on="1"/>
        <pt x="68" y="502" on="0"/>
        <pt x="103" y="570" on="0"/>
        <pt x="165" y="620" on="0"/>
        <pt x="249" y="649" on="0"/>
        <pt x="298" y="649" on="1"/>
        <pt x="331" y="649" on="0"/>
        <pt x="388" y="641" on="0"/>
        <pt x="408" y="636" on="1"/>
        <pt x="432" y="631" on="0"/>
        <pt x="451" y="624" on="1"/>
        <pt x="454" y="618" on="1"/>
        <pt x="449" y="595" on="0"/>
        <pt x="445" y="568" on="1"/>
        <pt x="441" y="545" on="0"/>
        <pt x="434" y="484" on="0"/>
        <pt x="432" y="449" on="1"/>
        <pt x="393" y="445" on="1"/>
        <pt x="387" y="450" on="1"/>
        <pt x="387" y="456" on="0"/>
        <pt x="388" y="464" on="1"/>
        <pt x="389" y="471" on="0"/>
        <pt x="390" y="490" on="0"/>
        <pt x="390" y="502" on="1"/>
        <pt x="390" y="554" on="0"/>
        <pt x="338" y="595" on="0"/>
        <pt x="271" y="595" on="1"/>
        <pt x="216" y="595" on="0"/>
        <pt x="145" y="541" on="0"/>
        <pt x="145" y="499" on="1"/>
        <pt x="145" y="476" on="0"/>
        <pt x="168" y="439" on="0"/>
        <pt x="205" y="407" on="0"/>
        <pt x="254" y="379" on="0"/>
        <pt x="281" y="365" on="1"/>
        <pt x="314" y="348" on="0"/>
        <pt x="380" y="313" on="0"/>
        <pt x="433" y="270" on="0"/>
        <pt x="466" y="217" on="0"/>
        <pt x="466" y="183" on="1"/>
        <pt x="466" y="140" on="0"/>
        <pt x="430" y="69" on="0"/>
        <pt x="364" y="17" on="0"/>
        <pt x="273" y="-12" on="0"/>
      </contour>
    </TTGlyph>
    <TTGlyph name="Sacute" xMin="57" yMin="-12" xMax="466" yMax="841">
      <component glyphName="S" x="0" y="0" flags="0x204"/>
      <component glyphName="acute.cap" x="73" y="0" flags="0x4"/>
    </TTGlyph>
    <TTGlyph name="Scaron" xMin="57" yMin="-12" xMax="466" yMax="840">
      <component glyphName="S" x="0" y="0" flags="0x204"/>
      <component glyphName="caron.cap" x="63" y="2" flags="0x4"/>
    </TTGlyph>
    <TTGlyph name="Scedilla" xMin="57" yMin="-233" xMax="466" yMax="649">
      <contour>
        <pt x="219" y="-12" on="1"/>
        <pt x="184" y="-12" on="0"/>
        <pt x="125" y="-2" on="0"/>
        <pt x="105" y="5" on="1"/>
        <pt x="80" y="12" on="0"/>
        <pt x="62" y="22" on="1"/>
        <pt x="57" y="32" on="1"/>
        <pt x="60" y="56" on="0"/>
        <pt x="63" y="83" on="1"/>
        <pt x="65" y="106" on="0"/>
        <pt x="69" y="169" on="0"/>
        <pt x="69" y="206" on="1"/>
        <pt x="114" y="211" on="1"/>
        <pt x="114" y="157" on="0"/>
        <pt x="124" y="89" on="0"/>
        <pt x="153" y="51" on="0"/>
        <pt x="203" y="37" on="0"/>
        <pt x="244" y="37" on="1"/>
        <pt x="307" y="37" on="0"/>
        <pt x="383" y="96" on="0"/>
        <pt x="383" y="147" on="1"/>
        <pt x="383" y="171" on="0"/>
        <pt x="357" y="210" on="0"/>
        <pt x="315" y="243" on="0"/>
        <pt x="260" y="273" on="0"/>
        <pt x="231" y="288" on="1"/>
        <pt x="201" y="304" on="0"/>
        <pt x="143" y="338" on="0"/>
        <pt x="96" y="379" on="0"/>
        <pt x="68" y="430" on="0"/>
        <pt x="68" y="463" on="1"/>
        <pt x="68" y="502" on="0"/>
        <pt x="103" y="570" on="0"/>
        <pt x="165" y="620" on="0"/>
        <pt x="249" y="649" on="0"/>
        <pt x="298" y="649" on="1"/>
        <pt x="331" y="649" on="0"/>
        <pt x="388" y="641" on="0"/>
        <pt x="408" y="636" on="1"/>
        <pt x="432" y="631" on="0"/>
        <pt x="451" y="624" on="1"/>
        <pt x="454" y="618" on="1"/>
        <pt x="449" y="595" on="0"/>
        <pt x="445" y="568" on="1"/>
        <pt x="441" y="545" on="0"/>
        <pt x="434" y="484" on="0"/>
        <pt x="432" y="449" on="1"/>
        <pt x="393" y="445" on="1"/>
        <pt x="387" y="450" on="1"/>
        <pt x="387" y="456" on="0"/>
        <pt x="388" y="464" on="1"/>
        <pt x="389" y="471" on="0"/>
        <pt x="390" y="490" on="0"/>
        <pt x="390" y="502" on="1"/>
        <pt x="390" y="554" on="0"/>
        <pt x="338" y="595" on="0"/>
        <pt x="271" y="595" on="1"/>
        <pt x="216" y="595" on="0"/>
        <pt x="145" y="541" on="0"/>
        <pt x="145" y="499" on="1"/>
        <pt x="145" y="476" on="0"/>
        <pt x="168" y="439" on="0"/>
        <pt x="205" y="407" on="0"/>
        <pt x="254" y="379" on="0"/>
        <pt x="281" y="365" on="1"/>
        <pt x="314" y="348" on="0"/>
        <pt x="380" y="313" on="0"/>
        <pt x="433" y="270" on="0"/>
        <pt x="466" y="217" on="0"/>
        <pt x="466" y="183" on="1"/>
        <pt x="466" y="145" on="0"/>
        <pt x="438" y="81" on="0"/>
        <pt x="386" y="31" on="0"/>
        <pt x="314" y="-2" on="0"/>
        <pt x="270" y="-8" on="1"/>
        <pt x="256" y="-50" on="1"/>
        <pt x="268" y="-59" on="0"/>
        <pt x="298" y="-78" on="0"/>
        <pt x="324" y="-100" on="0"/>
        <pt x="341" y="-125" on="0"/>
        <pt x="341" y="-139" on="1"/>
        <pt x="341" y="-159" on="0"/>
        <pt x="319" y="-193" on="0"/>
        <pt x="284" y="-218" on="0"/>
        <pt x="242" y="-233" on="0"/>
        <pt x="221" y="-233" on="1"/>
        <pt x="210" y="-233" on="0"/>
        <pt x="186" y="-228" on="0"/>
        <pt x="166" y="-219" on="0"/>
        <pt x="153" y="-206" on="0"/>
        <pt x="153" y="-197" on="1"/>
        <pt x="153" y="-187" on="0"/>
        <pt x="170" y="-153" on="0"/>
        <pt x="178" y="-141" on="1"/>
        <pt x="187" y="-141" on="1"/>
        <pt x="188" y="-169" on="0"/>
        <pt x="218" y="-198" on="0"/>
        <pt x="242" y="-198" on="1"/>
        <pt x="262" y="-198" on="0"/>
        <pt x="290" y="-177" on="0"/>
        <pt x="290" y="-160" on="1"/>
        <pt x="290" y="-151" on="0"/>
        <pt x="275" y="-132" on="0"/>
        <pt x="250" y="-112" on="0"/>
        <pt x="220" y="-94" on="0"/>
        <pt x="205" y="-85" on="1"/>
        <pt x="227" y="-12" on="1"/>
        <pt x="219" y="-12" on="1"/>
      </contour>
    </TTGlyph>
    <TTGlyph name="Scircumflex" xMin="57" yMin="-12" xMax="466" yMax="846">
      <component glyphName="S" x="0" y="0" flags="0x204"/>
      <component glyphName="circumflex.cap" x="94" y="0" flags="0x4"/>
    </TTGlyph>
    <TTGlyph name="Scommaaccent" xMin="57" yMin="-293" xMax="466" yMax="649">
      <component glyphName="S" x="0" y="0" flags="0x204"/>
      <component glyphName="commaaccent" x="60" y="0" flags="0x4"/>
    </TTGlyph>
    <TTGlyph name="T" xMin="9" yMin="-4" xMax="535" yMax="649">
      <contour>
        <pt x="233" y="598" on="1"/>
        <pt x="174" y="595" on="0"/>
        <pt x="109" y="588" on="0"/>
        <pt x="75" y="564" on="0"/>
        <pt x="62" y="516" on="0"/>
        <pt x="56" y="472" on="1"/>
        <pt x="9" y="468" on="1"/>
        <pt x="12" y="494" on="0"/>
        <pt x="15" y="523" on="1"/>
        <pt x="17" y="548" on="0"/>
        <pt x="22" y="609" on="0"/>
        <pt x="24" y="641" on="1"/>
        <pt x="33" y="649" on="1"/>
        <pt x="116" y="638" on="1"/>
        <pt x="426" y="638" on="1"/>
        <pt x="511" y="649" on="1"/>
        <pt x="520" y="641" on="1"/>
        <pt x="521" y="609" on="0"/>
        <pt x="527" y="549" on="0"/>
        <pt x="529" y="525" on="1"/>
        <pt x="532" y="497" on="0"/>
        <pt x="535" y="472" on="1"/>
        <pt x="488" y="468" on="1"/>
        <pt x="480" y="513" on="0"/>
        <pt x="467" y="563" on="0"/>
        <pt x="434" y="588" on="0"/>
        <pt x="373" y="595" on="0"/>
        <pt x="319" y="598" on="1"/>
        <pt x="316" y="568" on="0"/>
        <pt x="310" y="454" on="0"/>
        <pt x="306" y="317" on="0"/>
        <pt x="303" y="173" on="0"/>
        <pt x="303" y="112" on="1"/>
        <pt x="303" y="75" on="0"/>
        <pt x="329" y="44" on="0"/>
        <pt x="360" y="44" on="1"/>
        <pt x="373" y="44" on="0"/>
        <pt x="394" y="44" on="0"/>
        <pt x="401" y="45" on="1"/>
        <pt x="409" y="46" on="0"/>
        <pt x="415" y="47" on="1"/>
        <pt x="418" y="43" on="1"/>
        <pt x="409" y="-3" on="1"/>
        <pt x="380" y="-3" on="0"/>
        <pt x="353" y="-2" on="1"/>
        <pt x="330" y="-1" on="0"/>
        <pt x="279" y="0" on="0"/>
        <pt x="262" y="0" on="1"/>
        <pt x="243" y="0" on="0"/>
        <pt x="196" y="-1" on="0"/>
        <pt x="175" y="-2" on="1"/>
        <pt x="150" y="-3" on="0"/>
        <pt x="125" y="-4" on="1"/>
        <pt x="133" y="39" on="1"/>
        <pt x="168" y="42" on="0"/>
        <pt x="208" y="51" on="0"/>
        <pt x="228" y="76" on="0"/>
        <pt x="233" y="122" on="0"/>
        <pt x="233" y="162" on="1"/>
      </contour>
    </TTGlyph>
    <TTGlyph name="Tbar" xMin="9" yMin="-4" xMax="535" yMax="649">
      <contour>
        <pt x="233" y="299" on="1"/>
        <pt x="216" y="299" on="0"/>
        <pt x="182" y="298" on="0"/>
        <pt x="169" y="298" on="1"/>
        <pt x="140" y="298" on="1"/>
        <pt x="131" y="307" on="1"/>
        <pt x="138" y="346" on="1"/>
        <pt x="152" y="345" on="0"/>
        <pt x="168" y="345" on="1"/>
        <pt x="233" y="345" on="1"/>
        <pt x="233" y="598" on="1"/>
        <pt x="174" y="595" on="0"/>
        <pt x="109" y="588" on="0"/>
        <pt x="75" y="564" on="0"/>
        <pt x="62" y="516" on="0"/>
        <pt x="56" y="472" on="1"/>
        <pt x="9" y="468" on="1"/>
        <pt x="12" y="494" on="0"/>
        <pt x="15" y="523" on="1"/>
        <pt x="17" y="548" on="0"/>
        <pt x="22" y="609" on="0"/>
        <pt x="24" y="641" on="1"/>
        <pt x="33" y="649" on="1"/>
        <pt x="116" y="638" on="1"/>
        <pt x="426" y="638" on="1"/>
        <pt x="511" y="649" on="1"/>
        <pt x="520" y="641" on="1"/>
        <pt x="521" y="609" on="0"/>
        <pt x="527" y="549" on="0"/>
        <pt x="529" y="525" on="1"/>
        <pt x="532" y="497" on="0"/>
        <pt x="535" y="472" on="1"/>
        <pt x="488" y="468" on="1"/>
        <pt x="480" y="513" on="0"/>
        <pt x="467" y="563" on="0"/>
        <pt x="434" y="588" on="0"/>
        <pt x="373" y="595" on="0"/>
        <pt x="319" y="598" on="1"/>
        <pt x="315" y="563" on="0"/>
        <pt x="308" y="426" on="0"/>
        <pt x="306" y="345" on="1"/>
        <pt x="320" y="346" on="0"/>
        <pt x="348" y="347" on="0"/>
        <pt x="359" y="348" on="1"/>
        <pt x="371" y="349" on="0"/>
        <pt x="383" y="350" on="1"/>
        <pt x="396" y="337" on="1"/>
        <pt x="392" y="300" on="1"/>
        <pt x="305" y="299" on="1"/>
        <pt x="304" y="250" on="0"/>
        <pt x="303" y="154" on="0"/>
        <pt x="303" y="112" on="1"/>
        <pt x="303" y="75" on="0"/>
        <pt x="329" y="44" on="0"/>
        <pt x="360" y="44" on="1"/>
        <pt x="373" y="44" on="0"/>
        <pt x="394" y="44" on="0"/>
        <pt x="401" y="45" on="1"/>
        <pt x="409" y="46" on="0"/>
        <pt x="415" y="47" on="1"/>
        <pt x="418" y="43" on="1"/>
        <pt x="409" y="-3" on="1"/>
        <pt x="380" y="-3" on="0"/>
        <pt x="353" y="-2" on="1"/>
        <pt x="330" y="-1" on="0"/>
        <pt x="279" y="0" on="0"/>
        <pt x="262" y="0" on="1"/>
        <pt x="243" y="0" on="0"/>
        <pt x="196" y="-1" on="0"/>
        <pt x="175" y="-2" on="1"/>
        <pt x="150" y="-3" on="0"/>
        <pt x="125" y="-4" on="1"/>
        <pt x="133" y="39" on="1"/>
        <pt x="168" y="42" on="0"/>
        <pt x="208" y="51" on="0"/>
        <pt x="228" y="76" on="0"/>
        <pt x="233" y="122" on="0"/>
        <pt x="233" y="162" on="1"/>
      </contour>
    </TTGlyph>
    <TTGlyph name="Tcaron" xMin="9" yMin="-4" xMax="535" yMax="838">
      <component glyphName="T" x="0" y="0" flags="0x204"/>
      <component glyphName="caron.cap" x="77" y="0" flags="0x4"/>
    </TTGlyph>
    <TTGlyph name="Tcedilla" xMin="9" yMin="-233" xMax="535" yMax="649">
      <contour>
        <pt x="253" y="0" on="1"/>
        <pt x="234" y="0" on="0"/>
        <pt x="190" y="-1" on="0"/>
        <pt x="170" y="-2" on="1"/>
        <pt x="147" y="-3" on="0"/>
        <pt x="125" y="-4" on="1"/>
        <pt x="133" y="39" on="1"/>
        <pt x="168" y="42" on="0"/>
        <pt x="208" y="51" on="0"/>
        <pt x="228" y="76" on="0"/>
        <pt x="233" y="122" on="0"/>
        <pt x="233" y="162" on="1"/>
        <pt x="233" y="598" on="1"/>
        <pt x="174" y="595" on="0"/>
        <pt x="109" y="588" on="0"/>
        <pt x="75" y="564" on="0"/>
        <pt x="62" y="516" on="0"/>
        <pt x="56" y="472" on="1"/>
        <pt x="9" y="468" on="1"/>
        <pt x="12" y="494" on="0"/>
        <pt x="15" y="523" on="1"/>
        <pt x="17" y="548" on="0"/>
        <pt x="22" y="609" on="0"/>
        <pt x="24" y="641" on="1"/>
        <pt x="33" y="649" on="1"/>
        <pt x="116" y="638" on="1"/>
        <pt x="426" y="638" on="1"/>
        <pt x="511" y="649" on="1"/>
        <pt x="520" y="641" on="1"/>
        <pt x="521" y="609" on="0"/>
        <pt x="527" y="549" on="0"/>
        <pt x="529" y="525" on="1"/>
        <pt x="532" y="497" on="0"/>
        <pt x="535" y="472" on="1"/>
        <pt x="488" y="468" on="1"/>
        <pt x="480" y="513" on="0"/>
        <pt x="467" y="563" on="0"/>
        <pt x="434" y="588" on="0"/>
        <pt x="373" y="595" on="0"/>
        <pt x="319" y="598" on="1"/>
        <pt x="316" y="568" on="0"/>
        <pt x="310" y="454" on="0"/>
        <pt x="306" y="317" on="0"/>
        <pt x="303" y="173" on="0"/>
        <pt x="303" y="112" on="1"/>
        <pt x="303" y="75" on="0"/>
        <pt x="329" y="44" on="0"/>
        <pt x="360" y="44" on="1"/>
        <pt x="373" y="44" on="0"/>
        <pt x="394" y="44" on="0"/>
        <pt x="401" y="45" on="1"/>
        <pt x="409" y="46" on="0"/>
        <pt x="415" y="47" on="1"/>
        <pt x="418" y="43" on="1"/>
        <pt x="409" y="-3" on="1"/>
        <pt x="389" y="-3" on="0"/>
        <pt x="370" y="-2" on="1"/>
        <pt x="353" y="-1" on="0"/>
        <pt x="313" y="-1" on="0"/>
        <pt x="295" y="0" on="1"/>
        <pt x="278" y="-50" on="1"/>
        <pt x="290" y="-59" on="0"/>
        <pt x="320" y="-78" on="0"/>
        <pt x="346" y="-100" on="0"/>
        <pt x="363" y="-125" on="0"/>
        <pt x="363" y="-139" on="1"/>
        <pt x="363" y="-159" on="0"/>
        <pt x="341" y="-193" on="0"/>
        <pt x="306" y="-218" on="0"/>
        <pt x="264" y="-233" on="0"/>
        <pt x="243" y="-233" on="1"/>
        <pt x="232" y="-233" on="0"/>
        <pt x="208" y="-228" on="0"/>
        <pt x="188" y="-219" on="0"/>
        <pt x="175" y="-206" on="0"/>
        <pt x="175" y="-197" on="1"/>
        <pt x="175" y="-187" on="0"/>
        <pt x="192" y="-153" on="0"/>
        <pt x="200" y="-141" on="1"/>
        <pt x="209" y="-141" on="1"/>
        <pt x="210" y="-169" on="0"/>
        <pt x="240" y="-198" on="0"/>
        <pt x="264" y="-198" on="1"/>
        <pt x="284" y="-198" on="0"/>
        <pt x="312" y="-177" on="0"/>
        <pt x="312" y="-160" on="1"/>
        <pt x="312" y="-151" on="0"/>
        <pt x="297" y="-132" on="0"/>
        <pt x="272" y="-112" on="0"/>
        <pt x="242" y="-94" on="0"/>
        <pt x="227" y="-85" on="1"/>
      </contour>
    </TTGlyph>
    <TTGlyph name="Thorn" xMin="56" yMin="-12" xMax="521" yMax="646">
      <contour>
        <pt x="227" y="544" on="1"/>
        <pt x="226" y="528" on="0"/>
        <pt x="224" y="511" on="0"/>
        <pt x="225" y="503" on="1"/>
        <pt x="307" y="503" on="1"/>
        <pt x="411" y="503" on="0"/>
        <pt x="521" y="419" on="0"/>
        <pt x="521" y="340" on="1"/>
        <pt x="521" y="301" on="0"/>
        <pt x="482" y="232" on="0"/>
        <pt x="417" y="179" on="0"/>
        <pt x="331" y="148" on="0"/>
        <pt x="284" y="148" on="1"/>
        <pt x="213" y="148" on="1"/>
        <pt x="213" y="112" on="1"/>
        <pt x="213" y="71" on="0"/>
        <pt x="231" y="44" on="0"/>
        <pt x="257" y="44" on="1"/>
        <pt x="266" y="44" on="0"/>
        <pt x="284" y="44" on="0"/>
        <pt x="292" y="45" on="1"/>
        <pt x="301" y="46" on="0"/>
        <pt x="310" y="47" on="1"/>
        <pt x="312" y="43" on="1"/>
        <pt x="303" y="-3" on="1"/>
        <pt x="279" y="-3" on="0"/>
        <pt x="255" y="-2" on="1"/>
        <pt x="235" y="-1" on="0"/>
        <pt x="189" y="0" on="0"/>
        <pt x="172" y="0" on="1"/>
        <pt x="152" y="0" on="0"/>
        <pt x="112" y="-4" on="0"/>
        <pt x="95" y="-6" on="1"/>
        <pt x="75" y="-9" on="0"/>
        <pt x="56" y="-12" on="1"/>
        <pt x="62" y="34" on="1"/>
        <pt x="109" y="43" on="0"/>
        <pt x="142" y="78" on="0"/>
        <pt x="142" y="120" on="1"/>
        <pt x="143" y="540" on="1"/>
        <pt x="143" y="572" on="0"/>
        <pt x="129" y="594" on="0"/>
        <pt x="106" y="594" on="1"/>
        <pt x="100" y="594" on="0"/>
        <pt x="86" y="593" on="0"/>
        <pt x="79" y="593" on="1"/>
        <pt x="71" y="592" on="0"/>
        <pt x="64" y="592" on="1"/>
        <pt x="62" y="596" on="1"/>
        <pt x="69" y="640" on="1"/>
        <pt x="91" y="639" on="0"/>
        <pt x="113" y="638" on="1"/>
        <pt x="132" y="637" on="0"/>
        <pt x="172" y="637" on="0"/>
        <pt x="188" y="637" on="1"/>
        <pt x="205" y="637" on="0"/>
        <pt x="246" y="639" on="0"/>
        <pt x="263" y="641" on="1"/>
        <pt x="283" y="643" on="0"/>
        <pt x="303" y="646" on="1"/>
        <pt x="299" y="601" on="1"/>
        <pt x="257" y="596" on="0"/>
        <pt x="228" y="572" on="0"/>
      </contour>
      <contour>
        <pt x="222" y="446" on="1"/>
        <pt x="218" y="359" on="0"/>
        <pt x="215" y="247" on="0"/>
        <pt x="214" y="209" on="1"/>
        <pt x="223" y="206" on="0"/>
        <pt x="249" y="200" on="0"/>
        <pt x="277" y="196" on="0"/>
        <pt x="305" y="192" on="0"/>
        <pt x="316" y="192" on="1"/>
        <pt x="437" y="207" on="0"/>
        <pt x="437" y="321" on="1"/>
        <pt x="437" y="390" on="0"/>
        <pt x="347" y="454" on="0"/>
        <pt x="249" y="454" on="1"/>
        <pt x="232" y="454" on="0"/>
        <pt x="224" y="451" on="0"/>
      </contour>
    </TTGlyph>
    <TTGlyph name="U" xMin="35" yMin="-12" xMax="648" yMax="646">
      <contour>
        <pt x="184" y="250" on="1"/>
        <pt x="184" y="150" on="0"/>
        <pt x="270" y="45" on="0"/>
        <pt x="351" y="45" on="1"/>
        <pt x="433" y="45" on="0"/>
        <pt x="519" y="131" on="0"/>
        <pt x="519" y="214" on="1"/>
        <pt x="519" y="227" on="0"/>
        <pt x="518" y="269" on="0"/>
        <pt x="517" y="320" on="0"/>
        <pt x="516" y="376" on="0"/>
        <pt x="516" y="403" on="1"/>
        <pt x="514" y="467" on="0"/>
        <pt x="513" y="540" on="1"/>
        <pt x="511" y="575" on="0"/>
        <pt x="498" y="594" on="0"/>
        <pt x="476" y="594" on="1"/>
        <pt x="471" y="594" on="0"/>
        <pt x="457" y="593" on="0"/>
        <pt x="450" y="593" on="1"/>
        <pt x="442" y="592" on="0"/>
        <pt x="433" y="592" on="1"/>
        <pt x="431" y="596" on="1"/>
        <pt x="438" y="640" on="1"/>
        <pt x="459" y="639" on="0"/>
        <pt x="480" y="638" on="1"/>
        <pt x="497" y="637" on="0"/>
        <pt x="537" y="637" on="0"/>
        <pt x="551" y="637" on="1"/>
        <pt x="567" y="637" on="0"/>
        <pt x="602" y="639" on="0"/>
        <pt x="616" y="641" on="1"/>
        <pt x="633" y="643" on="0"/>
        <pt x="648" y="646" on="1"/>
        <pt x="644" y="601" on="1"/>
        <pt x="622" y="598" on="0"/>
        <pt x="595" y="591" on="0"/>
        <pt x="580" y="579" on="0"/>
        <pt x="575" y="559" on="0"/>
        <pt x="575" y="544" on="1"/>
        <pt x="575" y="208" on="1"/>
        <pt x="575" y="102" on="0"/>
        <pt x="445" y="-12" on="0"/>
        <pt x="327" y="-12" on="1"/>
        <pt x="221" y="-12" on="0"/>
        <pt x="108" y="103" on="0"/>
        <pt x="108" y="209" on="1"/>
        <pt x="108" y="540" on="1"/>
        <pt x="108" y="572" on="0"/>
        <pt x="94" y="594" on="0"/>
        <pt x="71" y="594" on="1"/>
        <pt x="66" y="594" on="0"/>
        <pt x="54" y="593" on="0"/>
        <pt x="49" y="593" on="1"/>
        <pt x="43" y="592" on="0"/>
        <pt x="37" y="592" on="1"/>
        <pt x="35" y="596" on="1"/>
        <pt x="42" y="640" on="1"/>
        <pt x="63" y="639" on="0"/>
        <pt x="84" y="638" on="1"/>
        <pt x="101" y="637" on="0"/>
        <pt x="141" y="637" on="0"/>
        <pt x="155" y="637" on="1"/>
        <pt x="171" y="637" on="0"/>
        <pt x="208" y="639" on="0"/>
        <pt x="224" y="641" on="1"/>
        <pt x="242" y="643" on="0"/>
        <pt x="260" y="646" on="1"/>
        <pt x="256" y="601" on="1"/>
        <pt x="237" y="598" on="0"/>
        <pt x="213" y="591" on="0"/>
        <pt x="199" y="578" on="0"/>
        <pt x="193" y="558" on="0"/>
        <pt x="192" y="544" on="1"/>
        <pt x="184" y="250" on="1"/>
      </contour>
    </TTGlyph>
    <TTGlyph name="Uacute" xMin="35" yMin="-12" xMax="648" yMax="841">
      <component glyphName="U" x="0" y="0" flags="0x204"/>
      <component glyphName="acute.cap" x="158" y="0" flags="0x4"/>
    </TTGlyph>
    <TTGlyph name="Ubreve" xMin="35" yMin="-12" xMax="648" yMax="818">
      <component glyphName="U" x="0" y="0" flags="0x204"/>
      <component glyphName="breve.cap" x="132" y="0" flags="0x4"/>
    </TTGlyph>
    <TTGlyph name="Ucircumflex" xMin="35" yMin="-12" xMax="648" yMax="846">
      <component glyphName="U" x="0" y="0" flags="0x204"/>
      <component glyphName="circumflex.cap" x="147" y="0" flags="0x4"/>
    </TTGlyph>
    <TTGlyph name="Udieresis" xMin="35" yMin="-12" xMax="648" yMax="818">
      <component glyphName="U" x="0" y="0" flags="0x204"/>
      <component glyphName="dieresis.cap" x="148" y="0" flags="0x4"/>
    </TTGlyph>
    <TTGlyph name="Ugrave" xMin="35" yMin="-12" xMax="648" yMax="841">
      <component glyphName="U" x="0" y="0" flags="0x204"/>
      <component glyphName="grave.cap" x="145" y="0" flags="0x4"/>
    </TTGlyph>
    <TTGlyph name="Uhungarumlaut" xMin="35" yMin="-12" xMax="648" yMax="837">
      <component glyphName="U" x="0" y="0" flags="0x204"/>
      <component glyphName="hungarumlaut.cap" x="161" y="0" flags="0x4"/>
    </TTGlyph>
    <TTGlyph name="Umacron" xMin="35" yMin="-12" xMax="648" yMax="778">
      <component glyphName="U" x="0" y="0" flags="0x204"/>
      <component glyphName="macron.cap" x="147" y="0" flags="0x4"/>
    </TTGlyph>
    <TTGlyph name="Uogonek" xMin="35" yMin="-241" xMax="648" yMax="646">
      <contour>
        <pt x="538" y="-178" on="1"/>
        <pt x="524" y="-191" on="0"/>
        <pt x="507" y="-203" on="1"/>
        <pt x="493" y="-214" on="0"/>
        <pt x="457" y="-235" on="0"/>
        <pt x="438" y="-241" on="1"/>
        <pt x="387" y="-241" on="0"/>
        <pt x="327" y="-191" on="0"/>
        <pt x="327" y="-147" on="1"/>
        <pt x="327" y="-119" on="0"/>
        <pt x="369" y="-53" on="0"/>
        <pt x="421" y="0" on="1"/>
        <pt x="379" y="-12" on="0"/>
        <pt x="327" y="-12" on="1"/>
        <pt x="221" y="-12" on="0"/>
        <pt x="108" y="103" on="0"/>
        <pt x="108" y="209" on="1"/>
        <pt x="108" y="540" on="1"/>
        <pt x="108" y="572" on="0"/>
        <pt x="94" y="594" on="0"/>
        <pt x="71" y="594" on="1"/>
        <pt x="66" y="594" on="0"/>
        <pt x="54" y="593" on="0"/>
        <pt x="49" y="593" on="1"/>
        <pt x="43" y="592" on="0"/>
        <pt x="37" y="592" on="1"/>
        <pt x="35" y="596" on="1"/>
        <pt x="42" y="640" on="1"/>
        <pt x="63" y="639" on="0"/>
        <pt x="84" y="638" on="1"/>
        <pt x="101" y="637" on="0"/>
        <pt x="141" y="637" on="0"/>
        <pt x="155" y="637" on="1"/>
        <pt x="171" y="637" on="0"/>
        <pt x="208" y="639" on="0"/>
        <pt x="224" y="641" on="1"/>
        <pt x="242" y="643" on="0"/>
        <pt x="260" y="646" on="1"/>
        <pt x="256" y="601" on="1"/>
        <pt x="237" y="598" on="0"/>
        <pt x="213" y="591" on="0"/>
        <pt x="199" y="578" on="0"/>
        <pt x="193" y="558" on="0"/>
        <pt x="192" y="544" on="1"/>
        <pt x="184" y="250" on="1"/>
        <pt x="184" y="150" on="0"/>
        <pt x="270" y="45" on="0"/>
        <pt x="351" y="45" on="1"/>
        <pt x="433" y="45" on="0"/>
        <pt x="519" y="131" on="0"/>
        <pt x="519" y="214" on="1"/>
        <pt x="519" y="227" on="0"/>
        <pt x="518" y="269" on="0"/>
        <pt x="517" y="320" on="0"/>
        <pt x="516" y="376" on="0"/>
        <pt x="516" y="403" on="1"/>
        <pt x="514" y="467" on="0"/>
        <pt x="513" y="540" on="1"/>
        <pt x="512" y="558" on="0"/>
        <pt x="508" y="579" on="0"/>
        <pt x="500" y="590" on="0"/>
        <pt x="487" y="594" on="0"/>
        <pt x="476" y="594" on="1"/>
        <pt x="471" y="594" on="0"/>
        <pt x="457" y="593" on="0"/>
        <pt x="450" y="593" on="1"/>
        <pt x="442" y="592" on="0"/>
        <pt x="433" y="592" on="1"/>
        <pt x="431" y="596" on="1"/>
        <pt x="438" y="640" on="1"/>
        <pt x="459" y="639" on="0"/>
        <pt x="480" y="638" on="1"/>
        <pt x="497" y="637" on="0"/>
        <pt x="537" y="637" on="0"/>
        <pt x="551" y="637" on="1"/>
        <pt x="567" y="637" on="0"/>
        <pt x="602" y="639" on="0"/>
        <pt x="616" y="641" on="1"/>
        <pt x="633" y="643" on="0"/>
        <pt x="648" y="646" on="1"/>
        <pt x="644" y="601" on="1"/>
        <pt x="622" y="598" on="0"/>
        <pt x="595" y="590" on="0"/>
        <pt x="580" y="578" on="0"/>
        <pt x="575" y="559" on="0"/>
        <pt x="575" y="544" on="1"/>
        <pt x="575" y="208" on="1"/>
        <pt x="575" y="108" on="0"/>
        <pt x="509" y="42" on="1"/>
        <pt x="473" y="6" on="0"/>
        <pt x="426" y="-44" on="0"/>
        <pt x="400" y="-81" on="0"/>
        <pt x="390" y="-112" on="0"/>
        <pt x="390" y="-128" on="1"/>
        <pt x="390" y="-152" on="0"/>
        <pt x="422" y="-182" on="0"/>
        <pt x="448" y="-182" on="1"/>
        <pt x="462" y="-182" on="0"/>
        <pt x="490" y="-176" on="0"/>
        <pt x="501" y="-171" on="1"/>
        <pt x="513" y="-166" on="0"/>
        <pt x="525" y="-159" on="1"/>
      </contour>
    </TTGlyph>
    <TTGlyph name="Uring" xMin="35" yMin="-12" xMax="648" yMax="838">
      <component glyphName="U" x="0" y="0" flags="0x204"/>
      <component glyphName="ring.cap" x="149" y="0" flags="0x4"/>
    </TTGlyph>
    <TTGlyph name="Utilde" xMin="35" yMin="-12" xMax="648" yMax="820">
      <component glyphName="U" x="0" y="0" flags="0x204"/>
      <component glyphName="tilde.cap" x="133" y="0" flags="0x4"/>
    </TTGlyph>
    <TTGlyph name="V" xMin="-9" yMin="-17" xMax="611" yMax="648">
      <contour>
        <pt x="85" y="536" on="1"/>
        <pt x="76" y="565" on="0"/>
        <pt x="32" y="592" on="0"/>
        <pt x="-7" y="593" on="1"/>
        <pt x="-9" y="597" on="1"/>
        <pt x="-2" y="640" on="1"/>
        <pt x="21" y="639" on="0"/>
        <pt x="43" y="638" on="1"/>
        <pt x="62" y="637" on="0"/>
        <pt x="101" y="637" on="0"/>
        <pt x="114" y="637" on="1"/>
        <pt x="134" y="637" on="0"/>
        <pt x="186" y="640" on="0"/>
        <pt x="209" y="642" on="1"/>
        <pt x="236" y="645" on="0"/>
        <pt x="264" y="648" on="1"/>
        <pt x="267" y="641" on="1"/>
        <pt x="263" y="602" on="1"/>
        <pt x="210" y="598" on="0"/>
        <pt x="174" y="582" on="0"/>
        <pt x="174" y="560" on="1"/>
        <pt x="174" y="554" on="0"/>
        <pt x="185" y="508" on="0"/>
        <pt x="202" y="440" on="0"/>
        <pt x="225" y="358" on="0"/>
        <pt x="237" y="316" on="1"/>
        <pt x="264" y="217" on="0"/>
        <pt x="300" y="97" on="1"/>
        <pt x="309" y="97" on="1"/>
        <pt x="322" y="130" on="0"/>
        <pt x="357" y="221" on="0"/>
        <pt x="394" y="318" on="0"/>
        <pt x="429" y="414" on="0"/>
        <pt x="458" y="494" on="0"/>
        <pt x="475" y="549" on="0"/>
        <pt x="475" y="557" on="1"/>
        <pt x="475" y="578" on="0"/>
        <pt x="443" y="597" on="0"/>
        <pt x="406" y="597" on="1"/>
        <pt x="354" y="597" on="1"/>
        <pt x="352" y="601" on="1"/>
        <pt x="358" y="644" on="1"/>
        <pt x="380" y="642" on="0"/>
        <pt x="405" y="640" on="1"/>
        <pt x="425" y="638" on="0"/>
        <pt x="476" y="637" on="0"/>
        <pt x="501" y="637" on="1"/>
        <pt x="519" y="637" on="0"/>
        <pt x="557" y="637" on="0"/>
        <pt x="574" y="638" on="1"/>
        <pt x="592" y="639" on="0"/>
        <pt x="611" y="640" on="1"/>
        <pt x="603" y="593" on="1"/>
        <pt x="588" y="592" on="0"/>
        <pt x="567" y="588" on="0"/>
        <pt x="553" y="577" on="0"/>
        <pt x="542" y="559" on="0"/>
        <pt x="537" y="545" on="1"/>
        <pt x="322" y="5" on="1"/>
        <pt x="258" y="-17" on="1"/>
        <pt x="232" y="69" on="0"/>
        <pt x="203" y="162" on="1"/>
        <pt x="178" y="242" on="0"/>
        <pt x="117" y="437" on="0"/>
      </contour>
    </TTGlyph>
    <TTGlyph name="W" xMin="-7" yMin="-17" xMax="931" yMax="648">
      <contour>
        <pt x="588" y="-17" on="1"/>
        <pt x="571" y="43" on="0"/>
        <pt x="551" y="113" on="1"/>
        <pt x="534" y="173" on="0"/>
        <pt x="489" y="324" on="0"/>
        <pt x="463" y="407" on="1"/>
        <pt x="457" y="407" on="1"/>
        <pt x="315" y="5" on="1"/>
        <pt x="251" y="-17" on="1"/>
        <pt x="226" y="69" on="0"/>
        <pt x="199" y="162" on="1"/>
        <pt x="176" y="242" on="0"/>
        <pt x="116" y="438" on="0"/>
        <pt x="84" y="536" on="1"/>
        <pt x="75" y="565" on="0"/>
        <pt x="32" y="592" on="0"/>
        <pt x="-6" y="593" on="1"/>
        <pt x="-6" y="594" on="0"/>
        <pt x="-7" y="596" on="0"/>
        <pt x="-7" y="597" on="1"/>
        <pt x="-1" y="640" on="1"/>
        <pt x="22" y="639" on="0"/>
        <pt x="43" y="638" on="1"/>
        <pt x="61" y="637" on="0"/>
        <pt x="99" y="637" on="0"/>
        <pt x="112" y="637" on="1"/>
        <pt x="138" y="637" on="0"/>
        <pt x="191" y="640" on="0"/>
        <pt x="211" y="642" on="1"/>
        <pt x="235" y="645" on="0"/>
        <pt x="257" y="648" on="1"/>
        <pt x="260" y="641" on="1"/>
        <pt x="256" y="602" on="1"/>
        <pt x="205" y="598" on="0"/>
        <pt x="170" y="582" on="0"/>
        <pt x="170" y="561" on="1"/>
        <pt x="170" y="553" on="0"/>
        <pt x="180" y="506" on="0"/>
        <pt x="197" y="438" on="0"/>
        <pt x="219" y="356" on="0"/>
        <pt x="231" y="314" on="1"/>
        <pt x="258" y="216" on="0"/>
        <pt x="293" y="97" on="1"/>
        <pt x="299" y="97" on="1"/>
        <pt x="440" y="481" on="1"/>
        <pt x="422" y="536" on="1"/>
        <pt x="412" y="566" on="0"/>
        <pt x="369" y="591" on="0"/>
        <pt x="332" y="593" on="1"/>
        <pt x="330" y="597" on="1"/>
        <pt x="337" y="640" on="1"/>
        <pt x="360" y="639" on="0"/>
        <pt x="381" y="638" on="1"/>
        <pt x="399" y="637" on="0"/>
        <pt x="437" y="637" on="0"/>
        <pt x="450" y="637" on="1"/>
        <pt x="473" y="637" on="0"/>
        <pt x="523" y="640" on="0"/>
        <pt x="545" y="642" on="1"/>
        <pt x="571" y="645" on="0"/>
        <pt x="595" y="648" on="1"/>
        <pt x="598" y="641" on="1"/>
        <pt x="594" y="602" on="1"/>
        <pt x="542" y="598" on="0"/>
        <pt x="507" y="582" on="0"/>
        <pt x="507" y="560" on="1"/>
        <pt x="507" y="554" on="0"/>
        <pt x="518" y="507" on="0"/>
        <pt x="535" y="440" on="0"/>
        <pt x="557" y="358" on="0"/>
        <pt x="569" y="316" on="1"/>
        <pt x="596" y="217" on="0"/>
        <pt x="631" y="97" on="1"/>
        <pt x="637" y="97" on="1"/>
        <pt x="649" y="131" on="0"/>
        <pt x="683" y="222" on="0"/>
        <pt x="719" y="320" on="0"/>
        <pt x="754" y="418" on="0"/>
        <pt x="782" y="499" on="0"/>
        <pt x="799" y="554" on="0"/>
        <pt x="799" y="562" on="1"/>
        <pt x="799" y="581" on="0"/>
        <pt x="767" y="597" on="0"/>
        <pt x="731" y="597" on="1"/>
        <pt x="681" y="597" on="1"/>
        <pt x="679" y="601" on="1"/>
        <pt x="686" y="644" on="1"/>
        <pt x="707" y="642" on="0"/>
        <pt x="731" y="640" on="1"/>
        <pt x="751" y="638" on="0"/>
        <pt x="801" y="637" on="0"/>
        <pt x="825" y="637" on="1"/>
        <pt x="842" y="637" on="0"/>
        <pt x="879" y="637" on="0"/>
        <pt x="895" y="638" on="1"/>
        <pt x="913" y="639" on="0"/>
        <pt x="931" y="640" on="1"/>
        <pt x="924" y="593" on="1"/>
        <pt x="909" y="592" on="0"/>
        <pt x="890" y="588" on="0"/>
        <pt x="876" y="578" on="0"/>
        <pt x="865" y="560" on="0"/>
        <pt x="860" y="545" on="1"/>
        <pt x="650" y="5" on="1"/>
      </contour>
    </TTGlyph>
    <TTGlyph name="Wacute" xMin="-7" yMin="-17" xMax="931" yMax="841">
      <component glyphName="W" x="0" y="0" flags="0x204"/>
      <component glyphName="acute.cap" x="277" y="0" flags="0x4"/>
    </TTGlyph>
    <TTGlyph name="Wcircumflex" xMin="-7" yMin="-17" xMax="931" yMax="846">
      <component glyphName="W" x="0" y="0" flags="0x204"/>
      <component glyphName="circumflex.cap" x="267" y="0" flags="0x4"/>
    </TTGlyph>
    <TTGlyph name="Wdieresis" xMin="-7" yMin="-17" xMax="931" yMax="818">
      <component glyphName="W" x="0" y="0" flags="0x204"/>
      <component glyphName="dieresis.cap" x="266" y="0" flags="0x4"/>
    </TTGlyph>
    <TTGlyph name="Wgrave" xMin="-7" yMin="-17" xMax="931" yMax="841">
      <component glyphName="W" x="0" y="0" flags="0x204"/>
      <component glyphName="grave.cap" x="264" y="0" flags="0x4"/>
    </TTGlyph>
    <TTGlyph name="X" xMin="12" yMin="-8" xMax="651" yMax="645">
      <contour>
        <pt x="291" y="318" on="1"/>
        <pt x="160" y="514" on="1"/>
        <pt x="135" y="551" on="0"/>
        <pt x="69" y="591" on="0"/>
        <pt x="23" y="597" on="1"/>
        <pt x="21" y="601" on="1"/>
        <pt x="27" y="640" on="1"/>
        <pt x="56" y="639" on="0"/>
        <pt x="82" y="638" on="1"/>
        <pt x="105" y="637" on="0"/>
        <pt x="154" y="637" on="0"/>
        <pt x="171" y="637" on="1"/>
        <pt x="200" y="637" on="0"/>
        <pt x="250" y="639" on="0"/>
        <pt x="268" y="641" on="1"/>
        <pt x="289" y="643" on="0"/>
        <pt x="306" y="645" on="1"/>
        <pt x="309" y="638" on="1"/>
        <pt x="306" y="603" on="1"/>
        <pt x="264" y="600" on="0"/>
        <pt x="228" y="584" on="0"/>
        <pt x="228" y="567" on="1"/>
        <pt x="228" y="555" on="0"/>
        <pt x="290" y="454" on="0"/>
        <pt x="341" y="377" on="1"/>
        <pt x="358" y="400" on="0"/>
        <pt x="403" y="459" on="0"/>
        <pt x="444" y="515" on="0"/>
        <pt x="472" y="560" on="0"/>
        <pt x="472" y="571" on="1"/>
        <pt x="472" y="585" on="0"/>
        <pt x="445" y="598" on="0"/>
        <pt x="414" y="601" on="1"/>
        <pt x="412" y="605" on="1"/>
        <pt x="418" y="644" on="1"/>
        <pt x="439" y="642" on="0"/>
        <pt x="459" y="640" on="1"/>
        <pt x="476" y="638" on="0"/>
        <pt x="514" y="637" on="0"/>
        <pt x="528" y="637" on="1"/>
        <pt x="542" y="637" on="0"/>
        <pt x="577" y="638" on="0"/>
        <pt x="591" y="639" on="1"/>
        <pt x="608" y="640" on="0"/>
        <pt x="625" y="641" on="1"/>
        <pt x="629" y="634" on="1"/>
        <pt x="623" y="597" on="1"/>
        <pt x="600" y="592" on="0"/>
        <pt x="568" y="578" on="0"/>
        <pt x="538" y="554" on="0"/>
        <pt x="508" y="519" on="0"/>
        <pt x="487" y="493" on="1"/>
        <pt x="366" y="340" on="1"/>
        <pt x="512" y="127" on="1"/>
        <pt x="539" y="88" on="0"/>
        <pt x="602" y="48" on="0"/>
        <pt x="649" y="44" on="1"/>
        <pt x="651" y="40" on="1"/>
        <pt x="644" y="-3" on="1"/>
        <pt x="621" y="-3" on="0"/>
        <pt x="599" y="-2" on="1"/>
        <pt x="580" y="-1" on="0"/>
        <pt x="537" y="0" on="0"/>
        <pt x="520" y="0" on="1"/>
        <pt x="499" y="0" on="0"/>
        <pt x="445" y="-2" on="0"/>
        <pt x="421" y="-4" on="1"/>
        <pt x="393" y="-6" on="0"/>
        <pt x="365" y="-8" on="1"/>
        <pt x="362" y="-1" on="1"/>
        <pt x="366" y="38" on="1"/>
        <pt x="406" y="40" on="0"/>
        <pt x="444" y="56" on="0"/>
        <pt x="444" y="73" on="1"/>
        <pt x="444" y="82" on="0"/>
        <pt x="434" y="103" on="0"/>
        <pt x="424" y="117" on="1"/>
        <pt x="315" y="281" on="1"/>
        <pt x="223" y="159" on="1"/>
        <pt x="194" y="120" on="0"/>
        <pt x="172" y="84" on="0"/>
        <pt x="172" y="70" on="1"/>
        <pt x="172" y="44" on="0"/>
        <pt x="230" y="40" on="1"/>
        <pt x="232" y="36" on="1"/>
        <pt x="225" y="-7" on="1"/>
        <pt x="204" y="-6" on="0"/>
        <pt x="184" y="-4" on="1"/>
        <pt x="167" y="-2" on="0"/>
        <pt x="129" y="0" on="0"/>
        <pt x="115" y="0" on="1"/>
        <pt x="100" y="0" on="0"/>
        <pt x="66" y="-1" on="0"/>
        <pt x="51" y="-2" on="1"/>
        <pt x="33" y="-3" on="0"/>
        <pt x="16" y="-4" on="1"/>
        <pt x="12" y="3" on="1"/>
        <pt x="19" y="44" on="1"/>
        <pt x="63" y="57" on="0"/>
        <pt x="136" y="126" on="0"/>
        <pt x="181" y="182" on="1"/>
      </contour>
    </TTGlyph>
    <TTGlyph name="Y" xMin="-19" yMin="-12" xMax="558" yMax="645">
      <contour>
        <pt x="163" y="567" on="1"/>
        <pt x="163" y="560" on="0"/>
        <pt x="179" y="516" on="0"/>
        <pt x="204" y="459" on="0"/>
        <pt x="233" y="396" on="0"/>
        <pt x="258" y="343" on="0"/>
        <pt x="275" y="309" on="0"/>
        <pt x="275" y="309" on="1"/>
        <pt x="280" y="309" on="1"/>
        <pt x="394" y="521" on="1"/>
        <pt x="410" y="550" on="0"/>
        <pt x="410" y="571" on="1"/>
        <pt x="410" y="597" on="0"/>
        <pt x="347" y="601" on="1"/>
        <pt x="345" y="605" on="1"/>
        <pt x="351" y="644" on="1"/>
        <pt x="373" y="642" on="0"/>
        <pt x="393" y="640" on="1"/>
        <pt x="410" y="638" on="0"/>
        <pt x="448" y="637" on="0"/>
        <pt x="462" y="637" on="1"/>
        <pt x="476" y="637" on="0"/>
        <pt x="509" y="638" on="0"/>
        <pt x="523" y="639" on="1"/>
        <pt x="539" y="640" on="0"/>
        <pt x="554" y="641" on="1"/>
        <pt x="558" y="634" on="1"/>
        <pt x="552" y="597" on="1"/>
        <pt x="526" y="592" on="0"/>
        <pt x="494" y="577" on="0"/>
        <pt x="468" y="548" on="0"/>
        <pt x="441" y="503" on="0"/>
        <pt x="421" y="467" on="1"/>
        <pt x="321" y="291" on="1"/>
        <pt x="313" y="277" on="0"/>
        <pt x="305" y="249" on="0"/>
        <pt x="301" y="209" on="0"/>
        <pt x="300" y="153" on="0"/>
        <pt x="299" y="112" on="1"/>
        <pt x="298" y="74" on="0"/>
        <pt x="317" y="44" on="0"/>
        <pt x="343" y="44" on="1"/>
        <pt x="351" y="44" on="0"/>
        <pt x="367" y="44" on="0"/>
        <pt x="375" y="45" on="1"/>
        <pt x="384" y="46" on="0"/>
        <pt x="392" y="47" on="1"/>
        <pt x="394" y="43" on="1"/>
        <pt x="385" y="-3" on="1"/>
        <pt x="361" y="-3" on="0"/>
        <pt x="338" y="-2" on="1"/>
        <pt x="318" y="-1" on="0"/>
        <pt x="275" y="0" on="0"/>
        <pt x="258" y="0" on="1"/>
        <pt x="239" y="0" on="0"/>
        <pt x="199" y="-4" on="0"/>
        <pt x="182" y="-6" on="1"/>
        <pt x="163" y="-9" on="0"/>
        <pt x="144" y="-12" on="1"/>
        <pt x="150" y="34" on="1"/>
        <pt x="177" y="39" on="0"/>
        <pt x="208" y="53" on="0"/>
        <pt x="224" y="77" on="0"/>
        <pt x="228" y="114" on="0"/>
        <pt x="228" y="142" on="1"/>
        <pt x="228" y="186" on="1"/>
        <pt x="228" y="215" on="0"/>
        <pt x="217" y="263" on="0"/>
        <pt x="199" y="299" on="1"/>
        <pt x="109" y="482" on="1"/>
        <pt x="94" y="513" on="0"/>
        <pt x="73" y="554" on="0"/>
        <pt x="48" y="581" on="0"/>
        <pt x="12" y="594" on="0"/>
        <pt x="-17" y="597" on="1"/>
        <pt x="-19" y="601" on="1"/>
        <pt x="-13" y="640" on="1"/>
        <pt x="6" y="639" on="0"/>
        <pt x="25" y="638" on="1"/>
        <pt x="42" y="637" on="0"/>
        <pt x="80" y="637" on="0"/>
        <pt x="97" y="637" on="1"/>
        <pt x="118" y="637" on="0"/>
        <pt x="167" y="639" on="0"/>
        <pt x="189" y="641" on="1"/>
        <pt x="214" y="643" on="0"/>
        <pt x="239" y="645" on="1"/>
        <pt x="242" y="638" on="1"/>
        <pt x="239" y="603" on="1"/>
        <pt x="194" y="599" on="0"/>
        <pt x="163" y="584" on="0"/>
      </contour>
    </TTGlyph>
    <TTGlyph name="Yacute" xMin="-19" yMin="-12" xMax="558" yMax="841">
      <component glyphName="Y" x="0" y="0" flags="0x204"/>
      <component glyphName="acute.cap" x="96" y="0" flags="0x4"/>
    </TTGlyph>
    <TTGlyph name="Ycircumflex" xMin="-19" yMin="-12" xMax="558" yMax="846">
      <component glyphName="Y" x="0" y="0" flags="0x204"/>
      <component glyphName="circumflex.cap" x="86" y="0" flags="0x4"/>
    </TTGlyph>
    <TTGlyph name="Ydieresis" xMin="-19" yMin="-12" xMax="558" yMax="818">
      <component glyphName="Y" x="0" y="0" flags="0x204"/>
      <component glyphName="dieresis.cap" x="87" y="0" flags="0x4"/>
    </TTGlyph>
    <TTGlyph name="Ygrave" xMin="-19" yMin="-12" xMax="558" yMax="841">
      <component glyphName="Y" x="0" y="0" flags="0x204"/>
      <component glyphName="grave.cap" x="83" y="0" flags="0x4"/>
    </TTGlyph>
    <TTGlyph name="Z" xMin="34" yMin="-3" xMax="524" yMax="649">
      <contour>
        <pt x="480" y="-3" on="1"/>
        <pt x="118" y="3" on="1"/>
        <pt x="48" y="-3" on="1"/>
        <pt x="34" y="29" on="1"/>
        <pt x="407" y="593" on="1"/>
        <pt x="234" y="587" on="1"/>
        <pt x="199" y="585" on="0"/>
        <pt x="152" y="570" on="0"/>
        <pt x="120" y="538" on="0"/>
        <pt x="103" y="487" on="0"/>
        <pt x="99" y="449" on="1"/>
        <pt x="52" y="445" on="1"/>
        <pt x="56" y="475" on="0"/>
        <pt x="60" y="508" on="1"/>
        <pt x="63" y="536" on="0"/>
        <pt x="69" y="605" on="0"/>
        <pt x="70" y="640" on="1"/>
        <pt x="80" y="649" on="1"/>
        <pt x="255" y="638" on="1"/>
        <pt x="513" y="631" on="1"/>
        <pt x="524" y="602" on="1"/>
        <pt x="453" y="508" on="0"/>
        <pt x="327" y="328" on="0"/>
        <pt x="226" y="177" on="0"/>
        <pt x="154" y="65" on="0"/>
        <pt x="138" y="40" on="1"/>
        <pt x="341" y="47" on="1"/>
        <pt x="393" y="48" on="0"/>
        <pt x="456" y="127" on="0"/>
        <pt x="473" y="213" on="1"/>
        <pt x="520" y="218" on="1"/>
        <pt x="514" y="185" on="0"/>
        <pt x="509" y="151" on="1"/>
        <pt x="504" y="122" on="0"/>
        <pt x="497" y="49" on="0"/>
        <pt x="495" y="13" on="1"/>
      </contour>
    </TTGlyph>
    <TTGlyph name="Zacute" xMin="34" yMin="-3" xMax="524" yMax="841">
      <component glyphName="Z" x="0" y="0" flags="0x204"/>
      <component glyphName="acute.cap" x="103" y="0" flags="0x4"/>
    </TTGlyph>
    <TTGlyph name="Zcaron" xMin="34" yMin="-3" xMax="524" yMax="838">
      <component glyphName="Z" x="0" y="0" flags="0x204"/>
      <component glyphName="caron.cap" x="93" y="0" flags="0x4"/>
    </TTGlyph>
    <TTGlyph name="Zdotaccent" xMin="34" yMin="-3" xMax="524" yMax="829">
      <component glyphName="Z" x="0" y="0" flags="0x204"/>
      <component glyphName="dotaccent.cap" x="93" y="0" flags="0x4"/>
    </TTGlyph>
    <TTGlyph name="a" xMin="41" yMin="-12" xMax="459" yMax="464">
      <contour>
        <pt x="285" y="292" on="1"/>
        <pt x="285" y="343" on="0"/>
        <pt x="239" y="398" on="0"/>
        <pt x="197" y="398" on="1"/>
        <pt x="172" y="398" on="0"/>
        <pt x="130" y="382" on="0"/>
        <pt x="113" y="373" on="1"/>
        <pt x="94" y="362" on="0"/>
        <pt x="77" y="348" on="1"/>
        <pt x="72" y="351" on="1"/>
        <pt x="60" y="394" on="1"/>
        <pt x="94" y="413" on="0"/>
        <pt x="125" y="429" on="1"/>
        <pt x="151" y="442" on="0"/>
        <pt x="206" y="464" on="0"/>
        <pt x="223" y="464" on="1"/>
        <pt x="289" y="464" on="0"/>
        <pt x="362" y="396" on="0"/>
        <pt x="362" y="335" on="1"/>
        <pt x="362" y="321" on="0"/>
        <pt x="356" y="263" on="0"/>
        <pt x="350" y="194" on="0"/>
        <pt x="344" y="127" on="0"/>
        <pt x="344" y="105" on="1"/>
        <pt x="344" y="59" on="0"/>
        <pt x="385" y="59" on="1"/>
        <pt x="397" y="59" on="0"/>
        <pt x="419" y="66" on="0"/>
        <pt x="427" y="71" on="1"/>
        <pt x="437" y="76" on="0"/>
        <pt x="445" y="84" on="1"/>
        <pt x="459" y="68" on="1"/>
        <pt x="447" y="50" on="0"/>
        <pt x="434" y="34" on="1"/>
        <pt x="422" y="20" on="0"/>
        <pt x="391" y="-6" on="0"/>
        <pt x="372" y="-12" on="1"/>
        <pt x="290" y="-12" on="0"/>
        <pt x="283" y="69" on="1"/>
        <pt x="279" y="70" on="1"/>
        <pt x="243" y="34" on="0"/>
        <pt x="184" y="-8" on="0"/>
        <pt x="169" y="-8" on="1"/>
        <pt x="141" y="-8" on="0"/>
        <pt x="94" y="10" on="0"/>
        <pt x="60" y="43" on="0"/>
        <pt x="41" y="89" on="0"/>
        <pt x="41" y="116" on="1"/>
        <pt x="41" y="145" on="0"/>
        <pt x="70" y="189" on="0"/>
        <pt x="94" y="196" on="1"/>
        <pt x="283" y="248" on="1"/>
      </contour>
      <contour>
        <pt x="281" y="210" on="1"/>
        <pt x="146" y="169" on="1"/>
        <pt x="117" y="160" on="0"/>
        <pt x="117" y="127" on="1"/>
        <pt x="117" y="98" on="0"/>
        <pt x="156" y="60" on="0"/>
        <pt x="186" y="60" on="1"/>
        <pt x="205" y="60" on="0"/>
        <pt x="256" y="87" on="0"/>
        <pt x="277" y="108" on="1"/>
      </contour>
    </TTGlyph>
    <TTGlyph name="a.sups" xMin="30" yMin="343" xMax="310" yMax="647">
      <contour>
        <pt x="189" y="534" on="1"/>
        <pt x="189" y="563" on="0"/>
        <pt x="160" y="595" on="0"/>
        <pt x="134" y="595" on="1"/>
        <pt x="119" y="595" on="0"/>
        <pt x="92" y="585" on="0"/>
        <pt x="81" y="580" on="1"/>
        <pt x="69" y="573" on="0"/>
        <pt x="58" y="565" on="1"/>
        <pt x="53" y="567" on="1"/>
        <pt x="44" y="600" on="1"/>
        <pt x="68" y="612" on="0"/>
        <pt x="89" y="623" on="1"/>
        <pt x="107" y="632" on="0"/>
        <pt x="144" y="647" on="0"/>
        <pt x="155" y="647" on="1"/>
        <pt x="206" y="647" on="0"/>
        <pt x="254" y="600" on="0"/>
        <pt x="254" y="563" on="1"/>
        <pt x="254" y="555" on="0"/>
        <pt x="250" y="519" on="0"/>
        <pt x="246" y="478" on="0"/>
        <pt x="242" y="439" on="0"/>
        <pt x="242" y="427" on="1"/>
        <pt x="242" y="400" on="0"/>
        <pt x="266" y="400" on="1"/>
        <pt x="273" y="400" on="0"/>
        <pt x="285" y="404" on="0"/>
        <pt x="290" y="406" on="1"/>
        <pt x="295" y="409" on="0"/>
        <pt x="301" y="413" on="1"/>
        <pt x="310" y="401" on="1"/>
        <pt x="302" y="387" on="0"/>
        <pt x="292" y="376" on="1"/>
        <pt x="284" y="366" on="0"/>
        <pt x="262" y="347" on="0"/>
        <pt x="251" y="343" on="1"/>
        <pt x="195" y="343" on="0"/>
        <pt x="190" y="393" on="1"/>
        <pt x="186" y="394" on="1"/>
        <pt x="165" y="374" on="0"/>
        <pt x="126" y="346" on="0"/>
        <pt x="115" y="346" on="1"/>
        <pt x="79" y="346" on="0"/>
        <pt x="30" y="395" on="0"/>
        <pt x="30" y="432" on="1"/>
        <pt x="30" y="451" on="0"/>
        <pt x="49" y="479" on="0"/>
        <pt x="66" y="484" on="1"/>
        <pt x="188" y="514" on="1"/>
      </contour>
      <contour>
        <pt x="187" y="484" on="1"/>
        <pt x="111" y="462" on="1"/>
        <pt x="94" y="457" on="0"/>
        <pt x="94" y="439" on="1"/>
        <pt x="94" y="422" on="0"/>
        <pt x="117" y="399" on="0"/>
        <pt x="134" y="399" on="1"/>
        <pt x="145" y="399" on="0"/>
        <pt x="173" y="412" on="0"/>
        <pt x="185" y="422" on="1"/>
      </contour>
    </TTGlyph>
    <TTGlyph name="aacute" xMin="41" yMin="-12" xMax="459" yMax="715">
      <component glyphName="a" x="0" y="0" flags="0x204"/>
      <component glyphName="acute" x="19" y="0" flags="0x4"/>
    </TTGlyph>
    <TTGlyph name="abreve" xMin="41" yMin="-12" xMax="459" yMax="682">
      <component glyphName="a" x="0" y="0" flags="0x204"/>
      <component glyphName="breve" x="21" y="0" flags="0x4"/>
    </TTGlyph>
    <TTGlyph name="acircumflex" xMin="41" yMin="-12" xMax="459" yMax="703">
      <component glyphName="a" x="0" y="0" flags="0x204"/>
      <component glyphName="circumflex" x="19" y="0" flags="0x4"/>
    </TTGlyph>
    <TTGlyph name="acute" xMin="129" yMin="521" xMax="327" yMax="715">
      <contour>
        <pt x="326" y="661" on="1"/>
        <pt x="300" y="641" on="0"/>
        <pt x="273" y="619" on="1"/>
        <pt x="249" y="599" on="0"/>
        <pt x="190" y="550" on="0"/>
        <pt x="158" y="521" on="1"/>
        <pt x="149" y="523" on="1"/>
        <pt x="129" y="542" on="1"/>
        <pt x="156" y="571" on="0"/>
        <pt x="209" y="632" on="0"/>
        <pt x="231" y="658" on="1"/>
        <pt x="256" y="687" on="0"/>
        <pt x="279" y="715" on="1"/>
        <pt x="289" y="713" on="1"/>
        <pt x="327" y="672" on="1"/>
      </contour>
    </TTGlyph>
    <TTGlyph name="acute.cap" xMin="125" yMin="703" xMax="349" yMax="841">
      <contour>
        <pt x="345" y="777" on="1"/>
        <pt x="314" y="766" on="0"/>
        <pt x="281" y="755" on="1"/>
        <pt x="252" y="744" on="0"/>
        <pt x="178" y="718" on="0"/>
        <pt x="139" y="703" on="1"/>
        <pt x="131" y="708" on="1"/>
        <pt x="125" y="732" on="1"/>
        <pt x="160" y="750" on="0"/>
        <pt x="231" y="789" on="0"/>
        <pt x="260" y="805" on="1"/>
        <pt x="293" y="823" on="0"/>
        <pt x="324" y="841" on="1"/>
        <pt x="333" y="835" on="1"/>
        <pt x="349" y="787" on="1"/>
      </contour>
    </TTGlyph>
    <TTGlyph name="adieresis" xMin="41" yMin="-12" xMax="459" yMax="659">
      <component glyphName="a" x="0" y="0" flags="0x204"/>
      <component glyphName="dieresis" x="18" y="0" flags="0x4"/>
    </TTGlyph>
    <TTGlyph name="ae" xMin="30" yMin="-12" xMax="633" yMax="464">
      <contour>
        <pt x="633" y="56" on="1"/>
        <pt x="606" y="37" on="0"/>
        <pt x="579" y="22" on="1"/>
        <pt x="556" y="9" on="0"/>
        <pt x="503" y="-12" on="0"/>
        <pt x="480" y="-12" on="1"/>
        <pt x="417" y="-12" on="0"/>
        <pt x="321" y="44" on="0"/>
        <pt x="297" y="95" on="1"/>
        <pt x="258" y="53" on="0"/>
        <pt x="184" y="-1" on="0"/>
        <pt x="158" y="-8" on="1"/>
        <pt x="130" y="-8" on="0"/>
        <pt x="83" y="10" on="0"/>
        <pt x="49" y="43" on="0"/>
        <pt x="30" y="89" on="0"/>
        <pt x="30" y="116" on="1"/>
        <pt x="30" y="145" on="0"/>
        <pt x="59" y="188" on="0"/>
        <pt x="83" y="195" on="1"/>
        <pt x="274" y="247" on="1"/>
        <pt x="275" y="297" on="1"/>
        <pt x="275" y="348" on="0"/>
        <pt x="231" y="401" on="0"/>
        <pt x="189" y="401" on="1"/>
        <pt x="164" y="401" on="0"/>
        <pt x="120" y="384" on="0"/>
        <pt x="103" y="374" on="1"/>
        <pt x="83" y="363" on="0"/>
        <pt x="66" y="348" on="1"/>
        <pt x="61" y="351" on="1"/>
        <pt x="49" y="394" on="1"/>
        <pt x="83" y="413" on="0"/>
        <pt x="115" y="429" on="1"/>
        <pt x="141" y="442" on="0"/>
        <pt x="196" y="464" on="0"/>
        <pt x="212" y="464" on="1"/>
        <pt x="310" y="464" on="0"/>
        <pt x="336" y="384" on="1"/>
        <pt x="365" y="422" on="0"/>
        <pt x="445" y="464" on="0"/>
        <pt x="488" y="464" on="1"/>
        <pt x="552" y="464" on="0"/>
        <pt x="625" y="389" on="0"/>
        <pt x="625" y="322" on="1"/>
        <pt x="625" y="318" on="0"/>
        <pt x="624" y="309" on="0"/>
        <pt x="623" y="303" on="1"/>
        <pt x="614" y="289" on="1"/>
        <pt x="344" y="225" on="1"/>
        <pt x="347" y="186" on="0"/>
        <pt x="371" y="123" on="0"/>
        <pt x="410" y="77" on="0"/>
        <pt x="462" y="52" on="0"/>
        <pt x="493" y="52" on="1"/>
        <pt x="516" y="52" on="0"/>
        <pt x="560" y="62" on="0"/>
        <pt x="577" y="69" on="1"/>
        <pt x="597" y="77" on="0"/>
        <pt x="616" y="87" on="1"/>
        <pt x="622" y="85" on="1"/>
      </contour>
      <contour>
        <pt x="135" y="169" on="1"/>
        <pt x="118" y="164" on="0"/>
        <pt x="103" y="141" on="0"/>
        <pt x="103" y="127" on="1"/>
        <pt x="103" y="99" on="0"/>
        <pt x="143" y="57" on="0"/>
        <pt x="170" y="57" on="1"/>
        <pt x="191" y="57" on="0"/>
        <pt x="250" y="92" on="0"/>
        <pt x="285" y="125" on="1"/>
        <pt x="273" y="162" on="0"/>
        <pt x="273" y="210" on="1"/>
      </contour>
      <contour>
        <pt x="343" y="262" on="1"/>
        <pt x="518" y="312" on="1"/>
        <pt x="538" y="318" on="0"/>
        <pt x="538" y="330" on="1"/>
        <pt x="538" y="363" on="0"/>
        <pt x="497" y="408" on="0"/>
        <pt x="465" y="408" on="1"/>
        <pt x="410" y="408" on="0"/>
        <pt x="343" y="332" on="0"/>
        <pt x="343" y="269" on="1"/>
      </contour>
    </TTGlyph>
    <TTGlyph name="aeacute" xMin="30" yMin="-12" xMax="633" yMax="715">
      <component glyphName="ae" x="0" y="0" flags="0x204"/>
      <component glyphName="acute" x="154" y="0" flags="0x4"/>
    </TTGlyph>
    <TTGlyph name="agrave" xMin="41" yMin="-12" xMax="459" yMax="714">
      <component glyphName="a" x="0" y="0" flags="0x204"/>
      <component glyphName="grave" x="22" y="0" flags="0x4"/>
    </TTGlyph>
    <TTGlyph name="amacron" xMin="41" yMin="-12" xMax="459" yMax="653">
      <component glyphName="a" x="0" y="0" flags="0x204"/>
      <component glyphName="macron" x="18" y="0" flags="0x4"/>
    </TTGlyph>
    <TTGlyph name="ampersand" xMin="55" yMin="-28" xMax="701" yMax="649">
      <contour>
        <pt x="486" y="163" on="1"/>
        <pt x="504" y="199" on="0"/>
        <pt x="504" y="249" on="1"/>
        <pt x="504" y="367" on="0"/>
        <pt x="426" y="367" on="1"/>
        <pt x="415" y="367" on="0"/>
        <pt x="395" y="364" on="0"/>
        <pt x="387" y="362" on="1"/>
        <pt x="377" y="360" on="0"/>
        <pt x="369" y="358" on="1"/>
        <pt x="355" y="401" on="1"/>
        <pt x="361" y="405" on="0"/>
        <pt x="369" y="409" on="1"/>
        <pt x="376" y="412" on="0"/>
        <pt x="396" y="418" on="0"/>
        <pt x="408" y="419" on="1"/>
        <pt x="614" y="431" on="1"/>
        <pt x="639" y="433" on="0"/>
        <pt x="669" y="436" on="0"/>
        <pt x="685" y="438" on="0"/>
        <pt x="690" y="440" on="0"/>
        <pt x="691" y="442" on="1"/>
        <pt x="701" y="418" on="1"/>
        <pt x="688" y="387" on="1"/>
        <pt x="685" y="381" on="0"/>
        <pt x="677" y="373" on="0"/>
        <pt x="662" y="368" on="0"/>
        <pt x="637" y="367" on="0"/>
        <pt x="618" y="367" on="1"/>
        <pt x="518" y="367" on="1"/>
        <pt x="515" y="361" on="1"/>
        <pt x="535" y="344" on="0"/>
        <pt x="557" y="292" on="0"/>
        <pt x="557" y="263" on="1"/>
        <pt x="557" y="199" on="0"/>
        <pt x="517" y="137" on="1"/>
        <pt x="657" y="19" on="1"/>
        <pt x="657" y="3" on="1"/>
        <pt x="644" y="-6" on="0"/>
        <pt x="632" y="-13" on="1"/>
        <pt x="621" y="-19" on="0"/>
        <pt x="600" y="-28" on="0"/>
        <pt x="595" y="-28" on="1"/>
        <pt x="586" y="-28" on="0"/>
        <pt x="468" y="78" on="1"/>
        <pt x="426" y="36" on="0"/>
        <pt x="320" y="-12" on="0"/>
        <pt x="269" y="-12" on="1"/>
        <pt x="170" y="-12" on="0"/>
        <pt x="55" y="80" on="0"/>
        <pt x="55" y="160" on="1"/>
        <pt x="55" y="203" on="0"/>
        <pt x="96" y="266" on="0"/>
        <pt x="121" y="286" on="1"/>
        <pt x="150" y="310" on="0"/>
        <pt x="187" y="326" on="1"/>
        <pt x="187" y="333" on="1"/>
        <pt x="145" y="378" on="0"/>
        <pt x="105" y="454" on="0"/>
        <pt x="105" y="490" on="1"/>
        <pt x="105" y="524" on="0"/>
        <pt x="135" y="582" on="0"/>
        <pt x="189" y="625" on="0"/>
        <pt x="262" y="649" on="0"/>
        <pt x="304" y="649" on="1"/>
        <pt x="331" y="649" on="0"/>
        <pt x="376" y="642" on="0"/>
        <pt x="392" y="637" on="1"/>
        <pt x="410" y="632" on="0"/>
        <pt x="425" y="626" on="1"/>
        <pt x="427" y="611" on="1"/>
        <pt x="379" y="537" on="1"/>
        <pt x="369" y="536" on="1"/>
        <pt x="334" y="568" on="0"/>
        <pt x="291" y="590" on="0"/>
        <pt x="263" y="590" on="1"/>
        <pt x="222" y="590" on="0"/>
        <pt x="175" y="549" on="0"/>
        <pt x="175" y="514" on="1"/>
        <pt x="175" y="489" on="0"/>
        <pt x="189" y="445" on="0"/>
        <pt x="223" y="396" on="0"/>
        <pt x="282" y="339" on="0"/>
        <pt x="326" y="301" on="1"/>
      </contour>
      <contour>
        <pt x="216" y="303" on="1"/>
        <pt x="177" y="285" on="0"/>
        <pt x="130" y="218" on="0"/>
        <pt x="130" y="180" on="1"/>
        <pt x="130" y="121" on="0"/>
        <pt x="221" y="51" on="0"/>
        <pt x="297" y="51" on="1"/>
        <pt x="382" y="51" on="0"/>
        <pt x="441" y="102" on="1"/>
      </contour>
    </TTGlyph>
    <TTGlyph name="aogonek" xMin="41" yMin="-241" xMax="473" yMax="464">
      <contour>
        <pt x="473" y="-178" on="1"/>
        <pt x="459" y="-191" on="0"/>
        <pt x="442" y="-203" on="1"/>
        <pt x="428" y="-214" on="0"/>
        <pt x="392" y="-235" on="0"/>
        <pt x="373" y="-241" on="1"/>
        <pt x="322" y="-241" on="0"/>
        <pt x="262" y="-191" on="0"/>
        <pt x="262" y="-147" on="1"/>
        <pt x="262" y="-120" on="0"/>
        <pt x="300" y="-57" on="0"/>
        <pt x="347" y="-9" on="1"/>
        <pt x="318" y="-4" on="0"/>
        <pt x="285" y="36" on="0"/>
        <pt x="283" y="69" on="1"/>
        <pt x="282" y="69" on="0"/>
        <pt x="280" y="70" on="0"/>
        <pt x="279" y="70" on="1"/>
        <pt x="243" y="34" on="0"/>
        <pt x="184" y="-8" on="0"/>
        <pt x="169" y="-8" on="1"/>
        <pt x="141" y="-8" on="0"/>
        <pt x="94" y="10" on="0"/>
        <pt x="60" y="43" on="0"/>
        <pt x="41" y="89" on="0"/>
        <pt x="41" y="116" on="1"/>
        <pt x="41" y="145" on="0"/>
        <pt x="70" y="189" on="0"/>
        <pt x="94" y="196" on="1"/>
        <pt x="283" y="248" on="1"/>
        <pt x="285" y="292" on="1"/>
        <pt x="285" y="343" on="0"/>
        <pt x="239" y="398" on="0"/>
        <pt x="197" y="398" on="1"/>
        <pt x="172" y="398" on="0"/>
        <pt x="130" y="382" on="0"/>
        <pt x="113" y="373" on="1"/>
        <pt x="94" y="362" on="0"/>
        <pt x="77" y="348" on="1"/>
        <pt x="72" y="351" on="1"/>
        <pt x="60" y="394" on="1"/>
        <pt x="94" y="413" on="0"/>
        <pt x="125" y="429" on="1"/>
        <pt x="151" y="442" on="0"/>
        <pt x="206" y="464" on="0"/>
        <pt x="223" y="464" on="1"/>
        <pt x="241" y="464" on="0"/>
        <pt x="258" y="461" on="1"/>
        <pt x="308" y="453" on="0"/>
        <pt x="362" y="387" on="0"/>
        <pt x="362" y="335" on="1"/>
        <pt x="362" y="327" on="0"/>
        <pt x="360" y="307" on="0"/>
        <pt x="358" y="284" on="1"/>
        <pt x="352" y="221" on="0"/>
        <pt x="347" y="157" on="0"/>
        <pt x="344" y="126" on="0"/>
        <pt x="344" y="115" on="0"/>
        <pt x="344" y="105" on="1"/>
        <pt x="344" y="59" on="0"/>
        <pt x="385" y="59" on="1"/>
        <pt x="397" y="59" on="0"/>
        <pt x="419" y="66" on="0"/>
        <pt x="427" y="71" on="1"/>
        <pt x="437" y="76" on="0"/>
        <pt x="445" y="84" on="1"/>
        <pt x="461" y="65" on="1"/>
        <pt x="421" y="23" on="0"/>
        <pt x="369" y="-36" on="0"/>
        <pt x="338" y="-81" on="0"/>
        <pt x="325" y="-113" on="0"/>
        <pt x="325" y="-128" on="1"/>
        <pt x="325" y="-152" on="0"/>
        <pt x="357" y="-182" on="0"/>
        <pt x="383" y="-182" on="1"/>
        <pt x="397" y="-182" on="0"/>
        <pt x="425" y="-176" on="0"/>
        <pt x="436" y="-171" on="1"/>
        <pt x="448" y="-166" on="0"/>
        <pt x="460" y="-159" on="1"/>
      </contour>
      <contour>
        <pt x="281" y="210" on="1"/>
        <pt x="146" y="169" on="1"/>
        <pt x="117" y="158" on="0"/>
        <pt x="117" y="127" on="1"/>
        <pt x="117" y="98" on="0"/>
        <pt x="156" y="60" on="0"/>
        <pt x="186" y="60" on="1"/>
        <pt x="205" y="60" on="0"/>
        <pt x="256" y="87" on="0"/>
        <pt x="277" y="108" on="1"/>
      </contour>
    </TTGlyph>
    <TTGlyph name="approxequal" xMin="45" yMin="122" xMax="464" yMax="415">
      <contour>
        <pt x="67" y="284" on="1"/>
        <pt x="45" y="305" on="1"/>
        <pt x="45" y="310" on="1"/>
        <pt x="121" y="399" on="1"/>
        <pt x="137" y="403" on="1"/>
        <pt x="157" y="403" on="0"/>
        <pt x="223" y="390" on="0"/>
        <pt x="293" y="373" on="0"/>
        <pt x="356" y="360" on="0"/>
        <pt x="373" y="360" on="1"/>
        <pt x="381" y="360" on="0"/>
        <pt x="403" y="376" on="0"/>
        <pt x="413" y="387" on="1"/>
        <pt x="424" y="399" on="0"/>
        <pt x="436" y="415" on="1"/>
        <pt x="442" y="415" on="1"/>
        <pt x="464" y="394" on="1"/>
        <pt x="464" y="389" on="1"/>
        <pt x="388" y="300" on="1"/>
        <pt x="372" y="296" on="1"/>
        <pt x="352" y="296" on="0"/>
        <pt x="286" y="309" on="0"/>
        <pt x="216" y="326" on="0"/>
        <pt x="153" y="339" on="0"/>
        <pt x="136" y="339" on="1"/>
        <pt x="127" y="339" on="0"/>
        <pt x="105" y="322" on="0"/>
        <pt x="95" y="311" on="1"/>
        <pt x="84" y="299" on="0"/>
        <pt x="73" y="284" on="1"/>
      </contour>
      <contour>
        <pt x="67" y="122" on="1"/>
        <pt x="45" y="143" on="1"/>
        <pt x="45" y="148" on="1"/>
        <pt x="121" y="237" on="1"/>
        <pt x="137" y="241" on="1"/>
        <pt x="157" y="241" on="0"/>
        <pt x="223" y="228" on="0"/>
        <pt x="293" y="211" on="0"/>
        <pt x="356" y="198" on="0"/>
        <pt x="373" y="198" on="1"/>
        <pt x="381" y="198" on="0"/>
        <pt x="403" y="214" on="0"/>
        <pt x="413" y="225" on="1"/>
        <pt x="424" y="237" on="0"/>
        <pt x="436" y="253" on="1"/>
        <pt x="442" y="253" on="1"/>
        <pt x="464" y="232" on="1"/>
        <pt x="464" y="227" on="1"/>
        <pt x="388" y="138" on="1"/>
        <pt x="372" y="134" on="1"/>
        <pt x="352" y="134" on="0"/>
        <pt x="286" y="147" on="0"/>
        <pt x="216" y="164" on="0"/>
        <pt x="153" y="177" on="0"/>
        <pt x="136" y="177" on="1"/>
        <pt x="127" y="177" on="0"/>
        <pt x="105" y="160" on="0"/>
        <pt x="95" y="149" on="1"/>
        <pt x="84" y="137" on="0"/>
        <pt x="73" y="122" on="1"/>
      </contour>
    </TTGlyph>
    <TTGlyph name="aring" xMin="41" yMin="-12" xMax="459" yMax="708">
      <component glyphName="a" x="0" y="0" flags="0x204"/>
      <component glyphName="ring" x="19" y="0" flags="0x4"/>
    </TTGlyph>
    <TTGlyph name="aringacute" xMin="41" yMin="-12" xMax="459" yMax="751">
      <contour>
        <pt x="285" y="292" on="1"/>
        <pt x="285" y="343" on="0"/>
        <pt x="239" y="398" on="0"/>
        <pt x="197" y="398" on="1"/>
        <pt x="172" y="398" on="0"/>
        <pt x="130" y="382" on="0"/>
        <pt x="113" y="373" on="1"/>
        <pt x="94" y="362" on="0"/>
        <pt x="77" y="348" on="1"/>
        <pt x="72" y="351" on="1"/>
        <pt x="60" y="394" on="1"/>
        <pt x="94" y="413" on="0"/>
        <pt x="125" y="429" on="1"/>
        <pt x="151" y="442" on="0"/>
        <pt x="206" y="464" on="0"/>
        <pt x="223" y="464" on="1"/>
        <pt x="289" y="464" on="0"/>
        <pt x="362" y="396" on="0"/>
        <pt x="362" y="335" on="1"/>
        <pt x="362" y="321" on="0"/>
        <pt x="356" y="263" on="0"/>
        <pt x="350" y="194" on="0"/>
        <pt x="344" y="127" on="0"/>
        <pt x="344" y="105" on="1"/>
        <pt x="344" y="59" on="0"/>
        <pt x="385" y="59" on="1"/>
        <pt x="397" y="59" on="0"/>
        <pt x="419" y="66" on="0"/>
        <pt x="427" y="71" on="1"/>
        <pt x="437" y="76" on="0"/>
        <pt x="445" y="84" on="1"/>
        <pt x="459" y="68" on="1"/>
        <pt x="447" y="50" on="0"/>
        <pt x="434" y="34" on="1"/>
        <pt x="422" y="20" on="0"/>
        <pt x="391" y="-6" on="0"/>
        <pt x="372" y="-12" on="1"/>
        <pt x="290" y="-12" on="0"/>
        <pt x="283" y="69" on="1"/>
        <pt x="279" y="70" on="1"/>
        <pt x="243" y="34" on="0"/>
        <pt x="184" y="-8" on="0"/>
        <pt x="169" y="-8" on="1"/>
        <pt x="141" y="-8" on="0"/>
        <pt x="94" y="10" on="0"/>
        <pt x="60" y="43" on="0"/>
        <pt x="41" y="89" on="0"/>
        <pt x="41" y="116" on="1"/>
        <pt x="41" y="145" on="0"/>
        <pt x="70" y="189" on="0"/>
        <pt x="94" y="196" on="1"/>
        <pt x="283" y="248" on="1"/>
      </contour>
      <contour>
        <pt x="281" y="210" on="1"/>
        <pt x="146" y="169" on="1"/>
        <pt x="117" y="160" on="0"/>
        <pt x="117" y="127" on="1"/>
        <pt x="117" y="98" on="0"/>
        <pt x="156" y="60" on="0"/>
        <pt x="186" y="60" on="1"/>
        <pt x="205" y="60" on="0"/>
        <pt x="256" y="87" on="0"/>
        <pt x="277" y="108" on="1"/>
      </contour>
      <contour>
        <pt x="237" y="513" on="1"/>
        <pt x="242" y="513" on="0"/>
        <pt x="256" y="515" on="0"/>
        <pt x="268" y="522" on="0"/>
        <pt x="277" y="536" on="0"/>
        <pt x="277" y="548" on="1"/>
        <pt x="277" y="567" on="0"/>
        <pt x="253" y="591" on="0"/>
        <pt x="231" y="591" on="1"/>
        <pt x="191" y="591" on="0"/>
        <pt x="191" y="556" on="1"/>
        <pt x="191" y="532" on="0"/>
        <pt x="223" y="513" on="0"/>
      </contour>
      <contour>
        <pt x="231" y="478" on="1"/>
        <pt x="198" y="478" on="0"/>
        <pt x="162" y="518" on="0"/>
        <pt x="162" y="550" on="1"/>
        <pt x="162" y="583" on="0"/>
        <pt x="203" y="626" on="0"/>
        <pt x="238" y="626" on="1"/>
        <pt x="275" y="626" on="0"/>
        <pt x="307" y="584" on="0"/>
        <pt x="307" y="558" on="1"/>
        <pt x="307" y="526" on="0"/>
        <pt x="267" y="478" on="0"/>
      </contour>
      <contour>
        <pt x="340" y="693" on="1"/>
        <pt x="313" y="684" on="0"/>
        <pt x="283" y="673" on="1"/>
        <pt x="257" y="664" on="0"/>
        <pt x="190" y="641" on="0"/>
        <pt x="155" y="627" on="1"/>
        <pt x="148" y="631" on="1"/>
        <pt x="142" y="653" on="1"/>
        <pt x="174" y="670" on="0"/>
        <pt x="238" y="704" on="0"/>
        <pt x="264" y="718" on="1"/>
        <pt x="294" y="735" on="0"/>
        <pt x="322" y="751" on="1"/>
        <pt x="330" y="745" on="1"/>
        <pt x="344" y="702" on="1"/>
      </contour>
    </TTGlyph>
    <TTGlyph name="asciicircum" xMin="56" yMin="57" xMax="450" yMax="481">
      <contour>
        <pt x="281" y="473" on="1"/>
        <pt x="296" y="436" on="0"/>
        <pt x="311" y="401" on="1"/>
        <pt x="324" y="371" on="0"/>
        <pt x="353" y="302" on="0"/>
        <pt x="365" y="275" on="1"/>
        <pt x="378" y="244" on="0"/>
        <pt x="408" y="178" on="0"/>
        <pt x="421" y="150" on="1"/>
        <pt x="436" y="117" on="0"/>
        <pt x="450" y="87" on="1"/>
        <pt x="410" y="57" on="1"/>
        <pt x="399" y="58" on="1"/>
        <pt x="386" y="87" on="0"/>
        <pt x="373" y="118" on="1"/>
        <pt x="362" y="144" on="0"/>
        <pt x="334" y="208" on="0"/>
        <pt x="320" y="239" on="1"/>
        <pt x="250" y="407" on="1"/>
        <pt x="244" y="407" on="1"/>
        <pt x="184" y="253" on="1"/>
        <pt x="171" y="222" on="0"/>
        <pt x="146" y="154" on="0"/>
        <pt x="135" y="125" on="1"/>
        <pt x="123" y="92" on="0"/>
        <pt x="111" y="59" on="1"/>
        <pt x="61" y="66" on="1"/>
        <pt x="56" y="75" on="1"/>
        <pt x="69" y="107" on="0"/>
        <pt x="82" y="141" on="1"/>
        <pt x="93" y="170" on="0"/>
        <pt x="122" y="241" on="0"/>
        <pt x="137" y="276" on="1"/>
        <pt x="223" y="479" on="1"/>
        <pt x="270" y="481" on="1"/>
      </contour>
    </TTGlyph>
    <TTGlyph name="asciitilde" xMin="43" yMin="202" xMax="466" yMax="333">
      <contour>
        <pt x="65" y="202" on="1"/>
        <pt x="43" y="223" on="1"/>
        <pt x="43" y="228" on="1"/>
        <pt x="119" y="317" on="1"/>
        <pt x="135" y="321" on="1"/>
        <pt x="155" y="321" on="0"/>
        <pt x="222" y="308" on="0"/>
        <pt x="294" y="291" on="0"/>
        <pt x="358" y="278" on="0"/>
        <pt x="375" y="278" on="1"/>
        <pt x="384" y="278" on="0"/>
        <pt x="405" y="294" on="0"/>
        <pt x="415" y="305" on="1"/>
        <pt x="426" y="317" on="0"/>
        <pt x="438" y="333" on="1"/>
        <pt x="444" y="333" on="1"/>
        <pt x="466" y="312" on="1"/>
        <pt x="466" y="307" on="1"/>
        <pt x="390" y="218" on="1"/>
        <pt x="374" y="214" on="1"/>
        <pt x="354" y="214" on="0"/>
        <pt x="287" y="227" on="0"/>
        <pt x="215" y="244" on="0"/>
        <pt x="151" y="257" on="0"/>
        <pt x="134" y="257" on="1"/>
        <pt x="125" y="257" on="0"/>
        <pt x="103" y="240" on="0"/>
        <pt x="93" y="229" on="1"/>
        <pt x="82" y="217" on="0"/>
        <pt x="71" y="202" on="1"/>
      </contour>
    </TTGlyph>
    <TTGlyph name="asterisk" xMin="68" yMin="417" xMax="389" yMax="737">
      <contour>
        <pt x="86" y="666" on="1"/>
        <pt x="102" y="657" on="0"/>
        <pt x="119" y="647" on="1"/>
        <pt x="133" y="638" on="0"/>
        <pt x="169" y="616" on="0"/>
        <pt x="186" y="603" on="1"/>
        <pt x="180" y="570" on="1"/>
        <pt x="174" y="565" on="1"/>
        <pt x="154" y="571" on="0"/>
        <pt x="117" y="582" on="0"/>
        <pt x="102" y="586" on="1"/>
        <pt x="84" y="590" on="0"/>
        <pt x="68" y="594" on="1"/>
        <pt x="68" y="606" on="0"/>
        <pt x="69" y="617" on="1"/>
        <pt x="70" y="627" on="0"/>
        <pt x="73" y="651" on="0"/>
        <pt x="77" y="662" on="1"/>
      </contour>
      <contour>
        <pt x="91" y="473" on="1"/>
        <pt x="104" y="486" on="0"/>
        <pt x="119" y="499" on="1"/>
        <pt x="132" y="510" on="0"/>
        <pt x="164" y="537" on="0"/>
        <pt x="182" y="549" on="1"/>
        <pt x="211" y="533" on="1"/>
        <pt x="214" y="526" on="1"/>
        <pt x="202" y="509" on="0"/>
        <pt x="180" y="478" on="0"/>
        <pt x="172" y="464" on="1"/>
        <pt x="162" y="448" on="0"/>
        <pt x="154" y="434" on="1"/>
        <pt x="144" y="438" on="0"/>
        <pt x="133" y="442" on="1"/>
        <pt x="124" y="446" on="0"/>
        <pt x="102" y="457" on="0"/>
        <pt x="92" y="464" on="1"/>
      </contour>
      <contour>
        <pt x="276" y="418" on="1"/>
        <pt x="268" y="435" on="0"/>
        <pt x="260" y="453" on="1"/>
        <pt x="253" y="469" on="0"/>
        <pt x="238" y="508" on="0"/>
        <pt x="232" y="528" on="1"/>
        <pt x="256" y="551" on="1"/>
        <pt x="264" y="552" on="1"/>
        <pt x="275" y="535" on="0"/>
        <pt x="300" y="504" on="0"/>
        <pt x="310" y="492" on="1"/>
        <pt x="321" y="478" on="0"/>
        <pt x="332" y="466" on="1"/>
        <pt x="326" y="458" on="0"/>
        <pt x="318" y="449" on="1"/>
        <pt x="311" y="441" on="0"/>
        <pt x="294" y="424" on="0"/>
        <pt x="285" y="417" on="1"/>
      </contour>
      <contour>
        <pt x="385" y="577" on="1"/>
        <pt x="366" y="575" on="0"/>
        <pt x="347" y="573" on="1"/>
        <pt x="330" y="571" on="0"/>
        <pt x="288" y="569" on="0"/>
        <pt x="267" y="570" on="1"/>
        <pt x="253" y="599" on="1"/>
        <pt x="254" y="607" on="1"/>
        <pt x="274" y="613" on="0"/>
        <pt x="311" y="626" on="0"/>
        <pt x="325" y="632" on="1"/>
        <pt x="342" y="639" on="0"/>
        <pt x="357" y="646" on="1"/>
        <pt x="363" y="637" on="0"/>
        <pt x="369" y="627" on="1"/>
        <pt x="374" y="619" on="0"/>
        <pt x="385" y="597" on="0"/>
        <pt x="389" y="586" on="1"/>
      </contour>
      <contour>
        <pt x="268" y="730" on="1"/>
        <pt x="264" y="712" on="0"/>
        <pt x="260" y="693" on="1"/>
        <pt x="256" y="676" on="0"/>
        <pt x="246" y="636" on="0"/>
        <pt x="239" y="616" on="1"/>
        <pt x="205" y="611" on="1"/>
        <pt x="199" y="615" on="1"/>
        <pt x="199" y="635" on="0"/>
        <pt x="197" y="674" on="0"/>
        <pt x="196" y="690" on="1"/>
        <pt x="195" y="708" on="0"/>
        <pt x="194" y="725" on="1"/>
        <pt x="205" y="728" on="0"/>
        <pt x="216" y="731" on="1"/>
        <pt x="226" y="733" on="0"/>
        <pt x="249" y="737" on="0"/>
        <pt x="261" y="737" on="1"/>
      </contour>
    </TTGlyph>
    <TTGlyph name="at" xMin="33" yMin="-209" xMax="799" yMax="613">
      <contour>
        <pt x="477" y="-12" on="1"/>
        <pt x="441" y="-12" on="0"/>
        <pt x="441" y="17" on="1"/>
        <pt x="441" y="24" on="0"/>
        <pt x="454" y="90" on="0"/>
        <pt x="462" y="128" on="1"/>
        <pt x="472" y="172" on="0"/>
        <pt x="484" y="225" on="1"/>
        <pt x="478" y="227" on="1"/>
        <pt x="428" y="133" on="0"/>
        <pt x="337" y="20" on="0"/>
        <pt x="291" y="-12" on="1"/>
        <pt x="250" y="-12" on="0"/>
        <pt x="211" y="64" on="0"/>
        <pt x="211" y="124" on="1"/>
        <pt x="211" y="188" on="0"/>
        <pt x="252" y="309" on="0"/>
        <pt x="318" y="403" on="0"/>
        <pt x="400" y="460" on="0"/>
        <pt x="440" y="460" on="1"/>
        <pt x="540" y="444" on="1"/>
        <pt x="549" y="469" on="1"/>
        <pt x="554" y="470" on="1"/>
        <pt x="585" y="455" on="1"/>
        <pt x="593" y="443" on="1"/>
        <pt x="577" y="384" on="0"/>
        <pt x="561" y="320" on="1"/>
        <pt x="547" y="265" on="0"/>
        <pt x="519" y="128" on="0"/>
        <pt x="509" y="58" on="1"/>
        <pt x="513" y="54" on="1"/>
        <pt x="568" y="54" on="0"/>
        <pt x="649" y="87" on="0"/>
        <pt x="703" y="147" on="0"/>
        <pt x="730" y="230" on="0"/>
        <pt x="730" y="280" on="1"/>
        <pt x="730" y="346" on="0"/>
        <pt x="688" y="449" on="0"/>
        <pt x="610" y="520" on="0"/>
        <pt x="501" y="557" on="0"/>
        <pt x="435" y="557" on="1"/>
        <pt x="359" y="557" on="0"/>
        <pt x="236" y="500" on="0"/>
        <pt x="150" y="404" on="0"/>
        <pt x="104" y="276" on="0"/>
        <pt x="104" y="206" on="1"/>
        <pt x="104" y="134" on="0"/>
        <pt x="145" y="3" on="0"/>
        <pt x="231" y="-97" on="0"/>
        <pt x="364" y="-161" on="0"/>
        <pt x="457" y="-166" on="1"/>
        <pt x="457" y="-173" on="1"/>
        <pt x="431" y="-209" on="1"/>
        <pt x="333" y="-205" on="0"/>
        <pt x="184" y="-138" on="0"/>
        <pt x="84" y="-30" on="0"/>
        <pt x="33" y="110" on="0"/>
        <pt x="33" y="188" on="1"/>
        <pt x="33" y="270" on="0"/>
        <pt x="93" y="423" on="0"/>
        <pt x="204" y="541" on="0"/>
        <pt x="362" y="613" on="0"/>
        <pt x="460" y="613" on="1"/>
        <pt x="535" y="613" on="0"/>
        <pt x="660" y="565" on="0"/>
        <pt x="750" y="482" on="0"/>
        <pt x="799" y="369" on="0"/>
        <pt x="799" y="304" on="1"/>
        <pt x="799" y="243" on="0"/>
        <pt x="758" y="129" on="0"/>
        <pt x="677" y="41" on="0"/>
        <pt x="556" y="-12" on="0"/>
      </contour>
      <contour>
        <pt x="310" y="69" on="1"/>
        <pt x="323" y="69" on="0"/>
        <pt x="367" y="114" on="0"/>
        <pt x="421" y="195" on="0"/>
        <pt x="481" y="306" on="0"/>
        <pt x="510" y="373" on="1"/>
        <pt x="505" y="376" on="0"/>
        <pt x="484" y="387" on="0"/>
        <pt x="456" y="398" on="0"/>
        <pt x="424" y="406" on="0"/>
        <pt x="409" y="406" on="1"/>
        <pt x="385" y="406" on="0"/>
        <pt x="339" y="368" on="0"/>
        <pt x="303" y="303" on="0"/>
        <pt x="281" y="219" on="0"/>
        <pt x="281" y="173" on="1"/>
        <pt x="281" y="152" on="0"/>
        <pt x="285" y="115" on="0"/>
        <pt x="293" y="86" on="0"/>
        <pt x="304" y="69" on="0"/>
      </contour>
    </TTGlyph>
    <TTGlyph name="atilde" xMin="41" yMin="-12" xMax="459" yMax="692">
      <component glyphName="a" x="0" y="0" flags="0x204"/>
      <component glyphName="tilde" x="18" y="0" flags="0x4"/>
    </TTGlyph>
</ttFont>
